{
classes = (
{
code = "dvHalant dvRakar";
name = MK_dvConjunctMarks;
},
{
code = "dvMatraCandraE dvMatraShortE dvMatraE dvMatraAi dvMatraOE dvCandrabinduInverted dvCandrabindu dvAnusvara dvUdatta dvGrave dvAcute dvReph dvCandrabindu.calt dvAnusvara.alt dvAnusvara.alt2 dvAnusvara.calt dvMatraCandraE.calt dvReph.alt dvReph.alt2 dvReph_dvAnusvara dvReph_dvAnusvara.alt dvReph_dvAnusvara.alt2 dvMatraE_dvReph dvMatraE_dvReph_dvAnusvara dvMatraAi_dvReph dvMatraAi_dvReph_dvAnusvara";
name = MK_dvMarksAbove;
},
{
code = "dvMatraU dvMatraUu dvMatraU.small dvMatraUu.small dvMatraVocalicR dvMatraVocalicRr dvMatraVocalicR.small";
name = MK_dvMarksBelow;
},
{
code = "dvMatraI dvMatraI.0 dvMatraI.1 dvMatraI.2 dvMatraI.3 dvMatraI.4 dvMatraI.5 dvMatraI.6 dvMatraI.7 dvMatraI.8 dvMatraI.9 dvMatraI.10 dvMatraI.11 dvMatraI.12 dvMatraI.13 dvMatraI.14 dvMatraI.15 dvMatraI.16 dvMatraI.17 dvMatraI.18 dvMatraI.19 dvMatraI.20 dvMatraI.21";
name = dvMatraI;
},
{
code = "dvKa dvKha dvGa dvGha dvNga dvCa dvCha dvJa dvJha dvJha.NEP dvNya dvTta dvTtha dvDda dvDdha dvNna dvTa dvTha dvDa dvDha dvNa dvNnna dvPa dvPha dvBa dvBha dvMa dvYa dvRa dvRra dvLa dvLa.MAR dvLla dvLlla dvVa dvSha dvSha.MAR dvSsa dvSa dvHa dvQa dvKhha dvGhha dvZa dvDddha dvRha dvFa dvYya dvZha dvYaHeavy dvGga dvJja dvDdda dvBba";
name = dvConsonants;
},
{

glyphs = (
{
glyphname = .notdef;
lastChange = "2014-11-22 12:42:30 +0000";
layers = (
{
layerId = UUID0;
name = Regular;
paths = (
{
closed = 1;
nodes = (
"47 23 LINE",
"465 23 LINE",
"465 458 LINE",
"47 458 LINE"
);
},
{
closed = 1;
nodes = (
"105 393 LINE",
"409 393 LINE",
"409 89 LINE",
"105 89 LINE"
);
}
);
width = 512;
},
{
layerId = "818F884A-9448-4DD2-A77B-976162CCCBC7";
name = Bold;
paths = (
{
closed = 1;
nodes = (
"47 23 LINE",
"465 23 LINE",
"465 458 LINE",
"47 458 LINE"
);
},
{
closed = 1;
nodes = (
"157 341 LINE",
"357 341 LINE",
"357 141 LINE",
"157 141 LINE"
);
}
);
width = 512;
}
);
},
{
glyphname = hyphen;
layers = (
{
background = {
paths = (
{
closed = 1;
nodes = (
"253 319 LINE SMOOTH",
"283 319 OFFCURVE",
"313 299 OFFCURVE",
"331 275 CURVE",
"320 249 LINE",
"77 249 LINE",
"36 295 LINE",
"45 319 LINE"
);
}
);
};
layerId = UUID0;
name = Regular;
paths = (
{
closed = 1;
nodes = (
"314 249 LINE",
"323 269 LINE",
"293 319 LINE",
"39 319 LINE",
"30 299 LINE",
"60 249 LINE"
);
}
);
width = 353;
},
{
layerId = "818F884A-9448-4DD2-A77B-976162CCCBC7";
name = Bold;
paths = (
{
closed = 1;
nodes = (
"419 233 LINE",
"444 282 LINE",
"379 365 LINE",
"59 365 LINE",
"34 316 LINE",
"99 233 LINE"
);
}
);
width = 500;
}
);
unicode = 002D;
},
{
glyphname = period;
layers = (
{
layerId = UUID0;
name = Regular;
paths = (
{
closed = 1;
nodes = (
"169 -19 OFFCURVE",
"191 9 OFFCURVE",
"200 33 CURVE",
"187 50 OFFCURVE",
"159 76 OFFCURVE",
"135 85 CURVE",
"115 73 OFFCURVE",
"94 45 OFFCURVE",
"81 19 CURVE",
"95 -1 OFFCURVE",
"127 -25 OFFCURVE",
"148 -33 CURVE"
);
}
);
width = 200;
},
{
layerId = "818F884A-9448-4DD2-A77B-976162CCCBC7";
name = Bold;
paths = (
{
closed = 1;
nodes = (
"263 -19 OFFCURVE",
"303 33 OFFCURVE",
"320 77 CURVE",
"296 109 OFFCURVE",
"245 155 OFFCURVE",
"201 173 CURVE",
"163 151 OFFCURVE",
"125 99 OFFCURVE",
"101 51 CURVE",
"127 15 OFFCURVE",
"186 -29 OFFCURVE",
"225 -45 CURVE"
);
}
);
width = 320;
}
);
unicode = 002E;
},
{
glyphname = dvA;
lastChange = "2014-11-22 14:55:46 +0000";
layers = (
{
anchors = (
{
name = bindu;
position = "{607, 630}";
},
{
name = candrabindu;
position = "{592, 630}";
}
);
background = {
paths = (
{
closed = 1;
nodes = (
"20 268 LINE",
"118 65 OFFCURVE",
"226 22 OFFCURVE",
"305 22 CURVE SMOOTH",
"407 22 OFFCURVE",
"470 92 OFFCURVE",
"470 177 CURVE SMOOTH",
"470 247 OFFCURVE",
"427 327 OFFCURVE",
"332 364 CURVE",
"308 369 LINE",
"261 377 OFFCURVE",
"211 369 OFFCURVE",
"168 335 CURVE",
"213 256 LINE",
"358 331 LINE",
"275 317 LINE",
"363 316 OFFCURVE",
"398 256 OFFCURVE",
"398 203 CURVE SMOOTH",
"398 146 OFFCURVE",
"356 94 OFFCURVE",
"281 94 CURVE SMOOTH",
"193 94 OFFCURVE",
"126 164 OFFCURVE",
"65 295 CURVE"
);
},
{
closed = 1;
nodes = (
"147 472 LINE",
"207 523 OFFCURVE",
"279 558 OFFCURVE",
"328 554 CURVE",
"347 542 OFFCURVE",
"359 515 OFFCURVE",
"359 489 CURVE SMOOTH",
"359 442 OFFCURVE",
"323 384 OFFCURVE",
"222 353 CURVE",
"302 310 LINE",
"390 343 OFFCURVE",
"427 412 OFFCURVE",
"427 469 CURVE SMOOTH",
"427 549 OFFCURVE",
"352 615 OFFCURVE",
"266 615 CURVE SMOOTH",
"204 615 OFFCURVE",
"142 581 OFFCURVE",
"98 539 CURVE"
);
},
{
closed = 1;
nodes = (
"377 290 LINE",
"469 231 OFFCURVE",
"531 220 OFFCURVE",
"579 244 CURVE",
"579 329 LINE",
"536 288 OFFCURVE",
"454 283 OFFCURVE",
"386 324 CURVE"
);
},
{
closed = 1;
nodes = (
"763 538 LINE",
"772 558 LINE",
"742 608 LINE",
"455 608 LINE",
"446 588 LINE",
"476 538 LINE"
);
},
{
closed = 1;
nodes = (
"569 5 LINE",
"628 -33 LINE",
"652 -26 LINE",
"652 500 LINE",
"594 551 LINE",
"569 562 LINE"
);
}
);
};
layerId = UUID0;
name = Regular;
paths = (
{
closed = 1;
nodes = (
"20 268 LINE",
"118 65 OFFCURVE",
"226 22 OFFCURVE",
"305 22 CURVE SMOOTH",
"407 22 OFFCURVE",
"470 92 OFFCURVE",
"470 177 CURVE SMOOTH",
"470 247 OFFCURVE",
"427 327 OFFCURVE",
"332 364 CURVE",
"308 369 LINE",
"261 377 OFFCURVE",
"211 369 OFFCURVE",
"168 335 CURVE",
"213 256 LINE",
"358 331 LINE",
"275 317 LINE",
"363 316 OFFCURVE",
"398 256 OFFCURVE",
"398 203 CURVE SMOOTH",
"398 146 OFFCURVE",
"356 94 OFFCURVE",
"281 94 CURVE SMOOTH",
"193 94 OFFCURVE",
"126 164 OFFCURVE",
"65 295 CURVE"
);
},
{
closed = 1;
nodes = (
"147 472 LINE",
"204 526 OFFCURVE",
"279 559 OFFCURVE",
"328 554 CURVE",
"347 542 OFFCURVE",
"362 516 OFFCURVE",
"362 489 CURVE SMOOTH",
"362 447 OFFCURVE",
"327 385 OFFCURVE",
"222 353 CURVE",
"302 310 LINE",
"390 343 OFFCURVE",
"429 410 OFFCURVE",
"429 465 CURVE SMOOTH",
"429 541 OFFCURVE",
"353 615 OFFCURVE",
"264 615 CURVE SMOOTH",
"204 615 OFFCURVE",
"142 581 OFFCURVE",
"98 539 CURVE"
);
},
{
closed = 1;
nodes = (
"377 290 LINE",
"469 231 OFFCURVE",
"531 220 OFFCURVE",
"579 244 CURVE",
"579 329 LINE",
"536 288 OFFCURVE",
"454 283 OFFCURVE",
"386 324 CURVE"
);
},
{
closed = 1;
nodes = (
"763 538 LINE",
"772 558 LINE",
"742 608 LINE",
"455 608 LINE",
"446 588 LINE",
"476 538 LINE"
);
},
{
closed = 1;
nodes = (
"569 5 LINE",
"628 -33 LINE",
"652 -26 LINE",
"652 500 LINE",
"594 551 LINE",
"569 562 LINE"
);
}
);
width = 742;
},
{
anchors = (
{
name = bindu;
position = "{728, 670}";
},
{
name = candrabindu;
position = "{708, 670}";
}
);
layerId = "818F884A-9448-4DD2-A77B-976162CCCBC7";
name = Bold;
paths = (
{
closed = 1;
nodes = (
"15 277 LINE",
"126 29 OFFCURVE",
"266 -19 OFFCURVE",
"360 -19 CURVE SMOOTH",
"491 -19 OFFCURVE",
"550 75 OFFCURVE",
"550 163 CURVE SMOOTH",
"550 234 OFFCURVE",
"512 328 OFFCURVE",
"386 388 CURVE",
"337 433 LINE",
"283 442 OFFCURVE",
"205 413 OFFCURVE",
"162 374 CURVE",
"267 220 LINE",
"406 308 LINE",
"314 288 LINE",
"379 297 OFFCURVE",
"405 251 OFFCURVE",
"405 218 CURVE SMOOTH",
"405 183 OFFCURVE",
"374 140 OFFCURVE",
"309 140 CURVE SMOOTH",
"225 140 OFFCURVE",
"163 214 OFFCURVE",
"106 336 CURVE"
);
},
{
closed = 1;
nodes = (
"189 456 LINE",
"248 514 OFFCURVE",
"319 555 OFFCURVE",
"373 550 CURVE",
"374 546 OFFCURVE",
"374 542 OFFCURVE",
"374 537 CURVE SMOOTH",
"374 488 OFFCURVE",
"319 430 OFFCURVE",
"235 403 CURVE",
"418 325 LINE",
"480 366 OFFCURVE",
"514 434 OFFCURVE",
"514 485 CURVE SMOOTH",
"514 569 OFFCURVE",
"420 685 OFFCURVE",
"297 685 CURVE SMOOTH",
"218 685 OFFCURVE",
"143 637 OFFCURVE",
"92 582 CURVE"
);
},
{
closed = 1;
nodes = (
"417 302 LINE",
"519 203 OFFCURVE",
"601 180 OFFCURVE",
"649 204 CURVE",
"659 399 LINE",
"636 338 OFFCURVE",
"504 303 OFFCURVE",
"426 394 CURVE"
);
},
{
closed = 1;
nodes = (
"938 538 LINE",
"963 587 LINE",
"898 670 LINE",
"530 670 LINE",
"505 621 LINE",
"570 538 LINE"
);
},
{
closed = 1;
nodes = (
"642 23 LINE",
"774 -46 LINE",
"828 -19 LINE",
"828 486 LINE",
"708 568 LINE",
"642 599 LINE"
);
}
);
width = 898;
},
{
associatedMasterId = UUID0;
layerId = "7654F671-8DF6-46F6-9DBC-5160C91EDA6B";
name = "Regular Jul 5 14, 18:28";
paths = (
{
closed = 1;
nodes = (
"828 518 LINE",
"837 540 LINE",
"793 588 LINE",
"495 588 LINE",
"486 566 LINE",
"530 518 LINE"
);
},
{
closed = 1;
nodes = (
"165 459 LINE",
"230 508 OFFCURVE",
"303 536 OFFCURVE",
"359 533 CURVE",
"407 502 OFFCURVE",
"429 396 OFFCURVE",
"253 338 CURVE",
"331 299 LINE",
"614 408 OFFCURVE",
"387 732 OFFCURVE",
"119 528 CURVE"
);
},
{
closed = 1;
nodes = (
"408 269 LINE",
"551 177 OFFCURVE",
"610 223 OFFCURVE",
"610 223 CURVE",
"610 308 LINE",
"610 308 OFFCURVE",
"543 242 OFFCURVE",
"417 293 CURVE"
);
},
{
closed = 1;
nodes = (
"32 274 LINE",
"125 56 OFFCURVE",
"238 10 OFFCURVE",
"331 13 CURVE SMOOTH",
"548 20 OFFCURVE",
"528 299 OFFCURVE",
"352 342 CURVE",
"317 347 LINE",
"282 356 OFFCURVE",
"236 352 OFFCURVE",
"186 319 CURVE",
"219 249 LINE",
"335 290 LINE",
"442 246 OFFCURVE",
"424 110 OFFCURVE",
"332 93 CURVE SMOOTH",
"212 71 OFFCURVE",
"128 178 OFFCURVE",
"75 295 CURVE"
);
},
{
closed = 1;
nodes = (
"600 5 LINE",
"659 -33 LINE",
"683 -26 LINE",
"683 480 LINE",
"600 553 LINE"
);
}
);
width = 776;
}
);
unicode = 0905;
},
{
glyphname = dvI;
lastChange = "2014-11-22 14:55:46 +0000";
layers = (
{
anchors = (
{
name = bindu;
position = "{388, 630}";
},
{
name = candrabindu;
position = "{368, 630}";
}
);
background = {
paths = (
{
closed = 1;
nodes = (
"110 149 OFFCURVE",
"87 122 OFFCURVE",
"87 92 CURVE SMOOTH",
"87 57 OFFCURVE",
"119 15 OFFCURVE",
"201 5 CURVE",
"213 5 LINE",
"363 -20 OFFCURVE",
"482 60 OFFCURVE",
"482 157 CURVE SMOOTH",
"482 216 OFFCURVE",
"438 283 OFFCURVE",
"358 313 CURVE",
"162 265 LINE",
"143 287 OFFCURVE",
"134 304 OFFCURVE",
"134 324 CURVE SMOOTH",
"134 371 OFFCURVE",
"186 383 OFFCURVE",
"240 383 CURVE SMOOTH",
"428 383 LINE",
"354 464 LINE",
"214 464 LINE SMOOTH",
"118 464 OFFCURVE",
"63 420 OFFCURVE",
"63 362 CURVE SMOOTH",
"63 294 OFFCURVE",
"139 200 OFFCURVE",
"236 187 CURVE",
"409 233 LINE",
"434 140 OFFCURVE",
"312 25 OFFCURVE",
"133 79 CURVE",
"244 31 LINE",
"152 152 LINE"
);
},
{
closed = 1;
nodes = (
"173 37 LINE",
"326 -187 LINE",
"402 -129 LINE",
"216 45 LINE"
);
},
{
closed = 1;
nodes = (
"559 538 LINE",
"568 558 LINE",
"538 608 LINE",
"-11 608 LINE",
"-20 588 LINE",
"10 538 LINE"
);
},
{
closed = 1;
nodes = (
"350 394 LINE",
"428 383 LINE",
"428 500 LINE",
"370 551 LINE",
"350 562 LINE"
);
}
);
};
layerId = UUID0;
name = Regular;
paths = (
{
closed = 1;
nodes = (
"173 24 LINE",
"316 -200 LINE",
"392 -142 LINE",
"216 32 LINE"
);
},
{
closed = 1;
nodes = (
"559 538 LINE",
"568 558 LINE",
"538 608 LINE",
"-21 608 LINE",
"-30 588 LINE",
"0 538 LINE"
);
},
{
closed = 1;
nodes = (
"360 394 LINE",
"438 383 LINE",
"438 500 LINE",
"380 551 LINE",
"360 562 LINE"
);
},
{
closed = 1;
nodes = (
"91 42 LINE",
"144 1 OFFCURVE",
"211 -18 OFFCURVE",
"275 -18 CURVE SMOOTH",
"390 -18 OFFCURVE",
"496 43 OFFCURVE",
"496 145 CURVE SMOOTH",
"496 215 OFFCURVE",
"440 275 OFFCURVE",
"368 303 CURVE",
"165 252 LINE",
"140 274 OFFCURVE",
"124 293 OFFCURVE",
"124 318 CURVE SMOOTH",
"124 360 OFFCURVE",
"170 383 OFFCURVE",
"230 383 CURVE SMOOTH",
"438 383 LINE",
"364 464 LINE",
"204 464 LINE SMOOTH",
"99 464 OFFCURVE",
"53 410 OFFCURVE",
"53 356 CURVE SMOOTH",
"53 283 OFFCURVE",
"138 189 OFFCURVE",
"239 174 CURVE",
"407 219 LINE",
"453 129 OFFCURVE",
"358 29 OFFCURVE",
"188 42 CURVE",
"244 18 LINE",
"161 153 LINE",
"118 153 LINE"
);
}
);
width = 538;
},
{
anchors = (
{
name = bindu;
position = "{390, 670}";
},
{
name = candrabindu;
position = "{360, 670}";
}
);
background = {
paths = (
{
closed = 1;
nodes = (
"-31 163 LINE",
"81 -3 OFFCURVE",
"200 -84 OFFCURVE",
"323 -88 CURVE SMOOTH",
"457 -92 OFFCURVE",
"554 -4 OFFCURVE",
"554 105 CURVE SMOOTH",
"554 189 OFFCURVE",
"496 278 OFFCURVE",
"378 320 CURVE",
"201 270 LINE",
"191 280 OFFCURVE",
"186 291 OFFCURVE",
"186 300 CURVE SMOOTH",
"186 321 OFFCURVE",
"210 337 OFFCURVE",
"251 337 CURVE SMOOTH",
"496 337 LINE",
"397 486 LINE",
"220 486 LINE SMOOTH",
"87 486 OFFCURVE",
"27 420 OFFCURVE",
"27 349 CURVE SMOOTH",
"27 257 OFFCURVE",
"129 168 OFFCURVE",
"293 111 CURVE",
"424 161 LINE",
"414 109 OFFCURVE",
"356 68 OFFCURVE",
"282 68 CURVE SMOOTH",
"206 68 OFFCURVE",
"125 111 OFFCURVE",
"47 229 CURVE"
);
}
);
};
layerId = "818F884A-9448-4DD2-A77B-976162CCCBC7";
name = Bold;
paths = (
{
closed = 1;
nodes = (
"153 14 LINE",
"340 -277 LINE",
"475 -180 LINE",
"236 12 LINE"
);
},
{
closed = 1;
nodes = (
"640 538 LINE",
"665 587 LINE",
"600 670 LINE",
"-40 670 LINE",
"-65 621 LINE",
"0 538 LINE"
);
},
{
closed = 1;
nodes = (
"342 361 LINE",
"508 343 LINE",
"508 486 LINE",
"388 568 LINE",
"342 599 LINE"
);
},
{
closed = 1;
nodes = (
"59 1 LINE",
"136 -54 OFFCURVE",
"206 -87 OFFCURVE",
"289 -87 CURVE SMOOTH",
"370 -87 OFFCURVE",
"571 -56 OFFCURVE",
"571 104 CURVE SMOOTH",
"571 187 OFFCURVE",
"517 271 OFFCURVE",
"398 314 CURVE",
"194 276 LINE",
"187 283 OFFCURVE",
"183 292 OFFCURVE",
"183 301 CURVE SMOOTH",
"183 322 OFFCURVE",
"204 343 OFFCURVE",
"240 343 CURVE",
"508 343 LINE",
"411 486 LINE",
"220 486 LINE SMOOTH",
"91 486 OFFCURVE",
"27 423 OFFCURVE",
"27 349 CURVE SMOOTH",
"27 260 OFFCURVE",
"123 168 OFFCURVE",
"285 116 CURVE",
"443 158 LINE",
"423 90 OFFCURVE",
"287 24 OFFCURVE",
"195 73 CURVE",
"252 42 LINE",
"181 142 LINE",
"97 144 LINE"
);
}
);
width = 600;
},
{
associatedMasterId = UUID0;
layerId = "A6FE996E-8E43-4464-A650-4ACB1BC9B5DD";
name = "Regular Jul 5 14, 18:35";
paths = (
{
closed = 1;
nodes = (
"418 363 LINE",
"418 477 LINE",
"335 550 LINE",
"335 391 LINE"
);
},
{
closed = 1;
nodes = (
"60 54 LINE",
"90 33 OFFCURVE",
"118 20 OFFCURVE",
"163 11 CURVE",
"179 19 LINE",
"508 -86 OFFCURVE",
"574 266 OFFCURVE",
"303 285 CURVE",
"266 277 OFFCURVE",
"144 266 OFFCURVE",
"144 266 CURVE",
"122 358 OFFCURVE",
"178 363 OFFCURVE",
"240 363 CURVE SMOOTH",
"418 363 LINE",
"340 444 LINE",
"221 444 LINE SMOOTH",
"133 444 OFFCURVE",
"70 397 OFFCURVE",
"70 331 CURVE SMOOTH",
"70 250 OFFCURVE",
"181 176 OFFCURVE",
"228 187 CURVE",
"228 187 OFFCURVE",
"382 204 OFFCURVE",
"382 204 CURVE",
"400 160 OFFCURVE",
"396 91 OFFCURVE",
"335 57 CURVE",
"335 57 OFFCURVE",
"265 64 OFFCURVE",
"193 91 CURVE",
"193 91 OFFCURVE",
"168 129 OFFCURVE",
"113 153 CURVE"
);
},
{
closed = 1;
nodes = (
"584 518 LINE",
"593 540 LINE",
"549 588 LINE",
"-44 588 LINE",
"-53 566 LINE",
"-9 518 LINE"
);
},
{
closed = 1;
nodes = (
"123 54 LINE",
"349 -177 LINE",
"420 -112 LINE",
"194 35 LINE"
);
}
);
width = 508;
},
{
associatedMasterId = UUID0;
background = {
paths = (
{
closed = 1;
nodes = (
"30 112 OFFCURVE",
"64 18 OFFCURVE",
"178 -3 CURVE",
"203 2 LINE",
"223 -2 OFFCURVE",
"240 -6 OFFCURVE",
"261 -6 CURVE SMOOTH",
"333 -6 OFFCURVE",
"458 42 OFFCURVE",
"458 145 CURVE SMOOTH",
"458 217 OFFCURVE",
"398 281 OFFCURVE",
"283 285 CURVE",
"246 281 OFFCURVE",
"154 256 OFFCURVE",
"144 256 CURVE",
"97 323 OFFCURVE",
"144 367 OFFCURVE",
"220 367 CURVE SMOOTH",
"398 367 LINE",
"324 444 LINE",
"191 444 LINE SMOOTH",
"103 444 OFFCURVE",
"50 395 OFFCURVE",
"50 335 CURVE SMOOTH",
"50 247 OFFCURVE",
"162 162 OFFCURVE",
"228 177 CURVE",
"362 204 LINE",
"415 118 OFFCURVE",
"301 12 OFFCURVE",
"130 68 CURVE",
"224 35 LINE",
"132 152 LINE",
"119 153 LINE"
);
},
{
closed = 1;
nodes = (
"143 27 LINE",
"330 -188 LINE",
"401 -123 LINE",
"194 35 LINE"
);
},
{
closed = 1;
nodes = (
"513 518 LINE",
"522 538 LINE",
"488 588 LINE",
"-45 588 LINE",
"-54 568 LINE",
"-20 518 LINE"
);
},
{
closed = 1;
nodes = (
"398 367 LINE",
"398 477 LINE",
"319 546 LINE",
"319 395 LINE"
);
}
);
};
layerId = "204987B0-69A3-484D-A455-A29878D531AC";
name = "Regular Jul 5 14, 19:37";
paths = (
{
closed = 1;
nodes = (
"408 367 LINE",
"408 477 LINE",
"329 546 LINE",
"329 395 LINE"
);
},
{
closed = 1;
nodes = (
"153 27 LINE",
"316 -197 LINE",
"392 -139 LINE",
"206 35 LINE"
);
},
{
closed = 1;
nodes = (
"529 518 LINE",
"538 538 LINE",
"508 588 LINE",
"-21 588 LINE",
"-30 568 LINE",
"0 518 LINE"
);
},
{
closed = 1;
nodes = (
"51 136 OFFCURVE",
"49 17 OFFCURVE",
"178 -3 CURVE",
"203 -3 LINE",
"231 -9 OFFCURVE",
"237 -10 OFFCURVE",
"253 -10 CURVE SMOOTH",
"395 -10 OFFCURVE",
"465 64 OFFCURVE",
"465 141 CURVE SMOOTH",
"465 211 OFFCURVE",
"407 281 OFFCURVE",
"293 287 CURVE",
"144 255 LINE",
"97 322 OFFCURVE",
"144 367 OFFCURVE",
"220 367 CURVE SMOOTH",
"408 367 LINE",
"334 444 LINE",
"193 444 LINE SMOOTH",
"95 444 OFFCURVE",
"52 394 OFFCURVE",
"52 337 CURVE SMOOTH",
"52 246 OFFCURVE",
"162 162 OFFCURVE",
"228 177 CURVE",
"365 210 LINE",
"433 99 OFFCURVE",
"299 15 OFFCURVE",
"165 59 CURVE",
"234 21 LINE",
"142 142 LINE"
);
}
);
width = 508;
},
{
associatedMasterId = UUID0;
background = {
paths = (
{
closed = 1;
nodes = (
"51 156 OFFCURVE",
"49 37 OFFCURVE",
"178 17 CURVE",
"203 15 LINE",
"378 0 OFFCURVE",
"461 86 OFFCURVE",
"461 160 CURVE SMOOTH",
"461 214 OFFCURVE",
"418 284 OFFCURVE",
"338 314 CURVE",
"152 266 LINE",
"134 288 OFFCURVE",
"127 308 OFFCURVE",
"127 323 CURVE SMOOTH",
"127 369 OFFCURVE",
"194 387 OFFCURVE",
"239 387 CURVE SMOOTH",
"408 387 LINE",
"334 464 LINE",
"211 464 LINE SMOOTH",
"110 464 OFFCURVE",
"52 420 OFFCURVE",
"52 361 CURVE SMOOTH",
"52 294 OFFCURVE",
"129 200 OFFCURVE",
"226 187 CURVE",
"389 230 LINE",
"410 139 OFFCURVE",
"298 23 OFFCURVE",
"123 89 CURVE",
"234 41 LINE",
"142 162 LINE"
);
},
{
closed = 1;
nodes = (
"408 387 LINE",
"408 497 LINE",
"329 566 LINE",
"329 415 LINE"
);
},
{
closed = 1;
nodes = (
"163 47 LINE",
"316 -177 LINE",
"392 -119 LINE",
"206 55 LINE"
);
},
{
closed = 1;
nodes = (
"529 538 LINE",
"538 558 LINE",
"508 608 LINE",
"-21 608 LINE",
"-30 588 LINE",
"0 538 LINE"
);
}
);
};
layerId = "1CD6DCD9-AF40-4BD2-8AC6-208D9991CEC6";
name = "Regular Jul 10 14, 12:16";
paths = (
{
closed = 1;
nodes = (
"408 387 LINE",
"408 497 LINE",
"329 566 LINE",
"329 415 LINE"
);
},
{
closed = 1;
nodes = (
"163 47 LINE",
"316 -177 LINE",
"392 -119 LINE",
"206 55 LINE"
);
},
{
closed = 1;
nodes = (
"529 538 LINE",
"538 558 LINE",
"508 608 LINE",
"-21 608 LINE",
"-30 588 LINE",
"0 538 LINE"
);
},
{
closed = 1;
nodes = (
"51 156 OFFCURVE",
"49 37 OFFCURVE",
"178 17 CURVE",
"203 15 LINE",
"374 0 OFFCURVE",
"461 83 OFFCURVE",
"461 161 CURVE SMOOTH",
"461 212 OFFCURVE",
"424 282 OFFCURVE",
"342 313 CURVE",
"144 265 LINE",
"97 332 OFFCURVE",
"154 387 OFFCURVE",
"230 387 CURVE SMOOTH",
"408 387 LINE",
"334 464 LINE",
"203 464 LINE SMOOTH",
"101 464 OFFCURVE",
"52 415 OFFCURVE",
"52 355 CURVE SMOOTH",
"52 256 OFFCURVE",
"185 175 OFFCURVE",
"250 190 CURVE",
"389 230 LINE",
"410 139 OFFCURVE",
"298 23 OFFCURVE",
"123 89 CURVE",
"234 41 LINE",
"142 162 LINE"
);
}
);
width = 508;
},
{
associatedMasterId = UUID0;
background = {
paths = (
{
closed = 1;
nodes = (
"173 37 LINE",
"316 -187 LINE",
"392 -129 LINE",
"216 45 LINE"
);
},
{
closed = 1;
nodes = (
"549 538 LINE",
"558 558 LINE",
"528 608 LINE",
"-21 608 LINE",
"-30 588 LINE",
"0 538 LINE"
);
},
{
closed = 1;
nodes = (
"340 394 LINE",
"418 383 LINE",
"418 500 LINE",
"360 551 LINE",
"340 562 LINE"
);
},
{
closed = 1;
nodes = (
"91 55 LINE",
"116 30 OFFCURVE",
"160 11 OFFCURVE",
"191 5 CURVE",
"203 5 LINE",
"353 -20 OFFCURVE",
"472 60 OFFCURVE",
"472 157 CURVE SMOOTH",
"472 216 OFFCURVE",
"428 283 OFFCURVE",
"348 313 CURVE",
"152 265 LINE",
"133 287 OFFCURVE",
"124 304 OFFCURVE",
"124 324 CURVE SMOOTH",
"124 371 OFFCURVE",
"176 383 OFFCURVE",
"230 383 CURVE SMOOTH",
"418 383 LINE",
"344 464 LINE",
"204 464 LINE SMOOTH",
"108 464 OFFCURVE",
"53 420 OFFCURVE",
"53 362 CURVE SMOOTH",
"53 294 OFFCURVE",
"129 200 OFFCURVE",
"226 187 CURVE",
"399 233 LINE",
"424 140 OFFCURVE",
"302 25 OFFCURVE",
"123 79 CURVE",
"244 31 LINE",
"153 167 LINE",
"94 147 LINE"
);
}
);
};
layerId = "736D7E5C-D80D-47B0-B7F5-778C0F2A3C23";
name = "Regular Jul 10 14, 21:51";
paths = (
{
closed = 1;
nodes = (
"100 149 OFFCURVE",
"77 122 OFFCURVE",
"77 92 CURVE SMOOTH",
"77 57 OFFCURVE",
"109 15 OFFCURVE",
"191 5 CURVE",
"203 5 LINE",
"353 -20 OFFCURVE",
"472 60 OFFCURVE",
"472 157 CURVE SMOOTH",
"472 216 OFFCURVE",
"428 283 OFFCURVE",
"348 313 CURVE",
"152 265 LINE",
"133 287 OFFCURVE",
"124 304 OFFCURVE",
"124 324 CURVE SMOOTH",
"124 371 OFFCURVE",
"176 383 OFFCURVE",
"230 383 CURVE SMOOTH",
"418 383 LINE",
"344 464 LINE",
"204 464 LINE SMOOTH",
"108 464 OFFCURVE",
"53 420 OFFCURVE",
"53 362 CURVE SMOOTH",
"53 294 OFFCURVE",
"129 200 OFFCURVE",
"226 187 CURVE",
"399 233 LINE",
"424 140 OFFCURVE",
"302 25 OFFCURVE",
"123 79 CURVE",
"234 31 LINE",
"142 152 LINE"
);
},
{
closed = 1;
nodes = (
"163 37 LINE",
"316 -187 LINE",
"392 -129 LINE",
"206 45 LINE"
);
},
{
closed = 1;
nodes = (
"549 538 LINE",
"558 558 LINE",
"528 608 LINE",
"-21 608 LINE",
"-30 588 LINE",
"0 538 LINE"
);
},
{
closed = 1;
nodes = (
"340 394 LINE",
"418 383 LINE",
"418 500 LINE",
"360 551 LINE",
"340 562 LINE"
);
}
);
width = 528;
},
{
associatedMasterId = UUID0;
background = {
paths = (
{
closed = 1;
nodes = (
"100 149 OFFCURVE",
"77 122 OFFCURVE",
"77 92 CURVE SMOOTH",
"77 57 OFFCURVE",
"109 15 OFFCURVE",
"191 5 CURVE",
"203 5 LINE",
"353 -20 OFFCURVE",
"472 60 OFFCURVE",
"472 157 CURVE SMOOTH",
"472 216 OFFCURVE",
"428 283 OFFCURVE",
"348 313 CURVE",
"152 265 LINE",
"133 287 OFFCURVE",
"124 304 OFFCURVE",
"124 324 CURVE SMOOTH",
"124 371 OFFCURVE",
"176 383 OFFCURVE",
"230 383 CURVE SMOOTH",
"418 383 LINE",
"344 464 LINE",
"204 464 LINE SMOOTH",
"108 464 OFFCURVE",
"53 420 OFFCURVE",
"53 362 CURVE SMOOTH",
"53 294 OFFCURVE",
"129 200 OFFCURVE",
"226 187 CURVE",
"399 233 LINE",
"424 140 OFFCURVE",
"302 25 OFFCURVE",
"123 79 CURVE",
"234 31 LINE",
"142 152 LINE"
);
},
{
closed = 1;
nodes = (
"163 37 LINE",
"316 -187 LINE",
"392 -129 LINE",
"206 45 LINE"
);
},
{
closed = 1;
nodes = (
"549 538 LINE",
"558 558 LINE",
"528 608 LINE",
"-21 608 LINE",
"-30 588 LINE",
"0 538 LINE"
);
},
{
closed = 1;
nodes = (
"340 394 LINE",
"418 383 LINE",
"418 500 LINE",
"360 551 LINE",
"340 562 LINE"
);
}
);
};
layerId = "4309672E-4AEA-4F12-8090-CDC42E253585";
name = "Regular Jul 10 14, 22:04";
paths = (
{
closed = 1;
nodes = (
"173 34 LINE",
"316 -190 LINE",
"392 -132 LINE",
"216 42 LINE"
);
},
{
closed = 1;
nodes = (
"549 538 LINE",
"558 558 LINE",
"528 608 LINE",
"-21 608 LINE",
"-30 588 LINE",
"0 538 LINE"
);
},
{
closed = 1;
nodes = (
"350 394 LINE",
"428 383 LINE",
"428 500 LINE",
"370 551 LINE",
"350 562 LINE"
);
},
{
closed = 1;
nodes = (
"91 52 LINE",
"116 27 OFFCURVE",
"160 8 OFFCURVE",
"191 2 CURVE",
"203 2 LINE",
"353 -23 OFFCURVE",
"482 53 OFFCURVE",
"482 157 CURVE SMOOTH",
"482 217 OFFCURVE",
"440 282 OFFCURVE",
"358 313 CURVE",
"155 262 LINE",
"135 284 OFFCURVE",
"124 304 OFFCURVE",
"124 325 CURVE SMOOTH",
"124 371 OFFCURVE",
"177 383 OFFCURVE",
"230 383 CURVE SMOOTH",
"428 383 LINE",
"354 464 LINE",
"204 464 LINE SMOOTH",
"108 464 OFFCURVE",
"53 420 OFFCURVE",
"53 362 CURVE SMOOTH",
"53 294 OFFCURVE",
"132 197 OFFCURVE",
"229 184 CURVE",
"409 233 LINE",
"434 130 OFFCURVE",
"302 14 OFFCURVE",
"123 77 CURVE",
"244 28 LINE",
"162 167 LINE",
"104 154 LINE"
);
}
);
width = 528;
}
);
leftKerningGroup = Dda;
rightKerningGroup = Da;
unicode = 0907;
},
{
glyphname = dvIi;
lastChange = "2014-11-22 14:55:46 +0000";
layers = (
{
background = {
paths = (
{
closed = 1;
nodes = (
"412 595 LINE",
"339 641 OFFCURVE",
"311 698 OFFCURVE",
"311 742 CURVE SMOOTH",
"311 790 OFFCURVE",
"344 823 OFFCURVE",
"385 823 CURVE SMOOTH",
"418 823 OFFCURVE",
"456 801 OFFCURVE",
"489 746 CURVE",
"513 758 LINE",
"482 855 OFFCURVE",
"421 893 OFFCURVE",
"364 893 CURVE SMOOTH",
"298 893 OFFCURVE",
"239 842 OFFCURVE",
"239 770 CURVE SMOOTH",
"239 718 OFFCURVE",
"269 654 OFFCURVE",
"357 595 CURVE"
);
}
);
};
components = (
{
name = dvI;
transform = "{1, 0, 0, 1, 0, 0}";
},
{
name = dvReph;
transform = "{1, 0, 0, 1, 543, 0}";
}
);
layerId = UUID0;
name = Regular;
width = 538;
},
{
components = (
{
name = dvI;
transform = "{1, 0, 0, 1, 0, 0}";
},
{
name = dvReph;
transform = "{1, 0, 0, 1, 581, 0}";
}
);
layerId = "818F884A-9448-4DD2-A77B-976162CCCBC7";
name = Bold;
width = 600;
}
);
leftKerningGroup = Dda;
rightKerningGroup = Da;
unicode = 0908;
},
{
glyphname = dvU;
lastChange = "2014-11-22 14:55:46 +0000";
layers = (
{
anchors = (
{
name = bindu;
position = "{327, 630}";
},
{
name = candrabindu;
position = "{319, 630}";
}
);
background = {
paths = (
{
closed = 1;
nodes = (
"20 245 LINE",
"116 45 OFFCURVE",
"214 -1 OFFCURVE",
"298 -1 CURVE SMOOTH",
"407 -1 OFFCURVE",
"471 74 OFFCURVE",
"471 157 CURVE SMOOTH",
"471 228 OFFCURVE",
"423 306 OFFCURVE",
"332 341 CURVE",
"308 346 LINE",
"261 354 OFFCURVE",
"211 346 OFFCURVE",
"168 312 CURVE",
"210 235 LINE",
"315 289 LINE",
"374 273 OFFCURVE",
"399 228 OFFCURVE",
"399 183 CURVE SMOOTH",
"399 127 OFFCURVE",
"358 75 OFFCURVE",
"278 75 CURVE SMOOTH",
"178 75 OFFCURVE",
"119 155 OFFCURVE",
"65 272 CURVE"
);
},
{
closed = 1;
nodes = (
"297 546 LINE",
"336 526 OFFCURVE",
"353 493 OFFCURVE",
"353 459 CURVE SMOOTH",
"353 407 OFFCURVE",
"314 354 OFFCURVE",
"223 332 CURVE",
"301 289 LINE",
"396 322 OFFCURVE",
"425 388 OFFCURVE",
"425 437 CURVE SMOOTH",
"425 494 OFFCURVE",
"385 542 OFFCURVE",
"338 565 CURVE"
);
},
{
closed = 1;
nodes = (
"553 538 LINE",
"562 558 LINE",
"532 608 LINE",
"-21 608 LINE",
"-30 588 LINE",
"0 538 LINE"
);
}
);
};
layerId = UUID0;
name = Regular;
paths = (
{
closed = 1;
nodes = (
"297 546 LINE",
"336 526 OFFCURVE",
"353 493 OFFCURVE",
"353 459 CURVE SMOOTH",
"353 407 OFFCURVE",
"314 366 OFFCURVE",
"223 344 CURVE",
"301 298 LINE",
"400 332 OFFCURVE",
"428 386 OFFCURVE",
"428 435 CURVE SMOOTH",
"428 497 OFFCURVE",
"384 542 OFFCURVE",
"338 565 CURVE"
);
},
{
closed = 1;
nodes = (
"553 538 LINE",
"562 558 LINE",
"532 608 LINE",
"-21 608 LINE",
"-30 588 LINE",
"0 538 LINE"
);
},
{
closed = 1;
nodes = (
"15 242 LINE",
"116 30 OFFCURVE",
"224 -18 OFFCURVE",
"308 -18 CURVE SMOOTH",
"413 -18 OFFCURVE",
"488 56 OFFCURVE",
"488 149 CURVE SMOOTH",
"488 231 OFFCURVE",
"430 314 OFFCURVE",
"334 350 CURVE",
"309 356 LINE",
"260 363 OFFCURVE",
"211 357 OFFCURVE",
"167 322 CURVE",
"211 242 LINE",
"357 317 LINE",
"277 301 LINE",
"367 300 OFFCURVE",
"411 232 OFFCURVE",
"411 173 CURVE SMOOTH",
"411 106 OFFCURVE",
"356 64 OFFCURVE",
"289 64 CURVE SMOOTH",
"196 64 OFFCURVE",
"119 146 OFFCURVE",
"61 270 CURVE"
);
}
);
width = 532;
},
{
anchors = (
{
name = bindu;
position = "{330, 670}";
},
{
name = candrabindu;
position = "{310, 670}";
}
);
background = {
paths = (
{
closed = 1;
nodes = (
"-9 260 LINE",
"103 10 OFFCURVE",
"237 -52 OFFCURVE",
"345 -52 CURVE SMOOTH",
"493 -52 OFFCURVE",
"562 50 OFFCURVE",
"563 151 CURVE SMOOTH",
"564 240 OFFCURVE",
"501 329 OFFCURVE",
"381 377 CURVE",
"329 424 LINE",
"273 434 OFFCURVE",
"191 403 OFFCURVE",
"146 362 CURVE",
"256 200 LINE",
"402 293 LINE",
"305 272 LINE",
"370 281 OFFCURVE",
"402 244 OFFCURVE",
"401 203 CURVE SMOOTH",
"400 150 OFFCURVE",
"361 115 OFFCURVE",
"302 115 CURVE SMOOTH",
"218 115 OFFCURVE",
"147 195 OFFCURVE",
"87 322 CURVE"
);
},
{
closed = 1;
nodes = (
"1 269 LINE",
"84 102 OFFCURVE",
"192 -4 OFFCURVE",
"316 -26 CURVE SMOOTH",
"429 -45 OFFCURVE",
"554 4 OFFCURVE",
"574 124 CURVE SMOOTH",
"590 213 OFFCURVE",
"542 296 OFFCURVE",
"432 357 CURVE",
"236 342 LINE",
"230 351 OFFCURVE",
"228 361 OFFCURVE",
"229 369 CURVE SMOOTH",
"233 390 OFFCURVE",
"257 407 OFFCURVE",
"293 401 CURVE",
"549 357 LINE",
"477 514 LINE",
"282 547 LINE SMOOTH",
"164 568 OFFCURVE",
"95 516 OFFCURVE",
"82 445 CURVE SMOOTH",
"67 356 OFFCURVE",
"145 252 OFFCURVE",
"288 174 CURVE",
"450 196 LINE",
"417 139 OFFCURVE",
"345 122 OFFCURVE",
"283 133 CURVE SMOOTH",
"194 148 OFFCURVE",
"141 223 OFFCURVE",
"86 320 CURVE"
);
}
);
};
layerId = "818F884A-9448-4DD2-A77B-976162CCCBC7";
name = Bold;
paths = (
{
closed = 1;
nodes = (
"250 565 LINE",
"303 536 OFFCURVE",
"326 511 OFFCURVE",
"326 479 CURVE SMOOTH",
"326 438 OFFCURVE",
"288 410 OFFCURVE",
"228 393 CURVE",
"418 305 LINE",
"470 338 OFFCURVE",
"491 391 OFFCURVE",
"491 434 CURVE SMOOTH",
"491 503 OFFCURVE",
"436 556 OFFCURVE",
"345 604 CURVE"
);
},
{
closed = 1;
nodes = (
"640 538 LINE",
"665 587 LINE",
"600 670 LINE",
"-40 670 LINE",
"-65 621 LINE",
"0 538 LINE"
);
},
{
closed = 1;
nodes = (
"-9 260 LINE",
"102 11 OFFCURVE",
"229 -52 OFFCURVE",
"341 -52 CURVE SMOOTH",
"479 -52 OFFCURVE",
"560 45 OFFCURVE",
"560 151 CURVE SMOOTH",
"560 240 OFFCURVE",
"502 335 OFFCURVE",
"381 377 CURVE",
"329 424 LINE",
"273 434 OFFCURVE",
"191 403 OFFCURVE",
"146 362 CURVE",
"256 200 LINE",
"402 293 LINE",
"305 272 LINE",
"363 280 OFFCURVE",
"394 237 OFFCURVE",
"394 198 CURVE SMOOTH",
"394 155 OFFCURVE",
"359 107 OFFCURVE",
"292 107 CURVE SMOOTH",
"203 107 OFFCURVE",
"144 191 OFFCURVE",
"87 312 CURVE"
);
}
);
width = 600;
},
{
associatedMasterId = UUID0;
layerId = "CF257AA3-1FA1-4C17-8844-203A07594774";
name = "Regular Jul 5 14, 21:34";
paths = (
{
closed = 1;
nodes = (
"12 249 LINE",
"105 46 OFFCURVE",
"230 -18 OFFCURVE",
"324 -15 CURVE SMOOTH",
"434 -12 OFFCURVE",
"494 59 OFFCURVE",
"494 141 CURVE SMOOTH",
"494 219 OFFCURVE",
"443 291 OFFCURVE",
"353 314 CURVE",
"320 327 LINE",
"278 339 OFFCURVE",
"220 329 OFFCURVE",
"179 299 CURVE",
"212 229 LINE",
"328 270 LINE",
"438 232 OFFCURVE",
"434 62 OFFCURVE",
"307 63 CURVE SMOOTH",
"188 64 OFFCURVE",
"106 179 OFFCURVE",
"55 271 CURVE"
);
},
{
closed = 1;
nodes = (
"307 526 LINE",
"365 491 OFFCURVE",
"429 363 OFFCURVE",
"247 316 CURVE",
"325 277 LINE",
"523 336 OFFCURVE",
"453 512 OFFCURVE",
"318 564 CURVE"
);
},
{
closed = 1;
nodes = (
"563 518 LINE",
"572 538 LINE",
"542 588 LINE",
"-21 588 LINE",
"-30 568 LINE",
"0 518 LINE"
);
}
);
width = 542;
}
);
unicode = 0909;
},
{
glyphname = dvUu;
lastChange = "2014-11-22 14:55:46 +0000";
layers = (
{
anchors = (
{
name = bindu;
position = "{350, 630}";
},
{
name = candrabindu;
position = "{355, 630}";
}
);
background = {
components = (
{
name = dvU;
transform = "{1, 0, 0, 1, 0, 0}";
}
);
paths = (
{
closed = 1;
nodes = (
"432 154 LINE",
"463 202 OFFCURVE",
"548 260 OFFCURVE",
"600 260 CURVE SMOOTH",
"632 260 OFFCURVE",
"645 241 OFFCURVE",
"645 213 CURVE SMOOTH",
"645 166 OFFCURVE",
"609 99 OFFCURVE",
"565 55 CURVE",
"638 4 LINE",
"693 62 OFFCURVE",
"711 125 OFFCURVE",
"711 177 CURVE SMOOTH",
"711 268 OFFCURVE",
"652 331 OFFCURVE",
"567 331 CURVE SMOOTH",
"504 331 OFFCURVE",
"448 296 OFFCURVE",
"392 236 CURVE"
);
}
);
};
components = (
{
name = dvU;
transform = "{1, 0, 0, 1, 0, 0}";
}
);
layerId = UUID0;
name = Regular;
paths = (
{
closed = 1;
nodes = (
"756 538 LINE",
"765 558 LINE",
"735 608 LINE",
"169 608 LINE",
"160 588 LINE",
"190 538 LINE"
);
},
{
closed = 1;
nodes = (
"615 46 LINE",
"686 99 OFFCURVE",
"731 154 OFFCURVE",
"731 224 CURVE SMOOTH",
"731 308 OFFCURVE",
"666 379 OFFCURVE",
"585 379 CURVE SMOOTH",
"527 379 OFFCURVE",
"474 342 OFFCURVE",
"418 282 CURVE",
"471 219 LINE",
"520 282 OFFCURVE",
"573 314 OFFCURVE",
"614 314 CURVE SMOOTH",
"651 314 OFFCURVE",
"670 289 OFFCURVE",
"670 262 CURVE SMOOTH",
"670 215 OFFCURVE",
"615 155 OFFCURVE",
"557 111 CURVE"
);
}
);
width = 735;
},
{
anchors = (
{
name = bindu;
position = "{395, 670}";
},
{
name = candrabindu;
position = "{415, 670}";
}
);
components = (
{
name = dvU;
transform = "{1, 0, 0, 1, 0, 0}";
}
);
layerId = "818F884A-9448-4DD2-A77B-976162CCCBC7";
name = Bold;
paths = (
{
closed = 1;
nodes = (
"935 538 LINE",
"960 587 LINE",
"895 670 LINE",
"450 670 LINE",
"425 621 LINE",
"490 538 LINE"
);
},
{
closed = 1;
nodes = (
"724 -20 LINE",
"819 44 OFFCURVE",
"874 120 OFFCURVE",
"874 202 CURVE SMOOTH",
"874 309 OFFCURVE",
"781 428 OFFCURVE",
"660 428 CURVE SMOOTH",
"584 428 OFFCURVE",
"514 381 OFFCURVE",
"442 287 CURVE",
"534 146 LINE",
"605 231 OFFCURVE",
"670 281 OFFCURVE",
"707 281 CURVE SMOOTH",
"723 281 OFFCURVE",
"732 272 OFFCURVE",
"732 259 CURVE SMOOTH",
"732 222 OFFCURVE",
"661 165 OFFCURVE",
"600 115 CURVE"
);
}
);
width = 895;
}
);
rightKerningGroup = Ka;
unicode = 090A;
},
{
glyphname = dvVocalicR;
lastChange = "2014-11-22 14:55:46 +0000";
layers = (
{
anchors = (
{
name = bindu;
position = "{444, 630}";
},
{
name = bottom;
position = "{380, 5}";
},
{
name = candrabindu;
position = "{439, 630}";
},
{
name = top;
position = "{448, 468}";
}
);
background = {
paths = (
{
closed = 1;
nodes = (
"907 518 LINE",
"914 540 LINE",
"871 588 LINE",
"-56 588 LINE",
"-63 566 LINE",
"-20 518 LINE"
);
},
{
closed = 1;
nodes = (
"395 15 LINE",
"407 -3 OFFCURVE",
"423 -17 OFFCURVE",
"444 -23 CURVE",
"478 -16 LINE",
"478 480 LINE",
"395 553 LINE"
);
},
{
closed = 1;
nodes = (
"88 108 LINE",
"148 32 LINE",
"464 242 LINE",
"428 283 LINE"
);
},
{
closed = 1;
nodes = (
"91 268 LINE",
"144 315 OFFCURVE",
"202 368 OFFCURVE",
"300 298 CURVE SMOOTH",
"440 199 LINE",
"437 262 LINE",
"315 365 LINE SMOOTH",
"228 438 OFFCURVE",
"124 431 OFFCURVE",
"31 340 CURVE"
);
},
{
closed = 1;
nodes = (
"623 379 LINE",
"606 331 LINE",
"598 305 LINE",
"598 305 OFFCURVE",
"790 171 OFFCURVE",
"562 91 CURVE",
"620 24 LINE",
"892 146 OFFCURVE",
"651 325 OFFCURVE",
"651 325 CURVE"
);
},
{
closed = 1;
nodes = (
"623 309 LINE",
"650 288 LINE",
"666 292 OFFCURVE",
"693 317 OFFCURVE",
"708 351 CURVE",
"626 407 LINE",
"570 371 OFFCURVE",
"595 295 OFFCURVE",
"595 295 CURVE"
);
},
{
closed = 1;
nodes = (
"467 211 LINE",
"571 188 OFFCURVE",
"661 296 OFFCURVE",
"661 296 CURVE",
"636 352 LINE",
"636 352 OFFCURVE",
"591 255 OFFCURVE",
"467 282 CURVE"
);
},
{
closed = 1;
nodes = (
"620 62 LINE",
"660 12 LINE",
"751 32 OFFCURVE",
"780 92 OFFCURVE",
"780 141 CURVE SMOOTH",
"780 227 OFFCURVE",
"691 315 OFFCURVE",
"691 315 CURVE",
"667 270 LINE",
"688 249 OFFCURVE",
"712 211 OFFCURVE",
"712 173 CURVE SMOOTH",
"712 139 OFFCURVE",
"691 96 OFFCURVE",
"627 84 CURVE"
);
}
);
};
components = (
{
name = dvTRa;
transform = "{1, 0, 0, 1, 15, 0}";
}
);
layerId = UUID0;
name = Regular;
paths = (
{
closed = 1;
nodes = (
"620 62 LINE",
"660 10 LINE",
"743 29 OFFCURVE",
"780 91 OFFCURVE",
"780 143 CURVE SMOOTH",
"780 197 OFFCURVE",
"741 255 OFFCURVE",
"691 315 CURVE",
"667 270 LINE",
"695 242 OFFCURVE",
"712 207 OFFCURVE",
"712 175 CURVE SMOOTH",
"712 136 OFFCURVE",
"688 101 OFFCURVE",
"627 84 CURVE"
);
},
{
closed = 1;
nodes = (
"487 201 LINE",
"508 192 OFFCURVE",
"531 188 OFFCURVE",
"552 188 CURVE SMOOTH",
"627 188 OFFCURVE",
"695 237 OFFCURVE",
"707 292 CURVE",
"672 338 LINE",
"666 282 OFFCURVE",
"619 247 OFFCURVE",
"565 247 CURVE SMOOTH",
"539 247 OFFCURVE",
"512 255 OFFCURVE",
"487 272 CURVE"
);
},
{
closed = 1;
nodes = (
"663 299 LINE",
"690 269 LINE",
"719 301 OFFCURVE",
"723 360 OFFCURVE",
"702 397 CURVE",
"609 400 LINE",
"590 366 LINE",
"671 268 LINE"
);
},
{
closed = 1;
nodes = (
"830 538 LINE",
"839 558 LINE",
"809 608 LINE",
"524 608 LINE",
"515 588 LINE",
"545 538 LINE"
);
}
);
width = 809;
},
{
anchors = (
{
name = bindu;
position = "{515, 670}";
},
{
name = bottom;
position = "{386, 0}";
},
{
name = candrabindu;
position = "{525, 670}";
},
{
name = top;
position = "{507, 475}";
}
);
components = (
{
name = dvTRa;
transform = "{1, 0, 0, 1, 0, 0}";
}
);
layerId = "818F884A-9448-4DD2-A77B-976162CCCBC7";
name = Bold;
paths = (
{
closed = 1;
nodes = (
"702 41 LINE",
"799 -58 LINE",
"925 -36 OFFCURVE",
"975 45 OFFCURVE",
"975 115 CURVE SMOOTH",
"975 196 OFFCURVE",
"908 280 OFFCURVE",
"815 368 CURVE",
"758 294 LINE",
"794 258 OFFCURVE",
"819 221 OFFCURVE",
"819 187 CURVE SMOOTH",
"819 150 OFFCURVE",
"790 116 OFFCURVE",
"712 93 CURVE"
);
},
{
closed = 1;
nodes = (
"516 161 LINE",
"547 148 OFFCURVE",
"580 142 OFFCURVE",
"611 142 CURVE SMOOTH",
"721 142 OFFCURVE",
"831 216 OFFCURVE",
"848 296 CURVE",
"787 442 LINE",
"778 360 OFFCURVE",
"709 308 OFFCURVE",
"630 308 CURVE SMOOTH",
"592 308 OFFCURVE",
"553 320 OFFCURVE",
"516 345 CURVE"
);
},
{
closed = 1;
nodes = (
"774 345 LINE",
"853 301 LINE",
"896 348 OFFCURVE",
"892 434 OFFCURVE",
"861 488 CURVE",
"695 492 LINE",
"665 435 LINE",
"785 249 LINE"
);
},
{
closed = 1;
nodes = (
"1013 538 LINE",
"1038 587 LINE",
"973 670 LINE",
"290 670 LINE",
"265 621 LINE",
"330 538 LINE"
);
}
);
width = 973;
}
);
unicode = 090B;
},
{
glyphname = dvVocalicR.ss06;
lastChange = "2014-11-22 15:01:18 +0000";
layers = (
{
anchors = (
{
name = bindu;
position = "{444, 630}";
},
{
name = bottom;
position = "{380, 5}";
},
{
name = candrabindu;
position = "{439, 630}";
},
{
name = top;
position = "{448, 468}";
}
);
background = {
paths = (
{
closed = 1;
nodes = (
"780 143 LINE",
"780 197 OFFCURVE",
"741 255 OFFCURVE",
"691 315 CURVE",
"667 270 LINE",
"695 242 OFFCURVE",
"712 207 OFFCURVE",
"712 175 CURVE"
);
}
);
};
components = (
{
name = dvTRa;
transform = "{1, 0, 0, 1, 15, 0}";
}
);
layerId = UUID0;
name = Regular;
paths = (
{
closed = 1;
nodes = (
"800 177 LINE",
"694 328 LINE",
"667 280 LINE",
"758 156 LINE"
);
},
{
closed = 1;
nodes = (
"477 211 LINE",
"498 202 OFFCURVE",
"531 198 OFFCURVE",
"552 198 CURVE SMOOTH",
"627 198 OFFCURVE",
"695 247 OFFCURVE",
"707 302 CURVE",
"672 348 LINE",
"666 285 OFFCURVE",
"611 255 OFFCURVE",
"558 255 CURVE SMOOTH",
"528 255 OFFCURVE",
"498 264 OFFCURVE",
"477 282 CURVE"
);
},
{
closed = 1;
nodes = (
"663 309 LINE",
"690 279 LINE",
"719 311 OFFCURVE",
"723 370 OFFCURVE",
"702 407 CURVE",
"609 410 LINE",
"590 376 LINE",
"669 276 LINE"
);
},
{
closed = 1;
nodes = (
"868 538 LINE",
"877 558 LINE",
"847 608 LINE",
"524 608 LINE",
"515 588 LINE",
"545 538 LINE"
);
},
{
closed = 1;
nodes = (
"755 212 LINE",
"620 177 OFFCURVE",
"596 117 OFFCURVE",
"596 75 CURVE SMOOTH",
"596 -2 OFFCURVE",
"672 -61 OFFCURVE",
"746 -61 CURVE SMOOTH",
"789 -61 OFFCURVE",
"841 -41 OFFCURVE",
"882 1 CURVE",
"838 67 LINE",
"801 31 OFFCURVE",
"746 3 OFFCURVE",
"708 3 CURVE SMOOTH",
"678 3 OFFCURVE",
"656 20 OFFCURVE",
"656 47 CURVE SMOOTH",
"656 86 OFFCURVE",
"704 115 OFFCURVE",
"784 141 CURVE",
"800 177 LINE"
);
}
);
width = 847;
},
{
anchors = (
{
name = bindu;
position = "{515, 670}";
},
{
name = bottom;
position = "{386, 0}";
},
{
name = candrabindu;
position = "{525, 670}";
},
{
name = top;
position = "{507, 475}";
}
);
components = (
{
name = dvTRa;
transform = "{1, 0, 0, 1, 0, 0}";
}
);
layerId = "818F884A-9448-4DD2-A77B-976162CCCBC7";
name = Bold;
paths = (
{
closed = 1;
nodes = (
"955 123 LINE",
"825 368 LINE",
"758 294 LINE",
"838 155 LINE"
);
},
{
closed = 1;
nodes = (
"516 181 LINE",
"547 168 OFFCURVE",
"580 162 OFFCURVE",
"611 162 CURVE SMOOTH",
"721 162 OFFCURVE",
"831 236 OFFCURVE",
"848 316 CURVE",
"787 442 LINE",
"778 360 OFFCURVE",
"709 308 OFFCURVE",
"630 308 CURVE SMOOTH",
"592 308 OFFCURVE",
"553 320 OFFCURVE",
"516 345 CURVE"
);
},
{
closed = 1;
nodes = (
"774 345 LINE",
"853 301 LINE",
"896 348 OFFCURVE",
"892 434 OFFCURVE",
"861 488 CURVE",
"695 492 LINE",
"665 435 LINE",
"785 249 LINE"
);
},
{
closed = 1;
nodes = (
"1013 538 LINE",
"1038 587 LINE",
"973 670 LINE",
"290 670 LINE",
"265 621 LINE",
"330 538 LINE"
);
},
{
closed = 1;
nodes = (
"891 223 LINE",
"767 203 OFFCURVE",
"651 154 OFFCURVE",
"651 50 CURVE SMOOTH",
"651 -51 OFFCURVE",
"762 -154 OFFCURVE",
"880 -154 CURVE SMOOTH",
"950 -154 OFFCURVE",
"1009 -118 OFFCURVE",
"1046 -79 CURVE",
"962 63 LINE",
"927 27 OFFCURVE",
"848 -13 OFFCURVE",
"809 -13 CURVE SMOOTH",
"791 -13 OFFCURVE",
"784 -4 OFFCURVE",
"784 5 CURVE SMOOTH",
"784 36 OFFCURVE",
"876 61 OFFCURVE",
"928 71 CURVE",
"955 123 LINE"
);
}
);
width = 973;
}
);
},
{
glyphname = dvVocalicRr;
lastChange = "2014-11-22 15:01:18 +0000";
layers = (
{
anchors = (
{
name = bindu;
position = "{444, 630}";
},
{
name = bottom;
position = "{380, 5}";
},
{
name = candrabindu;
position = "{439, 630}";
},
{
name = top;
position = "{448, 468}";
}
);
components = (
{
name = dvTRa;
transform = "{1, 0, 0, 1, 15, 0}";
}
);
layerId = UUID0;
name = Regular;
paths = (
{
closed = 1;
nodes = (
"800 177 LINE",
"694 328 LINE",
"667 280 LINE",
"758 156 LINE"
);
},
{
closed = 1;
nodes = (
"477 211 LINE",
"498 202 OFFCURVE",
"531 198 OFFCURVE",
"552 198 CURVE SMOOTH",
"627 198 OFFCURVE",
"695 247 OFFCURVE",
"707 302 CURVE",
"672 348 LINE",
"666 285 OFFCURVE",
"611 255 OFFCURVE",
"558 255 CURVE SMOOTH",
"528 255 OFFCURVE",
"498 264 OFFCURVE",
"477 282 CURVE"
);
},
{
closed = 1;
nodes = (
"663 309 LINE",
"690 279 LINE",
"719 311 OFFCURVE",
"723 370 OFFCURVE",
"702 407 CURVE",
"609 410 LINE",
"590 376 LINE",
"669 276 LINE"
);
},
{
closed = 1;
nodes = (
"868 538 LINE",
"877 558 LINE",
"847 608 LINE",
"524 608 LINE",
"515 588 LINE",
"545 538 LINE"
);
},
{
closed = 1;
nodes = (
"807 91 LINE",
"670 54 OFFCURVE",
"651 4 OFFCURVE",
"651 -25 CURVE SMOOTH",
"651 -79 OFFCURVE",
"718 -142 OFFCURVE",
"793 -142 CURVE SMOOTH",
"838 -142 OFFCURVE",
"885 -120 OFFCURVE",
"922 -81 CURVE",
"883 -19 LINE",
"846 -54 OFFCURVE",
"788 -86 OFFCURVE",
"747 -86 CURVE SMOOTH",
"720 -86 OFFCURVE",
"710 -72 OFFCURVE",
"710 -59 CURVE SMOOTH",
"710 -35 OFFCURVE",
"745 -1 OFFCURVE",
"841 19 CURVE",
"850 41 LINE"
);
},
{
closed = 1;
nodes = (
"700 18 LINE",
"664 26 OFFCURVE",
"646 40 OFFCURVE",
"646 61 CURVE SMOOTH",
"646 102 OFFCURVE",
"712 121 OFFCURVE",
"784 141 CURVE",
"800 177 LINE",
"755 208 LINE",
"617 175 OFFCURVE",
"581 125 OFFCURVE",
"581 81 CURVE SMOOTH",
"581 33 OFFCURVE",
"624 6 OFFCURVE",
"685 -20 CURVE"
);
}
);
width = 847;
},
{
anchors = (
{
name = bindu;
position = "{515, 670}";
},
{
name = bottom;
position = "{386, 0}";
},
{
name = candrabindu;
position = "{525, 670}";
},
{
name = top;
position = "{506, 475}";
}
);
components = (
{
name = dvTRa;
transform = "{1, 0, 0, 1, 0, 0}";
}
);
layerId = "818F884A-9448-4DD2-A77B-976162CCCBC7";
name = Bold;
paths = (
{
closed = 1;
nodes = (
"955 133 LINE",
"825 368 LINE",
"758 294 LINE",
"862 119 LINE"
);
},
{
closed = 1;
nodes = (
"516 191 LINE",
"547 178 OFFCURVE",
"579 172 OFFCURVE",
"612 172 CURVE SMOOTH",
"720 172 OFFCURVE",
"831 236 OFFCURVE",
"848 316 CURVE",
"787 442 LINE",
"778 360 OFFCURVE",
"708 318 OFFCURVE",
"632 318 CURVE SMOOTH",
"591 318 OFFCURVE",
"553 330 OFFCURVE",
"516 355 CURVE"
);
},
{
closed = 1;
nodes = (
"774 345 LINE",
"853 301 LINE",
"896 348 OFFCURVE",
"892 434 OFFCURVE",
"861 488 CURVE",
"695 492 LINE",
"665 435 LINE",
"785 249 LINE"
);
},
{
closed = 1;
nodes = (
"1033 538 LINE",
"1058 587 LINE",
"993 670 LINE",
"290 670 LINE",
"265 621 LINE",
"330 538 LINE"
);
},
{
closed = 1;
nodes = (
"951 53 LINE",
"833 33 OFFCURVE",
"721 -14 OFFCURVE",
"721 -110 CURVE SMOOTH",
"721 -202 OFFCURVE",
"822 -294 OFFCURVE",
"938 -294 CURVE SMOOTH",
"1011 -294 OFFCURVE",
"1069 -258 OFFCURVE",
"1106 -219 CURVE",
"1022 -87 LINE",
"993 -124 OFFCURVE",
"917 -163 OFFCURVE",
"879 -163 CURVE SMOOTH",
"864 -163 OFFCURVE",
"856 -156 OFFCURVE",
"856 -148 CURVE SMOOTH",
"856 -128 OFFCURVE",
"902 -106 OFFCURVE",
"988 -89 CURVE",
"1015 -37 LINE"
);
},
{
closed = 1;
nodes = (
"788 -19 LINE",
"773 -14 OFFCURVE",
"764 -4 OFFCURVE",
"764 6 CURVE SMOOTH",
"764 39 OFFCURVE",
"859 71 OFFCURVE",
"928 81 CURVE",
"955 133 LINE",
"891 223 LINE",
"772 204 OFFCURVE",
"631 165 OFFCURVE",
"631 61 CURVE SMOOTH",
"631 4 OFFCURVE",
"674 -45 OFFCURVE",
"742 -76 CURVE"
);
}
);
width = 981;
}
);
unicode = 0960;
},
{
glyphname = dvVocalicL;
lastChange = "2014-11-22 14:55:46 +0000";
layers = (
{
anchors = (
{
name = bindu;
position = "{458, 630}";
},
{
name = bottom;
position = "{338, 5}";
},
{
name = candrabindu;
position = "{443, 630}";
},
{
name = top;
position = "{468, 468}";
}
);
background = {
paths = (
{
closed = 1;
nodes = (
"769 518 LINE",
"777 540 LINE",
"734 588 LINE",
"-61 588 LINE",
"-69 566 LINE",
"-26 518 LINE"
);
},
{
closed = 1;
nodes = (
"302 15 LINE",
"-5 247 OFFCURVE",
"211 405 OFFCURVE",
"353 271 CURVE",
"384 233 LINE",
"397 285 LINE",
"289 391 LINE",
"85 461 OFFCURVE",
"-100 213 OFFCURVE",
"275 -24 CURVE"
);
},
{
closed = 1;
nodes = (
"537 355 LINE",
"537 479 LINE",
"454 552 LINE",
"454 344 LINE"
);
},
{
closed = 1;
nodes = (
"638 52 LINE",
"615 41 OFFCURVE",
"512 -9 OFFCURVE",
"506 29 CURVE SMOOTH",
"502 55 OFFCURVE",
"556 95 OFFCURVE",
"598 141 CURVE SMOOTH",
"640 187 OFFCURVE",
"656 223 OFFCURVE",
"650 264 CURVE SMOOTH",
"640 339 OFFCURVE",
"558 391 OFFCURVE",
"459 379 CURVE SMOOTH",
"369 369 OFFCURVE",
"273 300 OFFCURVE",
"285 176 CURVE",
"342 127 LINE",
"377 132 LINE",
"364 360 OFFCURVE",
"562 359 OFFCURVE",
"562 253 CURVE SMOOTH",
"562 195 OFFCURVE",
"501 154 OFFCURVE",
"463 94 CURVE SMOOTH",
"406 4 OFFCURVE",
"510 -99 OFFCURVE",
"672 -26 CURVE"
);
},
{
closed = 1;
nodes = (
"356 154 LINE",
"361 283 OFFCURVE",
"433 367 OFFCURVE",
"533 357 CURVE",
"533 410 LINE",
"422 432 OFFCURVE",
"284 373 OFFCURVE",
"273 195 CURVE",
"332 147 LINE"
);
}
);
};
layerId = UUID0;
name = Regular;
paths = (
{
closed = 1;
nodes = (
"361 287 LINE",
"252 403 LINE",
"231 416 OFFCURVE",
"206 423 OFFCURVE",
"180 423 CURVE SMOOTH",
"109 423 OFFCURVE",
"35 367 OFFCURVE",
"35 272 CURVE SMOOTH",
"35 182 OFFCURVE",
"102 79 OFFCURVE",
"270 -39 CURVE",
"304 5 LINE",
"205 73 OFFCURVE",
"119 150 OFFCURVE",
"119 235 CURVE SMOOTH",
"119 291 OFFCURVE",
"157 337 OFFCURVE",
"212 337 CURVE SMOOTH",
"244 337 OFFCURVE",
"283 322 OFFCURVE",
"316 283 CURVE",
"347 247 LINE"
);
},
{
closed = 1;
nodes = (
"704 538 LINE",
"713 558 LINE",
"683 608 LINE",
"-21 608 LINE",
"-30 588 LINE",
"0 538 LINE"
);
},
{
closed = 1;
nodes = (
"432 399 LINE",
"515 394 LINE",
"515 500 LINE",
"457 551 LINE",
"432 562 LINE"
);
},
{
closed = 1;
nodes = (
"647 5 LINE",
"622 -41 OFFCURVE",
"588 -87 OFFCURVE",
"546 -87 CURVE SMOOTH",
"517 -87 OFFCURVE",
"493 -66 OFFCURVE",
"493 -34 CURVE SMOOTH",
"493 44 OFFCURVE",
"633 124 OFFCURVE",
"633 246 CURVE SMOOTH",
"633 329 OFFCURVE",
"567 416 OFFCURVE",
"466 416 CURVE SMOOTH",
"376 416 OFFCURVE",
"271 348 OFFCURVE",
"291 164 CURVE",
"352 118 LINE",
"370 125 LINE",
"354 258 OFFCURVE",
"408 361 OFFCURVE",
"481 361 CURVE SMOOTH",
"528 361 OFFCURVE",
"555 318 OFFCURVE",
"555 270 CURVE SMOOTH",
"555 164 OFFCURVE",
"425 99 OFFCURVE",
"425 6 CURVE SMOOTH",
"425 -70 OFFCURVE",
"510 -146 OFFCURVE",
"583 -146 CURVE SMOOTH",
"635 -146 OFFCURVE",
"681 -108 OFFCURVE",
"708 -46 CURVE"
);
}
);
width = 683;
},
{
anchors = (
{
name = bindu;
position = "{550, 670}";
},
{
name = bottom;
position = "{370, 0}";
},
{
name = candrabindu;
position = "{490, 670}";
},
{
name = top;
position = "{515, 475}";
}
);
background = {
paths = (
{
closed = 1;
nodes = (
"466 151 LINE",
"466 252 OFFCURVE",
"503 327 OFFCURVE",
"563 355 CURVE",
"638 214 LINE",
"510 55 LINE",
"630 0 LINE",
"788 242 LINE",
"543 464 LINE",
"405 468 OFFCURVE",
"280 381 OFFCURVE",
"285 204 CURVE",
"423 121 LINE"
);
}
);
};
layerId = "818F884A-9448-4DD2-A77B-976162CCCBC7";
name = Bold;
paths = (
{
closed = 1;
nodes = (
"418 338 LINE",
"254 472 LINE",
"236 479 OFFCURVE",
"215 482 OFFCURVE",
"195 482 CURVE SMOOTH",
"109 482 OFFCURVE",
"12 423 OFFCURVE",
"12 300 CURVE SMOOTH",
"12 178 OFFCURVE",
"106 58 OFFCURVE",
"321 -55 CURVE",
"392 40 LINE",
"272 111 OFFCURVE",
"207 161 OFFCURVE",
"207 232 CURVE SMOOTH",
"207 287 OFFCURVE",
"245 318 OFFCURVE",
"288 318 CURVE SMOOTH",
"311 318 OFFCURVE",
"337 309 OFFCURVE",
"358 292 CURVE",
"384 261 LINE"
);
},
{
closed = 1;
nodes = (
"880 538 LINE",
"905 587 LINE",
"840 670 LINE",
"-40 670 LINE",
"-65 621 LINE",
"0 538 LINE"
);
},
{
closed = 1;
nodes = (
"454 393 LINE",
"633 351 LINE",
"633 486 LINE",
"513 568 LINE",
"454 599 LINE"
);
},
{
closed = 1;
nodes = (
"736 67 LINE",
"709 10 OFFCURVE",
"664 -60 OFFCURVE",
"625 -60 CURVE",
"613 -60 OFFCURVE",
"603 -52 OFFCURVE",
"603 -37 CURVE",
"603 5 OFFCURVE",
"766 121 OFFCURVE",
"766 260 CURVE SMOOTH",
"766 373 OFFCURVE",
"659 479 OFFCURVE",
"527 479 CURVE SMOOTH",
"399 479 OFFCURVE",
"278 379 OFFCURVE",
"285 204 CURVE",
"423 121 LINE",
"466 151 LINE",
"466 252 OFFCURVE",
"508 347 OFFCURVE",
"552 347 CURVE",
"583 347 OFFCURVE",
"593 325 OFFCURVE",
"593 300 CURVE SMOOTH",
"593 206 OFFCURVE",
"451 136 OFFCURVE",
"451 20 CURVE SMOOTH",
"451 -82 OFFCURVE",
"560 -193 OFFCURVE",
"678 -193 CURVE SMOOTH",
"763 -193 OFFCURVE",
"822 -135 OFFCURVE",
"863 -46 CURVE"
);
}
);
width = 840;
}
);
leftKerningGroup = La;
rightKerningGroup = LaMAR;
unicode = 090C;
},
{
glyphname = dvVocalicLl;
lastChange = "2014-11-22 15:01:18 +0000";
layers = (
{
anchors = (
{
name = bindu;
position = "{458, 630}";
},
{
name = bottom;
position = "{338, 5}";
},
{
name = candrabindu;
position = "{443, 630}";
},
{
name = top;
position = "{468, 468}";
}
);
layerId = UUID0;
name = Regular;
paths = (
{
closed = 1;
nodes = (
"361 287 LINE",
"252 403 LINE",
"231 416 OFFCURVE",
"206 423 OFFCURVE",
"180 423 CURVE SMOOTH",
"109 423 OFFCURVE",
"35 367 OFFCURVE",
"35 272 CURVE SMOOTH",
"35 182 OFFCURVE",
"102 79 OFFCURVE",
"270 -39 CURVE",
"304 5 LINE",
"205 73 OFFCURVE",
"119 150 OFFCURVE",
"119 235 CURVE SMOOTH",
"119 291 OFFCURVE",
"157 337 OFFCURVE",
"212 337 CURVE SMOOTH",
"244 337 OFFCURVE",
"283 322 OFFCURVE",
"316 283 CURVE",
"347 247 LINE"
);
},
{
closed = 1;
nodes = (
"704 538 LINE",
"713 558 LINE",
"683 608 LINE",
"-21 608 LINE",
"-30 588 LINE",
"0 538 LINE"
);
},
{
closed = 1;
nodes = (
"432 399 LINE",
"515 394 LINE",
"515 500 LINE",
"457 551 LINE",
"432 562 LINE"
);
},
{
closed = 1;
nodes = (
"544 -87 LINE",
"516 -86 OFFCURVE",
"493 -65 OFFCURVE",
"493 -34 CURVE SMOOTH",
"493 44 OFFCURVE",
"633 124 OFFCURVE",
"633 246 CURVE SMOOTH",
"633 329 OFFCURVE",
"567 416 OFFCURVE",
"466 416 CURVE SMOOTH",
"376 416 OFFCURVE",
"271 348 OFFCURVE",
"291 164 CURVE",
"352 118 LINE",
"370 125 LINE",
"354 258 OFFCURVE",
"408 361 OFFCURVE",
"481 361 CURVE SMOOTH",
"528 361 OFFCURVE",
"555 318 OFFCURVE",
"555 269 CURVE SMOOTH",
"555 161 OFFCURVE",
"425 101 OFFCURVE",
"425 -1 CURVE SMOOTH",
"425 -55 OFFCURVE",
"461 -97 OFFCURVE",
"525 -122 CURVE"
);
},
{
closed = 1;
nodes = (
"709 -98 LINE",
"668 -166 OFFCURVE",
"626 -191 OFFCURVE",
"597 -191 CURVE SMOOTH",
"574 -191 OFFCURVE",
"562 -175 OFFCURVE",
"562 -159 CURVE SMOOTH",
"562 -139 OFFCURVE",
"580 -101 OFFCURVE",
"664 -63 CURVE",
"667 -39 LINE",
"613 -2 LINE",
"511 -57 OFFCURVE",
"496 -101 OFFCURVE",
"496 -127 CURVE SMOOTH",
"496 -172 OFFCURVE",
"543 -243 OFFCURVE",
"626 -243 CURVE SMOOTH",
"673 -243 OFFCURVE",
"724 -220 OFFCURVE",
"761 -148 CURVE"
);
}
);
width = 683;
},
{
anchors = (
{
name = bindu;
position = "{550, 670}";
},
{
name = bottom;
position = "{370, 0}";
},
{
name = candrabindu;
position = "{490, 670}";
},
{
name = top;
position = "{515, 475}";
}
);
background = {
paths = (
{
closed = 1;
nodes = (
"625 -60 LINE",
"613 -60 OFFCURVE",
"603 -52 OFFCURVE",
"603 -37 CURVE",
"603 5 OFFCURVE",
"766 121 OFFCURVE",
"766 260 CURVE SMOOTH",
"766 373 OFFCURVE",
"659 479 OFFCURVE",
"527 479 CURVE SMOOTH",
"399 479 OFFCURVE",
"278 379 OFFCURVE",
"285 204 CURVE",
"423 121 LINE",
"466 151 LINE",
"466 252 OFFCURVE",
"508 347 OFFCURVE",
"552 347 CURVE",
"583 347 OFFCURVE",
"593 325 OFFCURVE",
"593 300 CURVE SMOOTH",
"593 206 OFFCURVE",
"451 136 OFFCURVE",
"451 20 CURVE SMOOTH",
"451 -65 OFFCURVE",
"526 -155 OFFCURVE",
"619 -184 CURVE"
);
}
);
};
layerId = "818F884A-9448-4DD2-A77B-976162CCCBC7";
name = Bold;
paths = (
{
closed = 1;
nodes = (
"418 338 LINE",
"254 472 LINE",
"236 479 OFFCURVE",
"215 482 OFFCURVE",
"195 482 CURVE SMOOTH",
"109 482 OFFCURVE",
"12 423 OFFCURVE",
"12 300 CURVE SMOOTH",
"12 178 OFFCURVE",
"106 58 OFFCURVE",
"321 -55 CURVE",
"392 40 LINE",
"272 111 OFFCURVE",
"207 161 OFFCURVE",
"207 232 CURVE SMOOTH",
"207 287 OFFCURVE",
"245 318 OFFCURVE",
"288 318 CURVE SMOOTH",
"311 318 OFFCURVE",
"337 309 OFFCURVE",
"358 292 CURVE",
"384 261 LINE"
);
},
{
closed = 1;
nodes = (
"880 538 LINE",
"905 587 LINE",
"840 670 LINE",
"-40 670 LINE",
"-65 621 LINE",
"0 538 LINE"
);
},
{
closed = 1;
nodes = (
"454 393 LINE",
"633 351 LINE",
"633 486 LINE",
"513 568 LINE",
"454 599 LINE"
);
},
{
closed = 1;
nodes = (
"659 -88 LINE",
"615 -80 OFFCURVE",
"591 -67 OFFCURVE",
"591 -40 CURVE",
"591 3 OFFCURVE",
"766 119 OFFCURVE",
"766 261 CURVE SMOOTH",
"766 372 OFFCURVE",
"659 479 OFFCURVE",
"527 479 CURVE SMOOTH",
"399 479 OFFCURVE",
"278 379 OFFCURVE",
"285 204 CURVE",
"423 121 LINE",
"466 151 LINE",
"466 252 OFFCURVE",
"508 347 OFFCURVE",
"552 347 CURVE",
"583 347 OFFCURVE",
"593 325 OFFCURVE",
"593 300 CURVE SMOOTH",
"593 202 OFFCURVE",
"445 131 OFFCURVE",
"445 10 CURVE SMOOTH",
"445 -74 OFFCURVE",
"517 -146 OFFCURVE",
"619 -174 CURVE"
);
},
{
closed = 1;
nodes = (
"855 -101 LINE",
"824 -156 OFFCURVE",
"761 -196 OFFCURVE",
"735 -196 CURVE SMOOTH",
"725 -196 OFFCURVE",
"720 -190 OFFCURVE",
"720 -183 CURVE SMOOTH",
"720 -163 OFFCURVE",
"755 -131 OFFCURVE",
"828 -91 CURVE",
"838 -43 LINE",
"750 43 LINE",
"668 15 OFFCURVE",
"581 -52 OFFCURVE",
"581 -136 CURVE SMOOTH",
"581 -223 OFFCURVE",
"674 -317 OFFCURVE",
"782 -317 CURVE SMOOTH",
"858 -317 OFFCURVE",
"915 -272 OFFCURVE",
"957 -203 CURVE"
);
}
);
width = 840;
}
);
leftKerningGroup = La;
rightKerningGroup = LaMAR;
unicode = 0961;
},
{
glyphname = dvE;
lastChange = "2014-11-22 14:55:46 +0000";
layers = (
{
anchors = (
{
name = bindu;
position = "{290, 630}";
},
{
name = candrabindu;
position = "{305, 630}";
}
);
background = {
paths = (
{
closed = 1;
nodes = (
"78 299 LINE",
"78 195 OFFCURVE",
"143 126 OFFCURVE",
"229 86 CURVE SMOOTH",
"445 -15 OFFCURVE",
"561 -56 OFFCURVE",
"492 -153 CURVE",
"576 -193 LINE",
"595 -168 OFFCURVE",
"605 -141 OFFCURVE",
"605 -115 CURVE SMOOTH",
"605 -26 OFFCURVE",
"488 42 OFFCURVE",
"161 185 CURVE",
"161 500 LINE",
"100 554 LINE",
"78 573 LINE"
);
},
{
closed = 1;
nodes = (
"390 239 LINE",
"309 194 LINE",
"341 140 LINE",
"456 179 OFFCURVE",
"473 227 OFFCURVE",
"473 367 CURVE SMOOTH",
"473 500 LINE",
"390 573 LINE"
);
},
{
closed = 1;
nodes = (
"576 538 LINE",
"585 558 LINE",
"555 608 LINE",
"-21 608 LINE",
"-30 588 LINE",
"0 538 LINE"
);
}
);
};
layerId = UUID0;
name = Regular;
paths = (
{
closed = 1;
nodes = (
"390 239 LINE",
"309 194 LINE",
"341 140 LINE",
"456 179 OFFCURVE",
"473 227 OFFCURVE",
"473 367 CURVE SMOOTH",
"473 500 LINE",
"411 554 LINE",
"390 563 LINE"
);
},
{
closed = 1;
nodes = (
"576 538 LINE",
"585 558 LINE",
"555 608 LINE",
"-21 608 LINE",
"-30 588 LINE",
"0 538 LINE"
);
},
{
closed = 1;
nodes = (
"543 -166 LINE",
"559 -144 OFFCURVE",
"571 -120 OFFCURVE",
"571 -88 CURVE SMOOTH",
"571 -33 OFFCURVE",
"534 7 OFFCURVE",
"423 60 CURVE SMOOTH",
"161 185 LINE",
"161 500 LINE",
"100 554 LINE",
"78 563 LINE",
"78 299 LINE",
"78 195 OFFCURVE",
"143 126 OFFCURVE",
"229 86 CURVE SMOOTH",
"441 -17 LINE SMOOTH",
"489 -46 OFFCURVE",
"495 -75 OFFCURVE",
"463 -123 CURVE"
);
}
);
width = 555;
},
{
anchors = (
{
name = bindu;
position = "{305, 670}";
},
{
name = candrabindu;
position = "{320, 670}";
}
);
layerId = "818F884A-9448-4DD2-A77B-976162CCCBC7";
name = Bold;
paths = (
{
closed = 1;
nodes = (
"382 283 LINE",
"324 232 LINE",
"416 109 LINE",
"507 153 OFFCURVE",
"568 197 OFFCURVE",
"568 331 CURVE SMOOTH",
"568 486 LINE",
"448 568 LINE",
"382 599 LINE"
);
},
{
closed = 1;
nodes = (
"660 538 LINE",
"685 587 LINE",
"620 670 LINE",
"-40 670 LINE",
"-65 621 LINE",
"0 538 LINE"
);
},
{
closed = 1;
nodes = (
"594 -250 LINE",
"631 -215 OFFCURVE",
"649 -168 OFFCURVE",
"649 -127 CURVE SMOOTH",
"649 -47 OFFCURVE",
"582 5 OFFCURVE",
"411 87 CURVE SMOOTH",
"228 175 LINE",
"228 486 LINE",
"108 568 LINE",
"40 598 LINE",
"40 299 LINE SMOOTH",
"40 182 OFFCURVE",
"110 100 OFFCURVE",
"207 53 CURVE SMOOTH",
"405 -44 LINE SMOOTH",
"468 -75 OFFCURVE",
"480 -109 OFFCURVE",
"427 -177 CURVE"
);
}
);
width = 620;
}
);
unicode = 090F;
},
{
glyphname = dvOE;
lastChange = "2014-11-22 15:01:18 +0000";
layers = (
{
components = (
{
name = dvA;
transform = "{1, 0, 0, 1, 0, 0}";
}
);
layerId = UUID0;
name = Regular;
paths = (
{
closed = 1;
nodes = (
"573 775 LINE",
"573 575 LINE",
"607 553 LINE",
"631 560 LINE",
"631 775 LINE"
);
}
);
width = 742;
},
{
components = (
{
name = dvA;
transform = "{1, 0, 0, 1, 0, 0}";
}
);
layerId = "818F884A-9448-4DD2-A77B-976162CCCBC7";
name = Bold;
paths = (
{
closed = 1;
nodes = (
"660 855 LINE",
"660 611 LINE",
"757 564 LINE",
"788 584 LINE",
"788 855 LINE"
);
}
);
width = 898;
}
);
unicode = 0973;
},
{
glyphname = dvOOE;
lastChange = "2014-11-22 15:01:18 +0000";
layers = (
{
components = (
{
name = dvAa;
transform = "{1, 0, 0, 1, 0, 0}";
}
);
layerId = UUID0;
name = Regular;
paths = (
{
closed = 1;
nodes = (
"836 775 LINE",
"836 575 LINE",
"870 553 LINE",
"894 560 LINE",
"894 775 LINE"
);
}
);
width = 1005;
},
{
components = (
{
name = dvAa;
transform = "{1, 0, 0, 1, 0, 0}";
}
);
layerId = "818F884A-9448-4DD2-A77B-976162CCCBC7";
name = Bold;
paths = (
{
closed = 1;
nodes = (
"973 855 LINE",
"973 611 LINE",
"1070 564 LINE",
"1101 584 LINE",
"1101 855 LINE"
);
}
);
width = 1214;
}
);
unicode = 0974;
},
{
glyphname = dvKa;
lastChange = "2014-11-22 14:55:46 +0000";
layers = (
{
anchors = (
{
name = bindu;
position = "{370, 630}";
},
{
name = bottom;
position = "{310, 5}";
},
{
name = candrabindu;
position = "{380, 630}";
},
{
name = candrabinduCXT;
position = "{645, 630}";
},
{
name = top;
position = "{380, 468}";
}
);
background = {
paths = (
{
closed = 1;
nodes = (
"218 436 LINE",
"130 463 OFFCURVE",
"25 400 OFFCURVE",
"25 297 CURVE SMOOTH",
"25 188 OFFCURVE",
"141 103 OFFCURVE",
"230 103 CURVE SMOOTH",
"288 103 OFFCURVE",
"335 139 OFFCURVE",
"367 190 CURVE",
"342 276 LINE",
"301 192 OFFCURVE",
"198 143 OFFCURVE",
"124 187 CURVE",
"69 267 OFFCURVE",
"116 369 OFFCURVE",
"217 369 CURVE SMOOTH",
"265 369 OFFCURVE",
"308 346 OFFCURVE",
"351 319 CURVE",
"354 371 LINE"
);
},
{
closed = 1;
nodes = (
"746 538 LINE",
"755 558 LINE",
"725 608 LINE",
"-21 608 LINE",
"-30 588 LINE",
"0 538 LINE"
);
},
{
closed = 1;
nodes = (
"322 5 LINE",
"381 -33 LINE",
"405 -26 LINE",
"405 500 LINE",
"347 551 LINE",
"322 562 LINE"
);
},
{
closed = 1;
nodes = (
"384 198 LINE",
"446 285 OFFCURVE",
"501 327 OFFCURVE",
"553 327 CURVE SMOOTH",
"607 327 OFFCURVE",
"625 283 OFFCURVE",
"625 253 CURVE SMOOTH",
"625 200 OFFCURVE",
"567 140 OFFCURVE",
"482 81 CURVE",
"543 12 LINE",
"627 68 OFFCURVE",
"690 142 OFFCURVE",
"690 225 CURVE SMOOTH",
"690 315 OFFCURVE",
"616 401 OFFCURVE",
"530 401 CURVE SMOOTH",
"462 401 OFFCURVE",
"395 347 OFFCURVE",
"362 286 CURVE"
);
}
);
};
layerId = UUID0;
name = Regular;
paths = (
{
closed = 1;
nodes = (
"218 436 LINE",
"130 463 OFFCURVE",
"25 400 OFFCURVE",
"25 297 CURVE SMOOTH",
"25 188 OFFCURVE",
"141 103 OFFCURVE",
"230 103 CURVE SMOOTH",
"288 103 OFFCURVE",
"335 139 OFFCURVE",
"367 190 CURVE",
"342 276 LINE",
"301 192 OFFCURVE",
"198 143 OFFCURVE",
"124 187 CURVE",
"69 267 OFFCURVE",
"116 369 OFFCURVE",
"217 369 CURVE SMOOTH",
"265 369 OFFCURVE",
"308 346 OFFCURVE",
"351 319 CURVE",
"354 371 LINE"
);
},
{
closed = 1;
nodes = (
"746 538 LINE",
"755 558 LINE",
"725 608 LINE",
"-21 608 LINE",
"-30 588 LINE",
"0 538 LINE"
);
},
{
closed = 1;
nodes = (
"322 5 LINE",
"381 -33 LINE",
"405 -26 LINE",
"405 500 LINE",
"347 551 LINE",
"322 562 LINE"
);
},
{
closed = 1;
nodes = (
"384 198 LINE",
"446 285 OFFCURVE",
"500 327 OFFCURVE",
"555 327 CURVE SMOOTH",
"607 327 OFFCURVE",
"625 290 OFFCURVE",
"625 257 CURVE SMOOTH",
"625 198 OFFCURVE",
"569 142 OFFCURVE",
"482 81 CURVE",
"543 12 LINE",
"631 71 OFFCURVE",
"690 143 OFFCURVE",
"690 228 CURVE SMOOTH",
"690 323 OFFCURVE",
"616 401 OFFCURVE",
"531 401 CURVE SMOOTH",
"461 401 OFFCURVE",
"395 347 OFFCURVE",
"362 286 CURVE"
);
}
);
width = 725;
},
{
anchors = (
{
name = bindu;
position = "{415, 670}";
},
{
name = bottom;
position = "{308, 0}";
},
{
name = candrabindu;
position = "{465, 670}";
},
{
name = candrabinduCXT;
position = "{775, 670}";
},
{
name = top;
position = "{450, 475}";
}
);
background = {
paths = (
{
closed = 1;
nodes = (
"249 480 LINE",
"103 510 OFFCURVE",
"18 409 OFFCURVE",
"18 310 CURVE SMOOTH",
"18 169 OFFCURVE",
"187 82 OFFCURVE",
"298 82 CURVE SMOOTH",
"365 82 OFFCURVE",
"406 113 OFFCURVE",
"445 154 CURVE",
"357 322 LINE",
"324 251 OFFCURVE",
"261 217 OFFCURVE",
"216 208 CURVE",
"178 265 OFFCURVE",
"213 347 OFFCURVE",
"294 347 CURVE SMOOTH",
"330 347 OFFCURVE",
"368 331 OFFCURVE",
"420 294 CURVE",
"444 375 LINE"
);
},
{
closed = 1;
nodes = (
"885 538 LINE",
"910 587 LINE",
"845 670 LINE",
"-40 670 LINE",
"-65 621 LINE",
"0 538 LINE"
);
},
{
closed = 1;
nodes = (
"332 23 LINE",
"464 -46 LINE",
"518 -19 LINE",
"518 486 LINE",
"398 568 LINE",
"332 599 LINE"
);
},
{
closed = 1;
nodes = (
"456 128 LINE",
"505 206 OFFCURVE",
"593 289 OFFCURVE",
"639 289 CURVE SMOOTH",
"655 289 OFFCURVE",
"662 278 OFFCURVE",
"662 267 CURVE SMOOTH",
"662 237 OFFCURVE",
"608 185 OFFCURVE",
"531 135 CURVE",
"650 -2 LINE",
"761 60 OFFCURVE",
"822 143 OFFCURVE",
"822 233 CURVE SMOOTH",
"822 347 OFFCURVE",
"726 459 OFFCURVE",
"610 459 CURVE SMOOTH",
"503 459 OFFCURVE",
"431 366 OFFCURVE",
"378 267 CURVE"
);
}
);
};
layerId = "818F884A-9448-4DD2-A77B-976162CCCBC7";
name = Bold;
paths = (
{
closed = 1;
nodes = (
"249 480 LINE",
"96 503 OFFCURVE",
"19 405 OFFCURVE",
"19 306 CURVE SMOOTH",
"19 161 OFFCURVE",
"187 82 OFFCURVE",
"297 82 CURVE SMOOTH",
"364 82 OFFCURVE",
"404 111 OFFCURVE",
"445 154 CURVE",
"357 322 LINE",
"324 251 OFFCURVE",
"261 217 OFFCURVE",
"216 208 CURVE",
"178 252 OFFCURVE",
"212 347 OFFCURVE",
"295 347 CURVE SMOOTH",
"331 347 OFFCURVE",
"371 329 OFFCURVE",
"420 294 CURVE",
"444 375 LINE"
);
},
{
closed = 1;
nodes = (
"885 538 LINE",
"910 587 LINE",
"845 670 LINE",
"-40 670 LINE",
"-65 621 LINE",
"0 538 LINE"
);
},
{
closed = 1;
nodes = (
"332 23 LINE",
"464 -46 LINE",
"518 -19 LINE",
"518 486 LINE",
"398 568 LINE",
"332 599 LINE"
);
},
{
closed = 1;
nodes = (
"466 128 LINE",
"518 210 OFFCURVE",
"604 289 OFFCURVE",
"649 289 CURVE SMOOTH",
"665 289 OFFCURVE",
"672 280 OFFCURVE",
"672 265 CURVE SMOOTH",
"672 220 OFFCURVE",
"610 171 OFFCURVE",
"531 110 CURVE",
"660 -22 LINE",
"767 48 OFFCURVE",
"832 134 OFFCURVE",
"832 231 CURVE SMOOTH",
"832 349 OFFCURVE",
"736 459 OFFCURVE",
"620 459 CURVE SMOOTH",
"513 459 OFFCURVE",
"441 366 OFFCURVE",
"388 267 CURVE"
);
}
);
width = 845;
},
{
associatedMasterId = UUID0;
layerId = "75B320E4-C66D-4A66-810F-15114C1DF8AB";
name = "Regular Jul 11 14, 19:58";
paths = (
{
closed = 1;
nodes = (
"757 518 LINE",
"764 540 LINE",
"721 588 LINE",
"-56 588 LINE",
"-63 566 LINE",
"-20 518 LINE"
);
},
{
closed = 1;
nodes = (
"302 15 LINE",
"314 -3 OFFCURVE",
"331 -17 OFFCURVE",
"352 -23 CURVE",
"385 -16 LINE",
"385 480 LINE",
"302 553 LINE"
);
},
{
closed = 1;
nodes = (
"320 364 OFFCURVE",
"217 426 OFFCURVE",
"195 426 CURVE",
"59 433 OFFCURVE",
"12 326 OFFCURVE",
"12 266 CURVE SMOOTH",
"12 215 OFFCURVE",
"37 179 OFFCURVE",
"67 156 CURVE",
"87 137 OFFCURVE",
"139 103 OFFCURVE",
"157 95 CURVE SMOOTH",
"221 65 OFFCURVE",
"284 91 OFFCURVE",
"318 141 CURVE",
"318 141 OFFCURVE",
"319 254 OFFCURVE",
"319 254 CURVE",
"299 196 OFFCURVE",
"137 95 OFFCURVE",
"105 172 CURVE SMOOTH",
"80 232 OFFCURVE",
"98 344 OFFCURVE",
"223 355 CURVE SMOOTH",
"273 359 OFFCURVE",
"318 332 OFFCURVE",
"318 332 CURVE",
"318 332 OFFCURVE",
"320 364 OFFCURVE",
"320 364 CURVE"
);
},
{
closed = 1;
nodes = (
"523 33 LINE",
"786 169 OFFCURVE",
"682 420 OFFCURVE",
"494 381 CURVE",
"415 366 OFFCURVE",
"325 254 OFFCURVE",
"308 234 CURVE",
"316 225 LINE",
"316 225 OFFCURVE",
"314 136 OFFCURVE",
"314 136 CURVE",
"392 218 OFFCURVE",
"486 301 OFFCURVE",
"536 312 CURVE SMOOTH",
"661 341 OFFCURVE",
"645 191 OFFCURVE",
"477 104 CURVE"
);
}
);
width = 700;
}
);
leftKerningGroup = Ka;
rightKerningGroup = Ka;
unicode = 0915;
},
{
glyphname = dvKha;
lastChange = "2014-11-22 14:55:46 +0000";
layers = (
{
anchors = (
{
name = bindu;
position = "{474, 630}";
},
{
name = bottom;
position = "{547, -40}";
},
{
name = candrabindu;
position = "{492, 630}";
},
{
name = candrabinduCXT;
position = "{802, 630}";
},
{
name = top;
position = "{647, 468}";
}
);
background = {
paths = (
{
closed = 1;
nodes = (
"803 538 LINE",
"812 558 LINE",
"782 608 LINE",
"216 608 LINE",
"207 588 LINE",
"237 538 LINE"
);
},
{
closed = 1;
nodes = (
"609 5 LINE",
"668 -33 LINE",
"692 -26 LINE",
"692 500 LINE",
"634 551 LINE",
"609 562 LINE"
);
},
{
closed = 1;
nodes = (
"419 538 LINE",
"428 558 LINE",
"398 608 LINE",
"-21 608 LINE",
"-30 588 LINE",
"0 538 LINE"
);
},
{
closed = 1;
nodes = (
"285 502 LINE",
"238 543 LINE",
"203 554 LINE",
"206 398 LINE SMOOTH",
"208 310 OFFCURVE",
"163 279 OFFCURVE",
"87 269 CURVE",
"157 166 LINE",
"225 248 LINE SMOOTH",
"260 291 OFFCURVE",
"288 322 OFFCURVE",
"287 379 CURVE SMOOTH"
);
},
{
closed = 1;
nodes = (
"508 51 OFFCURVE",
"469 44 OFFCURVE",
"430 44 CURVE",
"325 44 OFFCURVE",
"198 111 OFFCURVE",
"148 242 CURVE",
"223 330 LINE",
"81 331 LINE",
"59 281 LINE",
"126 96 OFFCURVE",
"290 -20 OFFCURVE",
"436 -20 CURVE",
"479 -20 OFFCURVE",
"523 -13 OFFCURVE",
"566 0 CURVE",
"547 60 LINE"
);
},
{
closed = 1;
nodes = (
"619 288 LINE",
"606 231 OFFCURVE",
"558 196 OFFCURVE",
"502 196 CURVE SMOOTH",
"446 196 OFFCURVE",
"406 231 OFFCURVE",
"406 282 CURVE SMOOTH",
"406 339 OFFCURVE",
"454 378 OFFCURVE",
"515 378 CURVE SMOOTH",
"550 378 OFFCURVE",
"589 365 OFFCURVE",
"623 337 CURVE",
"635 375 LINE",
"595 404 OFFCURVE",
"531 446 OFFCURVE",
"513 447 CURVE",
"385 459 OFFCURVE",
"336 371 OFFCURVE",
"336 308 CURVE SMOOTH",
"336 215 OFFCURVE",
"445 126 OFFCURVE",
"537 126 CURVE SMOOTH",
"600 126 OFFCURVE",
"640 169 OFFCURVE",
"670 231 CURVE"
);
}
);
};
guideLines = (
{
angle = 90;
position = "{287, 379}";
}
);
layerId = UUID0;
name = Regular;
paths = (
{
closed = 1;
nodes = (
"619 288 LINE",
"609 200 OFFCURVE",
"505 172 OFFCURVE",
"434 206 CURVE",
"375 270 OFFCURVE",
"409 378 OFFCURVE",
"514 378 CURVE SMOOTH",
"550 378 OFFCURVE",
"589 365 OFFCURVE",
"623 337 CURVE",
"645 375 LINE",
"513 447 LINE",
"420 467 OFFCURVE",
"337 394 OFFCURVE",
"337 312 CURVE SMOOTH",
"337 220 OFFCURVE",
"440 126 OFFCURVE",
"536 126 CURVE SMOOTH",
"599 126 OFFCURVE",
"639 167 OFFCURVE",
"670 231 CURVE"
);
},
{
closed = 1;
nodes = (
"803 538 LINE",
"812 558 LINE",
"782 608 LINE",
"216 608 LINE",
"207 588 LINE",
"239 538 LINE"
);
},
{
closed = 1;
nodes = (
"609 5 LINE",
"668 -33 LINE",
"692 -26 LINE",
"692 500 LINE",
"634 551 LINE",
"609 562 LINE"
);
},
{
closed = 1;
nodes = (
"419 538 LINE",
"428 558 LINE",
"398 608 LINE",
"-21 608 LINE",
"-30 588 LINE",
"0 538 LINE"
);
},
{
closed = 1;
nodes = (
"287 502 LINE",
"240 543 LINE",
"205 554 LINE",
"206 398 LINE SMOOTH",
"207 310 OFFCURVE",
"163 279 OFFCURVE",
"87 269 CURVE",
"157 166 LINE",
"225 248 LINE SMOOTH",
"260 291 OFFCURVE",
"287 322 OFFCURVE",
"287 379 CURVE SMOOTH"
);
},
{
closed = 1;
nodes = (
"594 85 OFFCURVE",
"523 44 OFFCURVE",
"430 44 CURVE",
"325 44 OFFCURVE",
"198 111 OFFCURVE",
"148 242 CURVE",
"223 331 LINE",
"81 331 LINE",
"59 281 LINE",
"126 96 OFFCURVE",
"290 -20 OFFCURVE",
"436 -20 CURVE",
"523 -20 OFFCURVE",
"604 12 OFFCURVE",
"655 83 CURVE",
"638 149 LINE"
);
}
);
width = 782;
},
{
anchors = (
{
name = bindu;
position = "{530, 670}";
},
{
name = bottom;
position = "{630, -70}";
},
{
name = candrabindu;
position = "{550, 670}";
},
{
name = candrabinduCXT;
position = "{1050, 670}";
},
{
name = top;
position = "{745, 475}";
}
);
background = {
paths = (
{
closed = 1;
nodes = (
"485 88 LINE",
"187 252 LINE",
"216 362 LINE",
"57 363 LINE",
"19 273 LINE",
"361 -69 LINE",
"485 34 LINE"
);
}
);
};
guideLines = (
{
angle = 90;
position = "{409, 486}";
}
);
layerId = "818F884A-9448-4DD2-A77B-976162CCCBC7";
name = Bold;
paths = (
{
closed = 1;
nodes = (
"686 335 LINE",
"656 271 OFFCURVE",
"594 237 OFFCURVE",
"541 244 CURVE",
"510 283 OFFCURVE",
"539 368 OFFCURVE",
"620 368 CURVE SMOOTH",
"655 368 OFFCURVE",
"699 352 OFFCURVE",
"743 320 CURVE",
"765 374 LINE",
"580 489 LINE",
"444 517 OFFCURVE",
"371 420 OFFCURVE",
"371 329 CURVE SMOOTH",
"371 197 OFFCURVE",
"525 128 OFFCURVE",
"629 128 CURVE SMOOTH",
"693 128 OFFCURVE",
"729 154 OFFCURVE",
"766 193 CURVE"
);
},
{
closed = 1;
nodes = (
"960 538 LINE",
"985 587 LINE",
"920 670 LINE",
"200 670 LINE",
"175 621 LINE",
"240 538 LINE"
);
},
{
closed = 1;
nodes = (
"664 23 LINE",
"796 -46 LINE",
"850 -19 LINE",
"850 486 LINE",
"730 568 LINE",
"664 599 LINE"
);
},
{
closed = 1;
nodes = (
"545 538 LINE",
"570 587 LINE",
"505 670 LINE",
"-40 670 LINE",
"-65 621 LINE",
"0 538 LINE"
);
},
{
closed = 1;
nodes = (
"379 486 LINE",
"259 568 LINE",
"196 599 LINE",
"196 361 LINE",
"196 324 OFFCURVE",
"139 298 OFFCURVE",
"86 271 CURVE",
"198 159 LINE",
"283 211 LINE SMOOTH",
"349 251 OFFCURVE",
"379 286 OFFCURVE",
"379 354 CURVE"
);
},
{
closed = 1;
nodes = (
"642 104 OFFCURVE",
"560 78 OFFCURVE",
"478 78 CURVE SMOOTH",
"356 78 OFFCURVE",
"241 136 OFFCURVE",
"211 255 CURVE",
"276 362 LINE",
"57 363 LINE",
"19 273 LINE",
"115 60 OFFCURVE",
"305 -56 OFFCURVE",
"494 -56 CURVE SMOOTH",
"585 -56 OFFCURVE",
"681 -29 OFFCURVE",
"738 24 CURVE",
"686 141 LINE"
);
}
);
width = 920;
}
);
leftKerningGroup = Ra;
unicode = 0916;
},
{
glyphname = dvGa;
lastChange = "2014-11-22 18:40:44 +0000";
layers = (
{
anchors = (
{
name = bindu;
position = "{335, 630}";
},
{
name = bottom;
position = "{405, 5}";
},
{
name = candrabindu;
position = "{340, 630}";
},
{
name = candrabinduCXT;
position = "{610, 630}";
},
{
name = top;
position = "{455, 468}";
}
);
background = {
paths = (
{
closed = 1;
nodes = (
"417 5 LINE",
"476 -33 LINE",
"500 -26 LINE",
"500 500 LINE",
"442 551 LINE",
"417 562 LINE"
);
},
{
closed = 1;
nodes = (
"611 538 LINE",
"620 558 LINE",
"590 608 LINE",
"-21 608 LINE",
"-30 588 LINE",
"0 538 LINE"
);
},
{
closed = 1;
nodes = (
"142 253 LINE",
"225 222 LINE",
"225 500 LINE",
"167 551 LINE",
"142 562 LINE"
);
},
{
closed = 1;
nodes = (
"225 246 LINE",
"180 300 LINE",
"66 298 LINE",
"57 290 OFFCURVE",
"52 281 OFFCURVE",
"52 269 CURVE SMOOTH",
"52 215 OFFCURVE",
"147 129 OFFCURVE",
"193 129 CURVE",
"214 129 OFFCURVE",
"226 147 OFFCURVE",
"225 181 CURVE"
);
}
);
};
layerId = UUID0;
name = Regular;
paths = (
{
closed = 1;
nodes = (
"45 272 LINE",
"64 217 OFFCURVE",
"125 158 OFFCURVE",
"177 128 CURVE",
"225 148 LINE",
"225 276 LINE",
"164 311 LINE",
"73 311 LINE"
);
},
{
closed = 1;
nodes = (
"417 5 LINE",
"476 -33 LINE",
"500 -26 LINE",
"500 500 LINE",
"442 551 LINE",
"417 562 LINE"
);
},
{
closed = 1;
nodes = (
"611 538 LINE",
"620 558 LINE",
"590 608 LINE",
"-21 608 LINE",
"-30 588 LINE",
"0 538 LINE"
);
},
{
closed = 1;
nodes = (
"142 263 LINE",
"225 232 LINE",
"225 500 LINE",
"167 551 LINE",
"142 562 LINE"
);
}
);
width = 590;
},
{
anchors = (
{
name = bindu;
position = "{370, 670}";
},
{
name = bottom;
position = "{410, 0}";
},
{
name = candrabindu;
position = "{400, 670}";
},
{
name = candrabinduCXT;
position = "{820, 670}";
},
{
name = top;
position = "{515, 475}";
}
);
background = {
guideLines = (
{
position = "{15, 297}";
}
);
paths = (
{
closed = 1;
nodes = (
"8 299 LINE",
"36 213 OFFCURVE",
"153 113 OFFCURVE",
"239 88 CURVE",
"304 125 LINE",
"304 315 LINE",
"237 357 LINE",
"44 357 LINE"
);
},
{
closed = 1;
nodes = (
"737 538 LINE",
"762 588 LINE",
"697 670 LINE",
"-73 670 LINE",
"-98 621 LINE",
"-33 538 LINE"
);
},
{
closed = 1;
nodes = (
"434 23 LINE",
"566 -46 LINE",
"620 -19 LINE",
"620 486 LINE",
"500 568 LINE",
"434 599 LINE"
);
},
{
closed = 1;
nodes = (
"128 237 LINE",
"304 195 LINE",
"304 486 LINE",
"184 568 LINE",
"118 599 LINE"
);
}
);
};
layerId = "818F884A-9448-4DD2-A77B-976162CCCBC7";
name = Bold;
paths = (
{
closed = 1;
nodes = (
"8 299 LINE",
"36 213 OFFCURVE",
"153 113 OFFCURVE",
"239 88 CURVE",
"304 125 LINE",
"304 315 LINE",
"237 357 LINE",
"44 357 LINE"
);
},
{
closed = 1;
nodes = (
"434 23 LINE",
"566 -46 LINE",
"620 -19 LINE",
"620 486 LINE",
"500 568 LINE",
"434 599 LINE"
);
},
{
closed = 1;
nodes = (
"730 538 LINE",
"755 587 LINE",
"690 670 LINE",
"-40 670 LINE",
"-65 621 LINE",
"0 538 LINE"
);
},
{
closed = 1;
nodes = (
"126 237 LINE",
"304 195 LINE",
"304 486 LINE",
"184 568 LINE",
"118 599 LINE"
);
}
);
width = 690;
}
);
leftKerningGroup = Ma;
unicode = 0917;
},
{
glyphname = dvGha;
lastChange = "2014-11-22 14:55:46 +0000";
layers = (
{
anchors = (
{
name = bindu;
position = "{345, 630}";
},
{
name = bottom;
position = "{465, 5}";
},
{
name = candrabindu;
position = "{370, 630}";
},
{
name = candrabinduCXT;
position = "{670, 630}";
},
{
name = top;
position = "{515, 468}";
}
);
background = {
paths = (
{
closed = 1;
nodes = (
"369 331 LINE",
"320 389 LINE",
"178 408 OFFCURVE",
"107 328 OFFCURVE",
"107 255 CURVE SMOOTH",
"107 153 OFFCURVE",
"245 79 OFFCURVE",
"332 79 CURVE SMOOTH",
"396 79 OFFCURVE",
"474 119 OFFCURVE",
"497 174 CURVE",
"479 276 LINE",
"447 194 OFFCURVE",
"354 149 OFFCURVE",
"284 149 CURVE SMOOTH",
"227 149 OFFCURVE",
"186 179 OFFCURVE",
"186 225 CURVE SMOOTH",
"186 286 OFFCURVE",
"258 329 OFFCURVE",
"359 311 CURVE"
);
},
{
closed = 1;
nodes = (
"99 579 LINE",
"68 547 OFFCURVE",
"49 520 OFFCURVE",
"49 486 CURVE SMOOTH",
"49 423 OFFCURVE",
"118 351 OFFCURVE",
"223 325 CURVE",
"236 364 LINE",
"177 377 OFFCURVE",
"134 408 OFFCURVE",
"134 456 CURVE SMOOTH",
"134 492 OFFCURVE",
"159 525 OFFCURVE",
"192 548 CURVE"
);
}
);
};
layerId = UUID0;
name = Regular;
paths = (
{
closed = 1;
nodes = (
"113 585 LINE",
"72 558 OFFCURVE",
"52 524 OFFCURVE",
"52 488 CURVE SMOOTH",
"52 424 OFFCURVE",
"113 357 OFFCURVE",
"223 322 CURVE",
"236 364 LINE",
"169 380 OFFCURVE",
"133 421 OFFCURVE",
"133 463 CURVE SMOOTH",
"133 494 OFFCURVE",
"152 526 OFFCURVE",
"192 549 CURVE"
);
},
{
closed = 1;
nodes = (
"379 341 LINE",
"330 399 LINE",
"185 420 OFFCURVE",
"119 335 OFFCURVE",
"119 267 CURVE SMOOTH",
"119 213 OFFCURVE",
"159 162 OFFCURVE",
"199 131 CURVE SMOOTH",
"235 103 OFFCURVE",
"286 79 OFFCURVE",
"345 79 CURVE SMOOTH",
"405 79 OFFCURVE",
"471 104 OFFCURVE",
"513 174 CURVE",
"485 276 LINE",
"442 156 OFFCURVE",
"285 128 OFFCURVE",
"229 158 CURVE",
"153 229 OFFCURVE",
"211 350 OFFCURVE",
"369 321 CURVE"
);
},
{
closed = 1;
nodes = (
"477 5 LINE",
"536 -33 LINE",
"560 -26 LINE",
"560 500 LINE",
"502 551 LINE",
"477 562 LINE"
);
},
{
closed = 1;
nodes = (
"671 538 LINE",
"680 558 LINE",
"650 608 LINE",
"-21 608 LINE",
"-30 588 LINE",
"0 538 LINE"
);
}
);
width = 650;
},
{
anchors = (
{
name = bindu;
position = "{388, 670}";
},
{
name = bottom;
position = "{448, 0}";
},
{
name = candrabindu;
position = "{418, 670}";
},
{
name = candrabinduCXT;
position = "{858, 670}";
},
{
name = top;
position = "{553, 475}";
}
);
background = {
paths = (
{
closed = 1;
nodes = (
"223 455 LINE",
"147 426 OFFCURVE",
"86 353 OFFCURVE",
"86 280 CURVE SMOOTH",
"86 214 OFFCURVE",
"137 154 OFFCURVE",
"206 114 CURVE SMOOTH",
"260 82 OFFCURVE",
"327 63 OFFCURVE",
"388 63 CURVE SMOOTH",
"456 63 OFFCURVE",
"508 86 OFFCURVE",
"545 126 CURVE",
"474 309 LINE",
"440 245 OFFCURVE",
"351 194 OFFCURVE",
"273 205 CURVE",
"249 256 OFFCURVE",
"300 349 OFFCURVE",
"382 362 CURVE"
);
}
);
};
layerId = "818F884A-9448-4DD2-A77B-976162CCCBC7";
name = Bold;
paths = (
{
closed = 1;
nodes = (
"23 595 LINE",
"9 571 OFFCURVE",
"3 548 OFFCURVE",
"3 525 CURVE SMOOTH",
"3 446 OFFCURVE",
"82 375 OFFCURVE",
"223 322 CURVE",
"262 378 LINE",
"213 400 OFFCURVE",
"190 438 OFFCURVE",
"190 473 CURVE SMOOTH",
"190 508 OFFCURVE",
"213 540 OFFCURVE",
"257 551 CURVE"
);
},
{
closed = 1;
nodes = (
"437 340 LINE",
"365 459 LINE",
"207 494 OFFCURVE",
"96 398 OFFCURVE",
"96 293 CURVE SMOOTH",
"96 216 OFFCURVE",
"154 151 OFFCURVE",
"224 110 CURVE SMOOTH",
"277 79 OFFCURVE",
"334 63 OFFCURVE",
"389 63 CURVE SMOOTH",
"455 63 OFFCURVE",
"508 86 OFFCURVE",
"545 126 CURVE",
"474 309 LINE",
"440 245 OFFCURVE",
"339 190 OFFCURVE",
"273 205 CURVE",
"253 247 OFFCURVE",
"306 303 OFFCURVE",
"412 291 CURVE"
);
},
{
closed = 1;
nodes = (
"472 23 LINE",
"604 -46 LINE",
"658 -19 LINE",
"658 486 LINE",
"538 568 LINE",
"472 599 LINE"
);
},
{
closed = 1;
nodes = (
"768 538 LINE",
"793 587 LINE",
"728 670 LINE",
"-60 670 LINE",
"-85 621 LINE",
"-20 538 LINE"
);
}
);
width = 728;
},
{
associatedMasterId = UUID0;
layerId = "9DFE01F1-70D4-44FB-BEBE-795F754C85C8";
name = "Regular Jul 6 14, 15:20";
paths = (
{
closed = 1;
nodes = (
"648 518 LINE",
"652 540 LINE",
"610 588 LINE",
"-108 588 LINE",
"-113 566 LINE",
"-70 518 LINE"
);
},
{
closed = 1;
nodes = (
"421 15 LINE",
"432 -3 OFFCURVE",
"449 -17 OFFCURVE",
"470 -23 CURVE",
"504 -16 LINE",
"504 480 LINE",
"421 553 LINE"
);
},
{
closed = 1;
nodes = (
"225 337 LINE",
"201 336 OFFCURVE",
"177 338 OFFCURVE",
"152 344 CURVE SMOOTH",
"67 365 OFFCURVE",
"100 529 OFFCURVE",
"243 519 CURVE",
"101 560 LINE",
"9 521 OFFCURVE",
"-6 423 OFFCURVE",
"69 354 CURVE",
"87 333 OFFCURVE",
"136 295 OFFCURVE",
"153 285 CURVE SMOOTH",
"170 275 LINE"
);
},
{
closed = 1;
nodes = (
"328 310 LINE",
"275 361 LINE",
"59 391 OFFCURVE",
"37 203 OFFCURVE",
"125 132 CURVE SMOOTH",
"149 112 OFFCURVE",
"190 86 OFFCURVE",
"208 77 CURVE SMOOTH",
"278 43 OFFCURVE",
"398 57 OFFCURVE",
"429 125 CURVE",
"429 125 OFFCURVE",
"421 261 OFFCURVE",
"421 261 CURVE",
"407 175 OFFCURVE",
"299 108 OFFCURVE",
"218 121 CURVE SMOOTH",
"124 136 OFFCURVE",
"115 323 OFFCURVE",
"314 288 CURVE"
);
}
);
width = 606;
},
{
associatedMasterId = UUID0;
background = {
paths = (
{
closed = 1;
nodes = (
"369 331 LINE",
"320 389 LINE",
"178 408 OFFCURVE",
"107 328 OFFCURVE",
"107 255 CURVE SMOOTH",
"107 153 OFFCURVE",
"245 79 OFFCURVE",
"332 79 CURVE SMOOTH",
"396 79 OFFCURVE",
"474 119 OFFCURVE",
"497 174 CURVE",
"479 276 LINE",
"447 194 OFFCURVE",
"354 149 OFFCURVE",
"284 149 CURVE SMOOTH",
"227 149 OFFCURVE",
"186 179 OFFCURVE",
"186 225 CURVE SMOOTH",
"186 286 OFFCURVE",
"258 329 OFFCURVE",
"359 311 CURVE"
);
}
);
};
layerId = "701FE280-6FA0-453D-A1D0-B8EB15F2EF56";
name = "Regular Jul 8 14, 19:57";
paths = (
{
closed = 1;
nodes = (
"89 579 LINE",
"58 547 OFFCURVE",
"39 520 OFFCURVE",
"39 486 CURVE SMOOTH",
"39 423 OFFCURVE",
"108 351 OFFCURVE",
"213 325 CURVE",
"226 364 LINE",
"167 377 OFFCURVE",
"124 408 OFFCURVE",
"124 456 CURVE SMOOTH",
"124 492 OFFCURVE",
"149 525 OFFCURVE",
"182 548 CURVE"
);
},
{
closed = 1;
nodes = (
"369 331 LINE",
"320 389 LINE",
"175 410 OFFCURVE",
"107 326 OFFCURVE",
"107 264 CURVE SMOOTH",
"107 215 OFFCURVE",
"150 165 OFFCURVE",
"191 133 CURVE SMOOTH",
"227 105 OFFCURVE",
"277 79 OFFCURVE",
"332 79 CURVE SMOOTH",
"392 79 OFFCURVE",
"458 110 OFFCURVE",
"503 174 CURVE",
"479 276 LINE",
"447 194 OFFCURVE",
"354 149 OFFCURVE",
"284 149 CURVE SMOOTH",
"227 149 OFFCURVE",
"186 179 OFFCURVE",
"186 225 CURVE SMOOTH",
"186 286 OFFCURVE",
"258 329 OFFCURVE",
"359 311 CURVE"
);
},
{
closed = 1;
nodes = (
"472 5 LINE",
"531 -33 LINE",
"555 -26 LINE",
"555 500 LINE",
"497 551 LINE",
"472 562 LINE"
);
},
{
closed = 1;
nodes = (
"666 538 LINE",
"675 558 LINE",
"645 608 LINE",
"-21 608 LINE",
"-30 588 LINE",
"0 538 LINE"
);
}
);
width = 645;
}
);
leftKerningGroup = Gha;
unicode = 0918;
},
{
glyphname = dvNga;
lastChange = "2014-11-22 14:55:46 +0000";
layers = (
{
anchors = (
{
name = bindu;
position = "{432, 630}";
},
{
name = bottom;
position = "{344, -26}";
},
{
name = candrabindu;
position = "{417, 630}";
},
{
name = candrabinduCXT;
position = "{637, 630}";
},
{
name = top;
position = "{451, 468}";
}
);
background = {
paths = (
{
closed = 1;
nodes = (
"46 207 LINE",
"166 29 OFFCURVE",
"266 -26 OFFCURVE",
"364 -26 CURVE SMOOTH",
"474 -26 OFFCURVE",
"540 43 OFFCURVE",
"540 128 CURVE SMOOTH",
"540 211 OFFCURVE",
"476 280 OFFCURVE",
"387 300 CURVE",
"216 246 LINE",
"193 263 OFFCURVE",
"177 283 OFFCURVE",
"177 308 CURVE SMOOTH",
"177 350 OFFCURVE",
"222 373 OFFCURVE",
"280 373 CURVE SMOOTH",
"478 373 LINE",
"407 454 LINE",
"254 454 LINE SMOOTH",
"157 454 OFFCURVE",
"106 402 OFFCURVE",
"106 346 CURVE SMOOTH",
"106 271 OFFCURVE",
"196 177 OFFCURVE",
"288 165 CURVE",
"288 165 OFFCURVE",
"449 218 OFFCURVE",
"449 218 CURVE",
"498 157 OFFCURVE",
"446 53 OFFCURVE",
"328 53 CURVE SMOOTH",
"242 53 OFFCURVE",
"166 109 OFFCURVE",
"82 236 CURVE"
);
}
);
};
layerId = UUID0;
name = Regular;
paths = (
{
closed = 1;
nodes = (
"638 232 OFFCURVE",
"662 262 OFFCURVE",
"671 286 CURVE",
"657 304 OFFCURVE",
"628 331 OFFCURVE",
"603 341 CURVE",
"583 328 OFFCURVE",
"560 299 OFFCURVE",
"547 272 CURVE",
"562 251 OFFCURVE",
"594 226 OFFCURVE",
"617 217 CURVE"
);
},
{
closed = 1;
nodes = (
"46 207 LINE",
"166 29 OFFCURVE",
"266 -26 OFFCURVE",
"364 -26 CURVE SMOOTH",
"474 -26 OFFCURVE",
"540 45 OFFCURVE",
"540 125 CURVE SMOOTH",
"540 203 OFFCURVE",
"477 279 OFFCURVE",
"387 300 CURVE",
"216 246 LINE",
"193 263 OFFCURVE",
"177 283 OFFCURVE",
"177 308 CURVE SMOOTH",
"177 350 OFFCURVE",
"222 373 OFFCURVE",
"280 373 CURVE SMOOTH",
"478 373 LINE",
"407 454 LINE",
"254 454 LINE SMOOTH",
"157 454 OFFCURVE",
"106 402 OFFCURVE",
"106 346 CURVE SMOOTH",
"106 271 OFFCURVE",
"196 179 OFFCURVE",
"288 165 CURVE",
"449 218 LINE",
"498 157 OFFCURVE",
"446 53 OFFCURVE",
"328 53 CURVE SMOOTH",
"242 53 OFFCURVE",
"166 109 OFFCURVE",
"82 236 CURVE"
);
},
{
closed = 1;
nodes = (
"409 384 LINE",
"487 373 LINE",
"487 500 LINE",
"429 551 LINE",
"409 562 LINE"
);
},
{
closed = 1;
nodes = (
"688 538 LINE",
"697 558 LINE",
"667 608 LINE",
"-21 608 LINE",
"-30 588 LINE",
"0 538 LINE"
);
}
);
width = 667;
},
{
anchors = (
{
name = bindu;
position = "{430, 670}";
},
{
name = bottom;
position = "{290, -86}";
},
{
name = candrabindu;
position = "{420, 670}";
},
{
name = candrabinduCXT;
position = "{790, 670}";
},
{
name = top;
position = "{435, 475}";
}
);
background = {
paths = (
{
closed = 1;
nodes = (
"-14 169 LINE",
"98 2 OFFCURVE",
"226 -86 OFFCURVE",
"362 -87 CURVE SMOOTH",
"505 -88 OFFCURVE",
"599 4 OFFCURVE",
"599 107 CURVE SMOOTH",
"599 192 OFFCURVE",
"535 283 OFFCURVE",
"415 326 CURVE",
"221 277 LINE",
"211 287 OFFCURVE",
"206 297 OFFCURVE",
"206 307 CURVE SMOOTH",
"206 328 OFFCURVE",
"230 343 OFFCURVE",
"268 343 CURVE",
"533 343 LINE",
"434 492 LINE",
"232 492 LINE SMOOTH",
"100 492 OFFCURVE",
"39 426 OFFCURVE",
"39 356 CURVE SMOOTH",
"39 261 OFFCURVE",
"151 163 OFFCURVE",
"312 107 CURVE",
"461 167 LINE",
"451 114 OFFCURVE",
"382 69 OFFCURVE",
"304 69 CURVE SMOOTH",
"219 69 OFFCURVE",
"139 122 OFFCURVE",
"64 235 CURVE"
);
},
{
closed = 1;
nodes = (
"367 361 LINE",
"533 343 LINE",
"533 486 LINE",
"413 568 LINE",
"367 599 LINE"
);
},
{
closed = 1;
nodes = (
"660 538 LINE",
"685 587 LINE",
"620 670 LINE",
"-12 670 LINE",
"-37 621 LINE",
"28 538 LINE"
);
}
);
};
guideLines = (
{
position = "{332, 42}";
}
);
layerId = "818F884A-9448-4DD2-A77B-976162CCCBC7";
name = Bold;
paths = (
{
closed = 1;
nodes = (
"705 206 OFFCURVE",
"744 255 OFFCURVE",
"760 297 CURVE",
"737 327 OFFCURVE",
"688 372 OFFCURVE",
"646 388 CURVE",
"611 367 OFFCURVE",
"574 318 OFFCURVE",
"551 273 CURVE",
"576 238 OFFCURVE",
"632 196 OFFCURVE",
"669 182 CURVE"
);
},
{
closed = 1;
nodes = (
"-4 169 LINE",
"108 6 OFFCURVE",
"231 -86 OFFCURVE",
"364 -86 CURVE SMOOTH",
"497 -86 OFFCURVE",
"581 5 OFFCURVE",
"581 110 CURVE SMOOTH",
"581 199 OFFCURVE",
"520 285 OFFCURVE",
"405 326 CURVE",
"228 276 LINE",
"218 286 OFFCURVE",
"213 297 OFFCURVE",
"213 306 CURVE SMOOTH",
"213 327 OFFCURVE",
"237 343 OFFCURVE",
"278 343 CURVE SMOOTH",
"523 343 LINE",
"424 492 LINE",
"247 492 LINE SMOOTH",
"114 492 OFFCURVE",
"54 426 OFFCURVE",
"54 355 CURVE SMOOTH",
"54 263 OFFCURVE",
"156 174 OFFCURVE",
"320 117 CURVE",
"451 167 LINE",
"441 115 OFFCURVE",
"383 74 OFFCURVE",
"309 74 CURVE SMOOTH",
"233 74 OFFCURVE",
"152 117 OFFCURVE",
"74 235 CURVE"
);
},
{
closed = 1;
nodes = (
"357 361 LINE",
"523 343 LINE",
"523 486 LINE",
"403 568 LINE",
"357 599 LINE"
);
},
{
closed = 1;
nodes = (
"810 538 LINE",
"835 587 LINE",
"770 670 LINE",
"-40 670 LINE",
"-65 621 LINE",
"0 538 LINE"
);
}
);
width = 770;
},
{
associatedMasterId = UUID0;
layerId = "92EA2D86-BFB3-497D-8FDA-D3257C647C41";
name = "Regular Jul 10 14, 13:29";
paths = (
{
closed = 1;
nodes = (
"630 282 OFFCURVE",
"627 320 OFFCURVE",
"569 342 CURVE",
"569 342 OFFCURVE",
"524 322 OFFCURVE",
"518 271 CURVE",
"518 271 OFFCURVE",
"530 232 OFFCURVE",
"581 222 CURVE",
"622 241 OFFCURVE",
"630 282 OFFCURVE",
"630 282 CURVE"
);
},
{
closed = 1;
nodes = (
"448 373 LINE",
"448 497 LINE",
"365 570 LINE",
"365 401 LINE"
);
},
{
closed = 1;
nodes = (
"-4 224 LINE",
"96 81 OFFCURVE",
"192 14 OFFCURVE",
"287 2 CURVE SMOOTH",
"536 -29 OFFCURVE",
"590 251 OFFCURVE",
"343 300 CURVE",
"306 292 OFFCURVE",
"164 256 OFFCURVE",
"164 256 CURVE",
"140 360 OFFCURVE",
"185 373 OFFCURVE",
"260 373 CURVE SMOOTH",
"448 373 LINE",
"370 454 LINE",
"241 454 LINE SMOOTH",
"160 454 OFFCURVE",
"109 434 OFFCURVE",
"94 378 CURVE SMOOTH",
"86 349 OFFCURVE",
"90 319 OFFCURVE",
"101 293 CURVE SMOOTH",
"131 227 OFFCURVE",
"210 168 OFFCURVE",
"248 177 CURVE",
"248 177 OFFCURVE",
"408 218 OFFCURVE",
"408 218 CURVE",
"498 135 OFFCURVE",
"292 -78 OFFCURVE",
"33 251 CURVE"
);
},
{
closed = 1;
nodes = (
"646 538 LINE",
"655 558 LINE",
"625 608 LINE",
"-21 608 LINE",
"-30 588 LINE",
"0 538 LINE"
);
}
);
width = 665;
},
{
anchors = (
{
name = ogonek;
position = "{429, -362}";
}
);
associatedMasterId = UUID0;
background = {
paths = (
{
closed = 1;
nodes = (
"633 282 OFFCURVE",
"630 320 OFFCURVE",
"572 342 CURVE",
"572 342 OFFCURVE",
"527 322 OFFCURVE",
"521 271 CURVE",
"521 271 OFFCURVE",
"533 232 OFFCURVE",
"584 222 CURVE",
"625 241 OFFCURVE",
"633 282 OFFCURVE",
"633 282 CURVE"
);
},
{
closed = 1;
nodes = (
"451 373 LINE",
"451 497 LINE",
"368 570 LINE",
"368 401 LINE"
);
},
{
closed = 1;
nodes = (
"-1 224 LINE",
"99 81 OFFCURVE",
"195 14 OFFCURVE",
"290 2 CURVE SMOOTH",
"539 -29 OFFCURVE",
"593 251 OFFCURVE",
"346 300 CURVE",
"309 292 OFFCURVE",
"167 256 OFFCURVE",
"167 256 CURVE",
"143 360 OFFCURVE",
"188 373 OFFCURVE",
"263 373 CURVE SMOOTH",
"451 373 LINE",
"373 454 LINE",
"244 454 LINE SMOOTH",
"163 454 OFFCURVE",
"112 434 OFFCURVE",
"97 378 CURVE SMOOTH",
"89 349 OFFCURVE",
"93 319 OFFCURVE",
"104 293 CURVE SMOOTH",
"134 227 OFFCURVE",
"213 168 OFFCURVE",
"251 177 CURVE",
"251 177 OFFCURVE",
"411 218 OFFCURVE",
"411 218 CURVE",
"501 135 OFFCURVE",
"295 -78 OFFCURVE",
"36 251 CURVE"
);
},
{
closed = 1;
nodes = (
"649 538 LINE",
"658 558 LINE",
"628 608 LINE",
"-18 608 LINE",
"-27 588 LINE",
"3 538 LINE"
);
}
);
};
layerId = "CF0AC3BB-9833-4F75-A785-7BE5FE8D6A0E";
name = "Regular Jul 10 14, 23:16";
paths = (
{
closed = 1;
nodes = (
"23 218 LINE",
"146 35 OFFCURVE",
"249 -11 OFFCURVE",
"336 -11 CURVE SMOOTH",
"444 -11 OFFCURVE",
"508 60 OFFCURVE",
"508 135 CURVE SMOOTH",
"508 210 OFFCURVE",
"444 281 OFFCURVE",
"356 300 CURVE",
"194 256 LINE",
"176 278 OFFCURVE",
"168 296 OFFCURVE",
"168 312 CURVE SMOOTH",
"168 354 OFFCURVE",
"221 373 OFFCURVE",
"274 373 CURVE SMOOTH",
"454 373 LINE",
"383 454 LINE",
"248 454 LINE SMOOTH",
"152 454 OFFCURVE",
"97 410 OFFCURVE",
"97 352 CURVE SMOOTH",
"97 284 OFFCURVE",
"172 188 OFFCURVE",
"264 175 CURVE",
"264 175 OFFCURVE",
"417 218 OFFCURVE",
"417 218 CURVE",
"464 158 OFFCURVE",
"407 68 OFFCURVE",
"306 68 CURVE SMOOTH",
"236 68 OFFCURVE",
"147 112 OFFCURVE",
"59 246 CURVE"
);
},
{
closed = 1;
nodes = (
"688 538 LINE",
"697 558 LINE",
"668 608 LINE",
"-21 608 LINE",
"-30 588 LINE",
"-1 538 LINE"
);
},
{
closed = 1;
nodes = (
"608 232 OFFCURVE",
"632 262 OFFCURVE",
"641 286 CURVE",
"627 304 OFFCURVE",
"598 331 OFFCURVE",
"573 341 CURVE",
"553 328 OFFCURVE",
"530 299 OFFCURVE",
"517 272 CURVE",
"532 251 OFFCURVE",
"564 226 OFFCURVE",
"587 217 CURVE"
);
},
{
closed = 1;
nodes = (
"376 384 LINE",
"454 373 LINE",
"454 500 LINE",
"396 551 LINE",
"376 562 LINE"
);
}
);
width = 668;
}
);
leftKerningGroup = Dda;
rightKerningGroup = Nga;
unicode = 0919;
},
{
glyphname = dvCa;
lastChange = "2014-11-22 14:55:46 +0000";
layers = (
{
anchors = (
{
name = bindu;
position = "{519, 630}";
},
{
name = bottom;
position = "{469, 5}";
},
{
name = candrabindu;
position = "{504, 630}";
},
{
name = candrabinduCXT;
position = "{674, 630}";
},
{
name = top;
position = "{519, 468}";
}
);
background = {
paths = (
{
closed = 1;
nodes = (
"190 400 LINE",
"148 375 OFFCURVE",
"125 329 OFFCURVE",
"125 285 CURVE SMOOTH",
"125 230 OFFCURVE",
"161 185 OFFCURVE",
"204 152 CURVE SMOOTH",
"240 124 OFFCURVE",
"292 98 OFFCURVE",
"347 98 CURVE SMOOTH",
"407 98 OFFCURVE",
"463 129 OFFCURVE",
"508 193 CURVE",
"484 295 LINE",
"441 185 OFFCURVE",
"304 147 OFFCURVE",
"234 177 CURVE",
"187 227 OFFCURVE",
"201 320 OFFCURVE",
"268 356 CURVE"
);
},
{
closed = 1;
nodes = (
"462 5 LINE",
"521 -33 LINE",
"545 -26 LINE",
"545 500 LINE",
"487 551 LINE",
"462 562 LINE"
);
},
{
closed = 1;
nodes = (
"656 538 LINE",
"665 558 LINE",
"635 608 LINE",
"-21 608 LINE",
"-30 588 LINE",
"0 538 LINE"
);
},
{
closed = 1;
nodes = (
"156 350 LINE",
"180 346 LINE",
"397 346 LINE",
"406 366 LINE",
"376 416 LINE",
"27 416 LINE",
"18 396 LINE",
"46 350 LINE"
);
}
);
};
layerId = UUID0;
name = Regular;
paths = (
{
closed = 1;
nodes = (
"194 407 LINE",
"153 382 OFFCURVE",
"126 339 OFFCURVE",
"126 288 CURVE SMOOTH",
"126 229 OFFCURVE",
"163 180 OFFCURVE",
"203 149 CURVE SMOOTH",
"238 122 OFFCURVE",
"291 95 OFFCURVE",
"352 95 CURVE SMOOTH",
"432 95 OFFCURVE",
"508 141 OFFCURVE",
"549 238 CURVE",
"490 290 LINE",
"446 177 OFFCURVE",
"314 144 OFFCURVE",
"234 174 CURVE",
"187 224 OFFCURVE",
"206 334 OFFCURVE",
"273 360 CURVE"
);
},
{
closed = 1;
nodes = (
"481 5 LINE",
"540 -33 LINE",
"564 -26 LINE",
"564 500 LINE",
"506 551 LINE",
"481 562 LINE"
);
},
{
closed = 1;
nodes = (
"675 538 LINE",
"684 558 LINE",
"654 608 LINE",
"-21 608 LINE",
"-30 588 LINE",
"0 538 LINE"
);
},
{
closed = 1;
nodes = (
"156 357 LINE",
"180 353 LINE",
"397 353 LINE",
"406 373 LINE",
"376 423 LINE",
"17 423 LINE",
"8 403 LINE",
"36 357 LINE"
);
}
);
width = 654;
},
{
anchors = (
{
name = bindu;
position = "{568, 670}";
},
{
name = bottom;
position = "{458, 0}";
},
{
name = candrabindu;
position = "{548, 670}";
},
{
name = candrabinduCXT;
position = "{868, 670}";
},
{
name = top;
position = "{563, 475}";
}
);
background = {
paths = (
{
closed = 1;
nodes = (
"243 455 LINE",
"163 424 OFFCURVE",
"106 361 OFFCURVE",
"106 289 CURVE SMOOTH",
"106 220 OFFCURVE",
"158 155 OFFCURVE",
"227 114 CURVE SMOOTH",
"280 82 OFFCURVE",
"345 63 OFFCURVE",
"408 63 CURVE SMOOTH",
"476 63 OFFCURVE",
"528 86 OFFCURVE",
"565 126 CURVE",
"494 309 LINE",
"460 245 OFFCURVE",
"371 194 OFFCURVE",
"293 205 CURVE",
"269 273 OFFCURVE",
"320 349 OFFCURVE",
"402 362 CURVE"
);
},
{
closed = 1;
nodes = (
"482 23 LINE",
"614 -46 LINE",
"668 -19 LINE",
"668 486 LINE",
"548 568 LINE",
"482 599 LINE"
);
},
{
closed = 1;
nodes = (
"788 538 LINE",
"813 587 LINE",
"748 670 LINE",
"-40 670 LINE",
"-65 621 LINE",
"0 538 LINE"
);
},
{
closed = 1;
nodes = (
"184 345 LINE",
"218 328 LINE",
"426 328 LINE",
"451 377 LINE",
"379 480 LINE",
"3 480 LINE",
"-22 431 LINE",
"41 345 LINE"
);
}
);
};
layerId = "818F884A-9448-4DD2-A77B-976162CCCBC7";
name = Bold;
paths = (
{
closed = 1;
nodes = (
"243 445 LINE",
"163 414 OFFCURVE",
"106 361 OFFCURVE",
"106 289 CURVE SMOOTH",
"106 220 OFFCURVE",
"158 155 OFFCURVE",
"227 114 CURVE SMOOTH",
"280 82 OFFCURVE",
"345 63 OFFCURVE",
"408 63 CURVE SMOOTH",
"476 63 OFFCURVE",
"528 86 OFFCURVE",
"565 126 CURVE",
"494 324 LINE",
"466 260 OFFCURVE",
"371 189 OFFCURVE",
"283 205 CURVE",
"269 273 OFFCURVE",
"320 339 OFFCURVE",
"402 352 CURVE"
);
},
{
closed = 1;
nodes = (
"482 23 LINE",
"614 -46 LINE",
"668 -19 LINE",
"668 486 LINE",
"548 568 LINE",
"482 599 LINE"
);
},
{
closed = 1;
nodes = (
"778 538 LINE",
"803 587 LINE",
"738 670 LINE",
"-40 670 LINE",
"-65 621 LINE",
"0 538 LINE"
);
},
{
closed = 1;
nodes = (
"184 345 LINE",
"218 328 LINE",
"426 328 LINE",
"451 377 LINE",
"379 480 LINE",
"3 480 LINE",
"-22 431 LINE",
"41 345 LINE"
);
}
);
width = 738;
},
{
associatedMasterId = UUID0;
layerId = "AA3AD8B2-7F9C-4A90-A88C-A993F9959692";
name = "Regular Jul 6 14, 16:26";
paths = (
{
closed = 1;
nodes = (
"652 518 LINE",
"661 540 LINE",
"617 588 LINE",
"-68 588 LINE",
"-77 566 LINE",
"-33 518 LINE"
);
},
{
closed = 1;
nodes = (
"304 328 LINE",
"364 328 LINE",
"373 356 LINE",
"328 396 LINE",
"304 396 LINE"
);
},
{
closed = 1;
nodes = (
"314 396 LINE",
"33 396 LINE",
"63 328 LINE",
"314 328 LINE"
);
},
{
closed = 1;
nodes = (
"441 15 LINE",
"453 -3 OFFCURVE",
"470 -17 OFFCURVE",
"491 -23 CURVE",
"524 -16 LINE",
"524 480 LINE",
"441 553 LINE"
);
},
{
closed = 1;
nodes = (
"214 384 LINE",
"117 336 OFFCURVE",
"79 219 OFFCURVE",
"160 156 CURVE",
"180 137 OFFCURVE",
"232 104 OFFCURVE",
"250 95 CURVE SMOOTH",
"319 61 OFFCURVE",
"418 82 OFFCURVE",
"451 143 CURVE",
"451 143 OFFCURVE",
"443 279 OFFCURVE",
"443 279 CURVE",
"430 201 OFFCURVE",
"321 128 OFFCURVE",
"239 144 CURVE SMOOTH",
"153 161 OFFCURVE",
"207 348 OFFCURVE",
"350 351 CURVE"
);
},
{
closed = 1;
nodes = (
"77 396 LINE",
"17 396 LINE",
"8 368 LINE",
"53 328 LINE",
"77 328 LINE"
);
}
);
width = 628;
},
{
associatedMasterId = UUID0;
background = {
paths = (
{
closed = 1;
nodes = (
"229 399 LINE",
"151 381 OFFCURVE",
"115 324 OFFCURVE",
"115 273 CURVE SMOOTH",
"115 219 OFFCURVE",
"156 173 OFFCURVE",
"196 142 CURVE SMOOTH",
"232 114 OFFCURVE",
"282 88 OFFCURVE",
"337 88 CURVE SMOOTH",
"397 88 OFFCURVE",
"453 119 OFFCURVE",
"498 183 CURVE",
"474 285 LINE",
"431 175 OFFCURVE",
"294 137 OFFCURVE",
"224 167 CURVE",
"172 223 OFFCURVE",
"192 322 OFFCURVE",
"280 346 CURVE"
);
},
{
closed = 1;
nodes = (
"452 5 LINE",
"511 -33 LINE",
"535 -26 LINE",
"535 500 LINE",
"477 551 LINE",
"452 562 LINE"
);
},
{
closed = 1;
nodes = (
"646 538 LINE",
"655 558 LINE",
"625 608 LINE",
"-21 608 LINE",
"-30 588 LINE",
"0 538 LINE"
);
},
{
closed = 1;
nodes = (
"365 336 LINE",
"374 356 LINE",
"344 406 LINE",
"17 406 LINE",
"8 386 LINE",
"38 336 LINE"
);
}
);
};
layerId = "4DAF011D-671F-41F0-B679-B5BA63F37060";
name = "Regular Jul 11 14, 12:40";
paths = (
{
closed = 1;
nodes = (
"452 5 LINE",
"511 -33 LINE",
"535 -26 LINE",
"535 500 LINE",
"477 551 LINE",
"452 562 LINE"
);
},
{
closed = 1;
nodes = (
"646 538 LINE",
"655 558 LINE",
"625 608 LINE",
"-21 608 LINE",
"-30 588 LINE",
"0 538 LINE"
);
},
{
closed = 1;
nodes = (
"207 386 LINE",
"137 363 OFFCURVE",
"113 314 OFFCURVE",
"113 273 CURVE SMOOTH",
"113 180 OFFCURVE",
"239 88 OFFCURVE",
"339 88 CURVE SMOOTH",
"386 88 OFFCURVE",
"449 108 OFFCURVE",
"486 166 CURVE",
"474 285 LINE",
"448 208 OFFCURVE",
"369 158 OFFCURVE",
"294 158 CURVE SMOOTH",
"228 158 OFFCURVE",
"192 196 OFFCURVE",
"192 238 CURVE SMOOTH",
"192 278 OFFCURVE",
"224 327 OFFCURVE",
"285 346 CURVE"
);
},
{
closed = 1;
nodes = (
"365 336 LINE",
"374 356 LINE",
"344 406 LINE",
"17 406 LINE",
"8 386 LINE",
"38 336 LINE"
);
}
);
width = 625;
}
);
unicode = 091A;
},
{
glyphname = dvCha;
lastChange = "2014-11-27 18:33:48 +0000";
layers = (
{
anchors = (
{
name = bindu;
position = "{380, 630}";
},
{
name = bottom;
position = "{375, -30}";
},
{
name = candrabindu;
position = "{405, 630}";
},
{
name = candrabinduCXT;
position = "{675, 630}";
},
{
name = top;
position = "{533, 468}";
}
);
background = {
paths = (
{
closed = 1;
nodes = (
"378 217 LINE",
"332 275 LINE",
"217 302 OFFCURVE",
"127 238 OFFCURVE",
"127 157 CURVE SMOOTH",
"127 65 OFFCURVE",
"242 -40 OFFCURVE",
"382 -40 CURVE SMOOTH",
"551 -40 OFFCURVE",
"680 113 OFFCURVE",
"680 273 CURVE SMOOTH",
"680 404 OFFCURVE",
"593 487 OFFCURVE",
"499 487 CURVE SMOOTH",
"423 487 OFFCURVE",
"378 432 OFFCURVE",
"378 370 CURVE SMOOTH",
"378 300 OFFCURVE",
"434 237 OFFCURVE",
"579 148 CURVE",
"600 189 LINE",
"506 239 OFFCURVE",
"458 288 OFFCURVE",
"458 341 CURVE SMOOTH",
"458 403 OFFCURVE",
"526 449 OFFCURVE",
"585 404 CURVE",
"650 219 OFFCURVE",
"532 27 OFFCURVE",
"316 26 CURVE SMOOTH",
"297 26 OFFCURVE",
"288 27 OFFCURVE",
"258 36 CURVE",
"225 59 OFFCURVE",
"210 91 OFFCURVE",
"210 121 CURVE SMOOTH",
"210 174 OFFCURVE",
"259 219 OFFCURVE",
"365 196 CURVE"
);
},
{
closed = 1;
nodes = (
"502 434 LINE",
"580 423 LINE",
"580 500 LINE",
"522 551 LINE",
"502 562 LINE"
);
},
{
closed = 1;
nodes = (
"756 538 LINE",
"765 558 LINE",
"735 608 LINE",
"-11 608 LINE",
"-20 588 LINE",
"10 538 LINE"
);
},
{
closed = 1;
nodes = (
"315 410 LINE",
"273 474 LINE",
"187 474 LINE SMOOTH",
"82 474 OFFCURVE",
"40 421 OFFCURVE",
"40 370 CURVE SMOOTH",
"40 316 OFFCURVE",
"86 256 OFFCURVE",
"146 216 CURVE",
"199 229 LINE",
"143 266 OFFCURVE",
"115 300 OFFCURVE",
"115 332 CURVE SMOOTH",
"115 374 OFFCURVE",
"161 393 OFFCURVE",
"221 393 CURVE SMOOTH",
"303 393 LINE"
);
}
);
};
layerId = UUID0;
name = Regular;
paths = (
{
closed = 1;
nodes = (
"378 217 LINE",
"332 275 LINE",
"217 302 OFFCURVE",
"127 238 OFFCURVE",
"127 157 CURVE SMOOTH",
"127 65 OFFCURVE",
"241 -40 OFFCURVE",
"385 -40 CURVE SMOOTH",
"552 -40 OFFCURVE",
"682 101 OFFCURVE",
"682 262 CURVE SMOOTH",
"682 395 OFFCURVE",
"593 487 OFFCURVE",
"497 487 CURVE SMOOTH",
"424 487 OFFCURVE",
"378 432 OFFCURVE",
"378 370 CURVE SMOOTH",
"378 300 OFFCURVE",
"434 237 OFFCURVE",
"579 148 CURVE",
"600 189 LINE",
"501 242 OFFCURVE",
"458 289 OFFCURVE",
"458 343 CURVE SMOOTH",
"458 412 OFFCURVE",
"527 449 OFFCURVE",
"585 404 CURVE",
"602 382 OFFCURVE",
"610 338 OFFCURVE",
"610 299 CURVE SMOOTH",
"610 147 OFFCURVE",
"485 25 OFFCURVE",
"329 25 CURVE SMOOTH",
"297 25 OFFCURVE",
"277 30 OFFCURVE",
"258 36 CURVE",
"225 59 OFFCURVE",
"210 91 OFFCURVE",
"210 121 CURVE SMOOTH",
"210 174 OFFCURVE",
"259 219 OFFCURVE",
"365 196 CURVE"
);
},
{
closed = 1;
nodes = (
"492 434 LINE",
"570 423 LINE",
"570 500 LINE",
"512 551 LINE",
"492 562 LINE"
);
},
{
closed = 1;
nodes = (
"756 538 LINE",
"765 558 LINE",
"735 608 LINE",
"-21 608 LINE",
"-30 588 LINE",
"0 538 LINE"
);
},
{
closed = 1;
nodes = (
"315 410 LINE",
"273 474 LINE",
"187 474 LINE SMOOTH",
"82 474 OFFCURVE",
"40 418 OFFCURVE",
"40 361 CURVE SMOOTH",
"40 306 OFFCURVE",
"79 261 OFFCURVE",
"146 216 CURVE",
"199 229 LINE",
"137 270 OFFCURVE",
"115 295 OFFCURVE",
"115 328 CURVE SMOOTH",
"115 377 OFFCURVE",
"162 393 OFFCURVE",
"221 393 CURVE SMOOTH",
"303 393 LINE"
);
}
);
width = 735;
},
{
anchors = (
{
name = bindu;
position = "{405, 670}";
},
{
name = bottom;
position = "{365, -92}";
},
{
name = candrabindu;
position = "{425, 670}";
},
{
name = candrabinduCXT;
position = "{885, 670}";
},
{
name = top;
position = "{590, 475}";
}
);
background = {
paths = (
{
closed = 1;
nodes = (
"446 163 LINE",
"372 284 LINE",
"219 321 OFFCURVE",
"117 237 OFFCURVE",
"117 137 CURVE SMOOTH",
"117 21 OFFCURVE",
"256 -92 OFFCURVE",
"424 -92 CURVE SMOOTH",
"632 -92 OFFCURVE",
"779 81 OFFCURVE",
"779 239 CURVE SMOOTH",
"779 373 OFFCURVE",
"674 502 OFFCURVE",
"550 502 CURVE SMOOTH",
"463 502 OFFCURVE",
"387 437 OFFCURVE",
"387 358 CURVE SMOOTH",
"387 263 OFFCURVE",
"494 166 OFFCURVE",
"605 129 CURVE",
"640 193 LINE",
"568 217 OFFCURVE",
"548 277 OFFCURVE",
"548 317 CURVE SMOOTH",
"548 353 OFFCURVE",
"565 390 OFFCURVE",
"614 383 CURVE",
"627 368 OFFCURVE",
"633 332 OFFCURVE",
"633 305 CURVE SMOOTH",
"633 178 OFFCURVE",
"504 45 OFFCURVE",
"349 45 CURVE SMOOTH",
"322 45 OFFCURVE",
"301 49 OFFCURVE",
"288 57 CURVE",
"286 63 OFFCURVE",
"285 69 OFFCURVE",
"285 75 CURVE SMOOTH",
"285 117 OFFCURVE",
"339 145 OFFCURVE",
"408 116 CURVE"
);
},
{
closed = 1;
nodes = (
"513 411 LINE",
"679 370 LINE",
"679 486 LINE",
"559 568 LINE",
"513 599 LINE"
);
},
{
closed = 1;
nodes = (
"845 538 LINE",
"870 587 LINE",
"805 670 LINE",
"-40 670 LINE",
"-65 621 LINE",
"0 538 LINE"
);
},
{
closed = 1;
nodes = (
"350 392 LINE",
"276 500 LINE",
"171 500 LINE SMOOTH",
"59 500 OFFCURVE",
"11 434 OFFCURVE",
"11 369 CURVE SMOOTH",
"11 293 OFFCURVE",
"77 221 OFFCURVE",
"185 175 CURVE",
"240 238 LINE",
"188 266 OFFCURVE",
"172 283 OFFCURVE",
"172 303 CURVE SMOOTH",
"172 332 OFFCURVE",
"208 343 OFFCURVE",
"240 343 CURVE SMOOTH",
"325 343 LINE"
);
}
);
};
layerId = "818F884A-9448-4DD2-A77B-976162CCCBC7";
name = Bold;
paths = (
{
closed = 1;
nodes = (
"446 163 LINE",
"372 284 LINE",
"219 321 OFFCURVE",
"117 237 OFFCURVE",
"117 137 CURVE SMOOTH",
"117 21 OFFCURVE",
"255 -92 OFFCURVE",
"426 -92 CURVE SMOOTH",
"632 -92 OFFCURVE",
"779 71 OFFCURVE",
"779 236 CURVE SMOOTH",
"779 375 OFFCURVE",
"674 502 OFFCURVE",
"550 502 CURVE SMOOTH",
"462 502 OFFCURVE",
"387 437 OFFCURVE",
"387 358 CURVE SMOOTH",
"387 263 OFFCURVE",
"494 166 OFFCURVE",
"605 129 CURVE",
"640 193 LINE",
"568 217 OFFCURVE",
"548 277 OFFCURVE",
"548 317 CURVE SMOOTH",
"548 353 OFFCURVE",
"565 390 OFFCURVE",
"614 383 CURVE",
"627 368 OFFCURVE",
"633 332 OFFCURVE",
"633 304 CURVE SMOOTH",
"633 178 OFFCURVE",
"512 42 OFFCURVE",
"332 42 CURVE SMOOTH",
"317 42 OFFCURVE",
"308 43 OFFCURVE",
"295 46 CURVE",
"289 52 OFFCURVE",
"285 65 OFFCURVE",
"285 76 CURVE SMOOTH",
"285 116 OFFCURVE",
"339 145 OFFCURVE",
"408 116 CURVE"
);
},
{
closed = 1;
nodes = (
"513 411 LINE",
"679 370 LINE",
"679 486 LINE",
"559 568 LINE",
"513 599 LINE"
);
},
{
closed = 1;
nodes = (
"845 538 LINE",
"870 587 LINE",
"805 670 LINE",
"-40 670 LINE",
"-65 621 LINE",
"0 538 LINE"
);
},
{
closed = 1;
nodes = (
"350 392 LINE",
"276 500 LINE",
"171 500 LINE SMOOTH",
"59 500 OFFCURVE",
"11 434 OFFCURVE",
"11 369 CURVE SMOOTH",
"11 293 OFFCURVE",
"77 221 OFFCURVE",
"185 175 CURVE",
"240 238 LINE",
"188 266 OFFCURVE",
"172 283 OFFCURVE",
"172 303 CURVE SMOOTH",
"172 332 OFFCURVE",
"208 343 OFFCURVE",
"240 343 CURVE SMOOTH",
"325 343 LINE"
);
}
);
width = 805;
},
{
associatedMasterId = UUID0;
layerId = "16D30D5F-D3D1-4D23-B7EC-2928DF2D04F4";
name = "Regular Jul 6 14, 17:18";
paths = (
{
closed = 1;
nodes = (
"232 231 LINE",
"208 230 OFFCURVE",
"183 228 OFFCURVE",
"159 238 CURVE SMOOTH",
"85 268 OFFCURVE",
"84 384 OFFCURVE",
"214 386 CURVE SMOOTH",
"299 387 LINE",
"273 463 LINE",
"211 464 LINE",
"4 475 OFFCURVE",
"4 314 OFFCURVE",
"76 248 CURVE",
"88 234 OFFCURVE",
"116 211 OFFCURVE",
"137 195 CURVE SMOOTH",
"160 179 LINE"
);
},
{
closed = 1;
nodes = (
"329 218 LINE",
"282 275 LINE",
"149 294 OFFCURVE",
"84 229 OFFCURVE",
"84 160 CURVE SMOOTH",
"84 53 OFFCURVE",
"214 -10 OFFCURVE",
"293 -16 CURVE SMOOTH",
"465 -29 OFFCURVE",
"624 161 OFFCURVE",
"602 313 CURVE SMOOTH",
"594 370 OFFCURVE",
"556 442 OFFCURVE",
"497 456 CURVE SMOOTH",
"408 477 OFFCURVE",
"321 407 OFFCURVE",
"353 313 CURVE SMOOTH",
"364 280 OFFCURVE",
"428 207 OFFCURVE",
"500 154 CURVE",
"500 154 OFFCURVE",
"521 196 OFFCURVE",
"521 196 CURVE",
"351 308 OFFCURVE",
"441 446 OFFCURVE",
"523 384 CURVE",
"546 297 OFFCURVE",
"514 214 OFFCURVE",
"500 190 CURVE",
"493 181 LINE",
"453 95 OFFCURVE",
"292 9 OFFCURVE",
"207 61 CURVE SMOOTH",
"136 104 OFFCURVE",
"158 235 OFFCURVE",
"315 196 CURVE"
);
},
{
closed = 1;
nodes = (
"516 407 LINE",
"516 477 LINE",
"442 550 LINE",
"443 407 LINE"
);
},
{
closed = 1;
nodes = (
"735 518 LINE",
"744 540 LINE",
"700 588 LINE",
"-71 588 LINE",
"-80 566 LINE",
"-36 518 LINE"
);
}
);
width = 654;
},
{
associatedMasterId = UUID0;
layerId = "E07A6051-B4E3-4A13-A7F1-CAC9D113AEED";
name = "Regular Jul 11 14, 12:42";
paths = (
{
closed = 1;
nodes = (
"232 231 LINE",
"208 230 OFFCURVE",
"183 228 OFFCURVE",
"159 238 CURVE SMOOTH",
"85 268 OFFCURVE",
"84 384 OFFCURVE",
"214 386 CURVE SMOOTH",
"299 387 LINE",
"273 463 LINE",
"211 464 LINE",
"4 475 OFFCURVE",
"4 314 OFFCURVE",
"76 248 CURVE",
"88 234 OFFCURVE",
"116 211 OFFCURVE",
"137 195 CURVE SMOOTH",
"160 179 LINE"
);
},
{
closed = 1;
nodes = (
"329 218 LINE",
"282 275 LINE",
"149 294 OFFCURVE",
"84 229 OFFCURVE",
"84 160 CURVE SMOOTH",
"84 53 OFFCURVE",
"214 -10 OFFCURVE",
"293 -16 CURVE SMOOTH",
"465 -29 OFFCURVE",
"624 161 OFFCURVE",
"602 313 CURVE SMOOTH",
"594 370 OFFCURVE",
"556 442 OFFCURVE",
"497 456 CURVE SMOOTH",
"408 477 OFFCURVE",
"321 407 OFFCURVE",
"353 313 CURVE SMOOTH",
"364 280 OFFCURVE",
"428 207 OFFCURVE",
"500 154 CURVE",
"500 154 OFFCURVE",
"521 196 OFFCURVE",
"521 196 CURVE",
"351 308 OFFCURVE",
"441 446 OFFCURVE",
"523 384 CURVE",
"546 297 OFFCURVE",
"514 214 OFFCURVE",
"500 190 CURVE",
"493 181 LINE",
"453 95 OFFCURVE",
"292 9 OFFCURVE",
"207 61 CURVE SMOOTH",
"136 104 OFFCURVE",
"158 235 OFFCURVE",
"315 196 CURVE"
);
},
{
closed = 1;
nodes = (
"676 538 LINE",
"685 558 LINE",
"655 608 LINE",
"-21 608 LINE",
"-30 588 LINE",
"0 538 LINE"
);
},
{
closed = 1;
nodes = (
"462 434 LINE",
"540 423 LINE",
"540 500 LINE",
"482 551 LINE",
"462 562 LINE"
);
}
);
width = 654;
},
{
associatedMasterId = UUID0;
background = {
paths = (
{
closed = 1;
nodes = (
"232 231 LINE",
"208 230 OFFCURVE",
"183 228 OFFCURVE",
"159 238 CURVE SMOOTH",
"85 268 OFFCURVE",
"84 384 OFFCURVE",
"214 386 CURVE SMOOTH",
"299 387 LINE",
"273 463 LINE",
"211 464 LINE",
"4 475 OFFCURVE",
"4 314 OFFCURVE",
"76 248 CURVE",
"88 234 OFFCURVE",
"116 211 OFFCURVE",
"137 195 CURVE SMOOTH",
"160 179 LINE"
);
},
{
closed = 1;
nodes = (
"329 218 LINE",
"282 275 LINE",
"149 294 OFFCURVE",
"84 229 OFFCURVE",
"84 160 CURVE SMOOTH",
"84 53 OFFCURVE",
"214 -10 OFFCURVE",
"293 -16 CURVE SMOOTH",
"465 -29 OFFCURVE",
"624 161 OFFCURVE",
"602 313 CURVE SMOOTH",
"594 370 OFFCURVE",
"556 442 OFFCURVE",
"497 456 CURVE SMOOTH",
"408 477 OFFCURVE",
"321 407 OFFCURVE",
"353 313 CURVE SMOOTH",
"364 280 OFFCURVE",
"428 207 OFFCURVE",
"500 154 CURVE",
"500 154 OFFCURVE",
"521 196 OFFCURVE",
"521 196 CURVE",
"351 308 OFFCURVE",
"441 446 OFFCURVE",
"523 384 CURVE",
"546 297 OFFCURVE",
"514 214 OFFCURVE",
"500 190 CURVE",
"493 181 LINE",
"453 95 OFFCURVE",
"292 9 OFFCURVE",
"207 61 CURVE SMOOTH",
"136 104 OFFCURVE",
"158 235 OFFCURVE",
"315 196 CURVE"
);
},
{
closed = 1;
nodes = (
"676 538 LINE",
"685 558 LINE",
"655 608 LINE",
"-21 608 LINE",
"-30 588 LINE",
"0 538 LINE"
);
},
{
closed = 1;
nodes = (
"462 434 LINE",
"540 423 LINE",
"540 500 LINE",
"482 551 LINE",
"462 562 LINE"
);
}
);
};
layerId = "4F909778-B4E1-44D2-96A6-41191A72F502";
name = "Regular Jul 11 14, 14:10";
paths = (
{
closed = 1;
nodes = (
"133 246 OFFCURVE",
"105 280 OFFCURVE",
"105 312 CURVE SMOOTH",
"105 354 OFFCURVE",
"151 373 OFFCURVE",
"211 373 CURVE SMOOTH",
"301 373 LINE",
"273 454 LINE",
"176 454 LINE SMOOTH",
"71 454 OFFCURVE",
"30 402 OFFCURVE",
"30 351 CURVE SMOOTH",
"30 297 OFFCURVE",
"76 236 OFFCURVE",
"136 196 CURVE",
"189 209 LINE"
);
},
{
closed = 1;
nodes = (
"348 197 LINE",
"302 255 LINE",
"179 281 OFFCURVE",
"103 210 OFFCURVE",
"103 135 CURVE SMOOTH",
"103 38 OFFCURVE",
"229 -59 OFFCURVE",
"361 -59 CURVE SMOOTH",
"524 -59 OFFCURVE",
"659 87 OFFCURVE",
"659 243 CURVE SMOOTH",
"659 361 OFFCURVE",
"583 467 OFFCURVE",
"488 467 CURVE SMOOTH",
"423 467 OFFCURVE",
"362 417 OFFCURVE",
"362 345 CURVE SMOOTH",
"362 275 OFFCURVE",
"421 210 OFFCURVE",
"548 117 CURVE",
"571 158 LINE",
"473 212 OFFCURVE",
"438 275 OFFCURVE",
"438 324 CURVE SMOOTH",
"438 398 OFFCURVE",
"515 431 OFFCURVE",
"560 394 CURVE",
"583 350 OFFCURVE",
"588 306 OFFCURVE",
"588 275 CURVE SMOOTH",
"588 104 OFFCURVE",
"430 6 OFFCURVE",
"304 6 CURVE SMOOTH",
"278 6 OFFCURVE",
"258 10 OFFCURVE",
"238 16 CURVE",
"197 39 OFFCURVE",
"181 79 OFFCURVE",
"181 107 CURVE SMOOTH",
"181 158 OFFCURVE",
"230 199 OFFCURVE",
"335 176 CURVE"
);
},
{
closed = 1;
nodes = (
"472 434 LINE",
"550 423 LINE",
"550 500 LINE",
"492 551 LINE",
"472 562 LINE"
);
},
{
closed = 1;
nodes = (
"676 538 LINE",
"685 558 LINE",
"655 608 LINE",
"-21 608 LINE",
"-30 588 LINE",
"0 538 LINE"
);
}
);
width = 675;
}
);
rightKerningGroup = Cha;
unicode = 091B;
},
{
glyphname = dvJa;
lastChange = "2014-11-22 14:55:46 +0000";
layers = (
{
anchors = (
{
name = bindu;
position = "{532, 630}";
},
{
name = bottom;
position = "{482, 5}";
},
{
name = candrabindu;
position = "{517, 630}";
},
{
name = candrabinduCXT;
position = "{687, 630}";
},
{
name = top;
position = "{532, 468}";
}
);
background = {
paths = (
{
closed = 1;
nodes = (
"183 356 LINE",
"284 335 OFFCURVE",
"332 273 OFFCURVE",
"332 214 CURVE SMOOTH",
"332 170 OFFCURVE",
"305 138 OFFCURVE",
"252 138 CURVE SMOOTH",
"162 138 OFFCURVE",
"109 230 OFFCURVE",
"48 406 CURVE",
"3 390 LINE",
"59 194 OFFCURVE",
"147 51 OFFCURVE",
"278 51 CURVE SMOOTH",
"355 51 OFFCURVE",
"408 100 OFFCURVE",
"408 174 CURVE SMOOTH",
"408 264 OFFCURVE",
"331 368 OFFCURVE",
"202 386 CURVE",
"183 386 LINE"
);
},
{
closed = 1;
nodes = (
"212 376 LINE",
"273 331 LINE",
"498 331 LINE",
"501 412 LINE",
"183 412 LINE",
"183 373 LINE"
);
},
{
closed = 1;
nodes = (
"492 5 LINE",
"551 -33 LINE",
"575 -26 LINE",
"575 500 LINE",
"517 551 LINE",
"492 562 LINE"
);
},
{
closed = 1;
nodes = (
"686 538 LINE",
"695 558 LINE",
"665 608 LINE",
"-21 608 LINE",
"-30 588 LINE",
"0 538 LINE"
);
}
);
};
layerId = UUID0;
name = Regular;
paths = (
{
closed = 1;
nodes = (
"13 390 LINE",
"68 193 OFFCURVE",
"154 51 OFFCURVE",
"276 51 CURVE SMOOTH",
"347 51 OFFCURVE",
"408 99 OFFCURVE",
"408 180 CURVE SMOOTH",
"408 269 OFFCURVE",
"333 368 OFFCURVE",
"202 386 CURVE",
"193 386 LINE",
"193 365 LINE",
"284 324 LINE",
"365 241 OFFCURVE",
"336 137 OFFCURVE",
"251 137 CURVE SMOOTH",
"165 137 OFFCURVE",
"111 245 OFFCURVE",
"63 406 CURVE"
);
},
{
closed = 1;
nodes = (
"521 412 LINE",
"193 412 LINE",
"193 373 LINE",
"303 336 LINE",
"518 336 LINE"
);
},
{
closed = 1;
nodes = (
"494 5 LINE",
"553 -33 LINE",
"577 -26 LINE",
"577 500 LINE",
"519 551 LINE",
"494 562 LINE"
);
},
{
closed = 1;
nodes = (
"688 538 LINE",
"697 558 LINE",
"667 608 LINE",
"-21 608 LINE",
"-30 588 LINE",
"0 538 LINE"
);
}
);
width = 667;
},
{
anchors = (
{
name = bindu;
position = "{600, 670}";
},
{
name = bottom;
position = "{490, 0}";
},
{
name = candrabindu;
position = "{580, 670}";
},
{
name = candrabinduCXT;
position = "{900, 670}";
},
{
name = top;
position = "{595, 475}";
}
);
guideLines = (
{
angle = 90;
position = "{362, 365}";
}
);
layerId = "818F884A-9448-4DD2-A77B-976162CCCBC7";
name = Bold;
paths = (
{
closed = 1;
nodes = (
"-10 407 LINE",
"45 196 OFFCURVE",
"143 22 OFFCURVE",
"307 22 CURVE SMOOTH",
"417 22 OFFCURVE",
"469 100 OFFCURVE",
"469 177 CURVE SMOOTH",
"469 273 OFFCURVE",
"388 355 OFFCURVE",
"233 401 CURVE",
"196 411 LINE",
"196 366 LINE",
"265 344 LINE",
"334 308 OFFCURVE",
"329 208 OFFCURVE",
"254 208 CURVE SMOOTH",
"183 208 OFFCURVE",
"151 298 OFFCURVE",
"106 446 CURVE"
);
},
{
closed = 1;
nodes = (
"568 457 LINE",
"196 457 LINE",
"196 405 LINE",
"342 301 LINE",
"561 301 LINE"
);
},
{
closed = 1;
nodes = (
"514 23 LINE",
"646 -46 LINE",
"700 -19 LINE",
"700 486 LINE",
"580 568 LINE",
"514 599 LINE"
);
},
{
closed = 1;
nodes = (
"810 538 LINE",
"835 587 LINE",
"770 670 LINE",
"-40 670 LINE",
"-65 621 LINE",
"0 538 LINE"
);
}
);
width = 770;
},
{
associatedMasterId = UUID0;
layerId = "DC082912-F0BF-4F26-9467-1A05C92614DC";
name = "Regular Jul 6 14, 17:28";
paths = (
{
closed = 1;
nodes = (
"193 336 LINE",
"374 298 OFFCURVE",
"370 136 OFFCURVE",
"287 121 CURVE SMOOTH",
"177 101 OFFCURVE",
"112 246 OFFCURVE",
"56 384 CURVE",
"13 370 LINE",
"87 110 OFFCURVE",
"198 26 OFFCURVE",
"295 32 CURVE SMOOTH",
"491 45 OFFCURVE",
"435 335 OFFCURVE",
"212 366 CURVE",
"193 366 LINE"
);
},
{
closed = 1;
nodes = (
"222 356 LINE",
"283 311 LINE",
"508 311 LINE",
"511 392 LINE",
"193 392 LINE",
"193 353 LINE"
);
},
{
closed = 1;
nodes = (
"494 15 LINE",
"505 -3 OFFCURVE",
"522 -17 OFFCURVE",
"543 -23 CURVE",
"576 -16 LINE",
"576 480 LINE",
"494 553 LINE"
);
},
{
closed = 1;
nodes = (
"768 518 LINE",
"777 540 LINE",
"733 588 LINE",
"-65 588 LINE",
"-74 566 LINE",
"-30 518 LINE"
);
}
);
width = 679;
},
{
associatedMasterId = UUID0;
layerId = "54D9AD79-FADC-41E1-A088-A163951CF875";
name = "Regular Jul 8 14, 16:59";
paths = (
{
closed = 1;
nodes = (
"183 356 LINE",
"364 318 OFFCURVE",
"360 156 OFFCURVE",
"277 141 CURVE SMOOTH",
"167 121 OFFCURVE",
"102 266 OFFCURVE",
"46 404 CURVE",
"3 390 LINE",
"77 130 OFFCURVE",
"188 46 OFFCURVE",
"285 52 CURVE SMOOTH",
"481 65 OFFCURVE",
"425 355 OFFCURVE",
"202 386 CURVE",
"183 386 LINE"
);
},
{
closed = 1;
nodes = (
"212 376 LINE",
"273 331 LINE",
"498 331 LINE",
"501 412 LINE",
"183 412 LINE",
"183 373 LINE"
);
},
{
closed = 1;
nodes = (
"492 5 LINE",
"551 -33 LINE",
"575 -26 LINE",
"575 500 LINE",
"517 551 LINE",
"492 562 LINE"
);
},
{
closed = 1;
nodes = (
"686 538 LINE",
"695 558 LINE",
"665 608 LINE",
"-21 608 LINE",
"-30 588 LINE",
"0 538 LINE"
);
}
);
width = 665;
},
{
associatedMasterId = UUID0;
background = {
paths = (
{
closed = 1;
nodes = (
"193 356 LINE",
"284 324 LINE",
"365 241 OFFCURVE",
"336 137 OFFCURVE",
"251 137 CURVE SMOOTH",
"165 137 OFFCURVE",
"111 245 OFFCURVE",
"63 406 CURVE",
"13 390 LINE",
"69 194 OFFCURVE",
"149 51 OFFCURVE",
"279 51 CURVE SMOOTH",
"355 51 OFFCURVE",
"408 99 OFFCURVE",
"408 177 CURVE SMOOTH",
"408 270 OFFCURVE",
"333 368 OFFCURVE",
"202 386 CURVE",
"193 386 LINE"
);
},
{
closed = 1;
nodes = (
"212 376 LINE",
"273 331 LINE",
"498 331 LINE",
"501 412 LINE",
"193 412 LINE",
"193 373 LINE"
);
},
{
closed = 1;
nodes = (
"492 5 LINE",
"551 -33 LINE",
"575 -26 LINE",
"575 500 LINE",
"517 551 LINE",
"492 562 LINE"
);
},
{
closed = 1;
nodes = (
"686 538 LINE",
"695 558 LINE",
"665 608 LINE",
"-21 608 LINE",
"-30 588 LINE",
"0 538 LINE"
);
}
);
};
layerId = "BFDFC4E1-E4EC-40AD-A258-F8B2B906F70B";
name = "Regular Jul 11 14, 16:50";
paths = (
{
closed = 1;
nodes = (
"183 356 LINE",
"284 335 OFFCURVE",
"332 273 OFFCURVE",
"332 214 CURVE SMOOTH",
"332 170 OFFCURVE",
"305 138 OFFCURVE",
"252 138 CURVE SMOOTH",
"162 138 OFFCURVE",
"109 230 OFFCURVE",
"48 406 CURVE",
"3 390 LINE",
"59 194 OFFCURVE",
"147 51 OFFCURVE",
"278 51 CURVE SMOOTH",
"355 51 OFFCURVE",
"408 100 OFFCURVE",
"408 174 CURVE SMOOTH",
"408 264 OFFCURVE",
"331 368 OFFCURVE",
"202 386 CURVE",
"183 386 LINE"
);
},
{
closed = 1;
nodes = (
"212 376 LINE",
"273 331 LINE",
"498 331 LINE",
"501 412 LINE",
"183 412 LINE",
"183 373 LINE"
);
},
{
closed = 1;
nodes = (
"492 5 LINE",
"551 -33 LINE",
"575 -26 LINE",
"575 500 LINE",
"517 551 LINE",
"492 562 LINE"
);
},
{
closed = 1;
nodes = (
"686 538 LINE",
"695 558 LINE",
"665 608 LINE",
"-21 608 LINE",
"-30 588 LINE",
"0 538 LINE"
);
}
);
width = 665;
}
);
leftKerningGroup = Ja;
unicode = 091C;
},
{
glyphname = dvJha;
lastChange = "2014-11-22 14:55:46 +0000";
layers = (
{
anchors = (
{
name = bindu;
position = "{510, 630}";
},
{
name = bottom;
position = "{600, 5}";
},
{
name = candrabindu;
position = "{525, 630}";
},
{
name = candrabinduCXT;
position = "{805, 630}";
},
{
name = top;
position = "{650, 468}";
}
);
background = {
paths = (
{
closed = 1;
nodes = (
"369 279 LINE",
"512 187 OFFCURVE",
"609 223 OFFCURVE",
"609 223 CURVE",
"609 308 LINE",
"611 308 OFFCURVE",
"507 252 OFFCURVE",
"378 303 CURVE"
);
}
);
};
components = (
{
name = dvI;
transform = "{1, 0, 0, 1, 0, 0}";
}
);
layerId = UUID0;
name = Regular;
paths = (
{
closed = 1;
nodes = (
"612 5 LINE",
"671 -33 LINE",
"695 -26 LINE",
"695 500 LINE",
"637 551 LINE",
"612 562 LINE"
);
},
{
closed = 1;
nodes = (
"806 538 LINE",
"815 558 LINE",
"785 608 LINE",
"489 608 LINE",
"480 588 LINE",
"510 538 LINE"
);
},
{
closed = 1;
nodes = (
"359 279 LINE",
"492 197 OFFCURVE",
"560 183 OFFCURVE",
"622 212 CURVE",
"619 301 LINE",
"563 255 OFFCURVE",
"463 261 OFFCURVE",
"368 303 CURVE"
);
}
);
width = 785;
},
{
anchors = (
{
name = bindu;
position = "{578, 670}";
},
{
name = bottom;
position = "{608, 0}";
},
{
name = candrabindu;
position = "{598, 670}";
},
{
name = candrabinduCXT;
position = "{1018, 670}";
},
{
name = top;
position = "{713, 475}";
}
);
components = (
{
name = dvI;
transform = "{1, 0, 0, 1, 0, 0}";
}
);
layerId = "818F884A-9448-4DD2-A77B-976162CCCBC7";
name = Bold;
paths = (
{
closed = 1;
nodes = (
"632 23 LINE",
"764 -46 LINE",
"818 -19 LINE",
"818 486 LINE",
"698 568 LINE",
"632 599 LINE"
);
},
{
closed = 1;
nodes = (
"928 538 LINE",
"953 587 LINE",
"888 670 LINE",
"520 670 LINE",
"495 621 LINE",
"560 538 LINE"
);
},
{
closed = 1;
nodes = (
"383 250 LINE",
"458 177 OFFCURVE",
"582 129 OFFCURVE",
"649 152 CURVE",
"646 327 LINE",
"596 268 OFFCURVE",
"484 280 OFFCURVE",
"398 314 CURVE"
);
}
);
width = 888;
},
{
associatedMasterId = UUID0;
layerId = "9E4E8741-6C05-4B00-884F-D5A09CB5739B";
name = "Regular Jul 6 14, 17:30";
paths = (
{
closed = 1;
nodes = (
"759 518 LINE",
"768 540 LINE",
"724 588 LINE",
"-80 588 LINE",
"-89 566 LINE",
"-45 518 LINE"
);
},
{
closed = 1;
nodes = (
"528 15 LINE",
"540 -3 OFFCURVE",
"557 -17 OFFCURVE",
"578 -23 CURVE",
"611 -16 LINE",
"611 480 LINE",
"528 553 LINE"
);
},
{
closed = 1;
nodes = (
"327 249 LINE",
"470 157 OFFCURVE",
"529 183 OFFCURVE",
"529 183 CURVE",
"529 268 LINE",
"529 268 OFFCURVE",
"461 220 OFFCURVE",
"335 271 CURVE"
);
},
{
closed = 1;
nodes = (
"382 363 LINE",
"382 477 LINE",
"299 550 LINE",
"299 391 LINE"
);
},
{
closed = 1;
nodes = (
"24 54 LINE",
"54 33 OFFCURVE",
"82 20 OFFCURVE",
"127 11 CURVE",
"143 19 LINE",
"472 -86 OFFCURVE",
"538 266 OFFCURVE",
"267 285 CURVE",
"230 277 OFFCURVE",
"108 266 OFFCURVE",
"108 266 CURVE",
"86 358 OFFCURVE",
"142 363 OFFCURVE",
"204 363 CURVE SMOOTH",
"382 363 LINE",
"304 444 LINE",
"185 444 LINE SMOOTH",
"97 444 OFFCURVE",
"34 397 OFFCURVE",
"34 331 CURVE SMOOTH",
"34 250 OFFCURVE",
"145 176 OFFCURVE",
"192 187 CURVE",
"192 187 OFFCURVE",
"346 204 OFFCURVE",
"346 204 CURVE",
"364 160 OFFCURVE",
"360 91 OFFCURVE",
"299 57 CURVE",
"299 57 OFFCURVE",
"229 64 OFFCURVE",
"157 91 CURVE",
"157 91 OFFCURVE",
"132 129 OFFCURVE",
"77 153 CURVE"
);
},
{
closed = 1;
nodes = (
"87 54 LINE",
"313 -177 LINE",
"384 -112 LINE",
"158 35 LINE"
);
}
);
width = 717;
}
);
leftKerningGroup = Dda;
unicode = 091D;
},
{
glyphname = dvJha.NEP;
lastChange = "2014-11-22 14:55:46 +0000";
layers = (
{
anchors = (
{
name = bindu;
position = "{518, 630}";
},
{
name = bottom;
position = "{458, 5}";
},
{
name = candrabindu;
position = "{503, 630}";
},
{
name = candrabinduCXT;
position = "{743, 630}";
},
{
name = top;
position = "{512, 468}";
}
);
guideLines = (
{
position = "{693, 325}";
}
);
layerId = UUID0;
name = Regular;
paths = (
{
closed = 1;
nodes = (
"106 269 LINE",
"130 214 OFFCURVE",
"196 144 OFFCURVE",
"243 115 CURVE",
"291 135 LINE",
"291 273 LINE",
"224 308 LINE",
"133 308 LINE"
);
},
{
closed = 1;
nodes = (
"470 5 LINE",
"529 -33 LINE",
"553 -26 LINE",
"553 500 LINE",
"495 551 LINE",
"470 562 LINE"
);
},
{
closed = 1;
nodes = (
"854 538 LINE",
"863 558 LINE",
"833 608 LINE",
"343 608 LINE",
"334 588 LINE",
"364 538 LINE"
);
},
{
closed = 1;
nodes = (
"499 308 LINE",
"171 308 LINE",
"202 232 LINE",
"521 232 LINE"
);
},
{
closed = 1;
nodes = (
"70 631 OFFCURVE",
"20 598 OFFCURVE",
"20 542 CURVE SMOOTH",
"20 507 OFFCURVE",
"39 459 OFFCURVE",
"124 406 CURVE",
"150 441 LINE",
"63 489 OFFCURVE",
"93 580 OFFCURVE",
"169 573 CURVE",
"200 550 OFFCURVE",
"205 519 OFFCURVE",
"205 481 CURVE SMOOTH",
"205 274 LINE",
"286 243 LINE",
"286 448 LINE",
"283 538 OFFCURVE",
"207 631 OFFCURVE",
"121 631 CURVE SMOOTH"
);
},
{
closed = 1;
nodes = (
"540 245 LINE",
"663 245 LINE",
"727 245 OFFCURVE",
"752 216 OFFCURVE",
"752 177 CURVE SMOOTH",
"752 135 OFFCURVE",
"724 84 OFFCURVE",
"644 29 CURVE",
"699 -40 LINE",
"776 13 OFFCURVE",
"816 76 OFFCURVE",
"816 145 CURVE SMOOTH",
"816 244 OFFCURVE",
"732 320 OFFCURVE",
"636 320 CURVE",
"518 320 LINE"
);
}
);
width = 833;
},
{
anchors = (
{
name = bindu;
position = "{535, 670}";
},
{
name = bottom;
position = "{417, 0}";
},
{
name = candrabindu;
position = "{515, 670}";
},
{
name = candrabinduCXT;
position = "{860, 670}";
},
{
name = top;
position = "{522, 475}";
}
);
guideLines = (
{
position = "{916, 464}";
}
);
layerId = "818F884A-9448-4DD2-A77B-976162CCCBC7";
name = Bold;
paths = (
{
closed = 1;
nodes = (
"55 303 LINE",
"80 217 OFFCURVE",
"200 107 OFFCURVE",
"286 82 CURVE",
"351 119 LINE",
"351 319 LINE",
"284 361 LINE",
"91 361 LINE"
);
},
{
closed = 1;
nodes = (
"441 23 LINE",
"573 -46 LINE",
"627 -19 LINE",
"627 486 LINE",
"507 568 LINE",
"441 599 LINE"
);
},
{
closed = 1;
nodes = (
"947 538 LINE",
"972 587 LINE",
"907 670 LINE",
"401 670 LINE",
"376 621 LINE",
"441 538 LINE"
);
},
{
closed = 1;
nodes = (
"556 361 LINE",
"228 361 LINE",
"259 205 LINE",
"578 205 LINE"
);
},
{
closed = 1;
nodes = (
"2 694 OFFCURVE",
"-50 625 OFFCURVE",
"-50 559 CURVE SMOOTH",
"-50 505 OFFCURVE",
"-15 455 OFFCURVE",
"69 396 CURVE",
"136 447 LINE",
"64 506 OFFCURVE",
"106 565 OFFCURVE",
"161 563 CURVE",
"169 550 OFFCURVE",
"172 524 OFFCURVE",
"172 500 CURVE SMOOTH",
"173 227 LINE",
"351 211 LINE",
"351 448 LINE SMOOTH",
"351 560 OFFCURVE",
"225 694 OFFCURVE",
"95 694 CURVE SMOOTH"
);
},
{
closed = 1;
nodes = (
"603 219 LINE",
"686 219 LINE",
"725 219 OFFCURVE",
"752 208 OFFCURVE",
"752 181 CURVE SMOOTH",
"752 149 OFFCURVE",
"715 106 OFFCURVE",
"656 62 CURVE",
"794 -58 LINE",
"882 11 OFFCURVE",
"921 79 OFFCURVE",
"921 148 CURVE SMOOTH",
"921 270 OFFCURVE",
"800 388 OFFCURVE",
"675 388 CURVE",
"586 388 LINE"
);
}
);
width = 907;
}
);
leftKerningGroup = Ma;
rightKerningGroup = Ka;
},
{
glyphname = dvNya;
lastChange = "2014-11-22 14:55:46 +0000";
layers = (
{
anchors = (
{
name = bindu;
position = "{620, 630}";
},
{
name = bottom;
position = "{570, 5}";
},
{
name = candrabindu;
position = "{605, 630}";
},
{
name = candrabinduCXT;
position = "{775, 630}";
},
{
name = top;
position = "{620, 468}";
}
);
layerId = UUID0;
name = Regular;
paths = (
{
closed = 1;
nodes = (
"226 310 LINE",
"338 403 LINE",
"290 394 LINE",
"361 397 OFFCURVE",
"410 344 OFFCURVE",
"410 284 CURVE SMOOTH",
"410 225 OFFCURVE",
"362 170 OFFCURVE",
"282 170 CURVE SMOOTH",
"185 170 OFFCURVE",
"114 251 OFFCURVE",
"42 363 CURVE",
"2 333 LINE",
"102 167 OFFCURVE",
"215 90 OFFCURVE",
"316 90 CURVE SMOOTH",
"403 90 OFFCURVE",
"489 146 OFFCURVE",
"489 251 CURVE SMOOTH",
"489 358 OFFCURVE",
"399 443 OFFCURVE",
"301 443 CURVE SMOOTH",
"256 443 OFFCURVE",
"208 425 OFFCURVE",
"167 386 CURVE"
);
},
{
closed = 1;
nodes = (
"582 5 LINE",
"641 -33 LINE",
"665 -26 LINE",
"665 500 LINE",
"607 551 LINE",
"582 562 LINE"
);
},
{
closed = 1;
nodes = (
"776 538 LINE",
"785 558 LINE",
"755 608 LINE",
"-21 608 LINE",
"-30 588 LINE",
"0 538 LINE"
);
},
{
closed = 1;
nodes = (
"417 281 LINE",
"509 222 OFFCURVE",
"571 211 OFFCURVE",
"619 235 CURVE",
"619 320 LINE",
"576 279 OFFCURVE",
"494 274 OFFCURVE",
"426 315 CURVE"
);
}
);
width = 755;
},
{
anchors = (
{
name = bindu;
position = "{660, 670}";
},
{
name = bottom;
position = "{550, 0}";
},
{
name = candrabindu;
position = "{640, 670}";
},
{
name = candrabinduCXT;
position = "{960, 670}";
},
{
name = top;
position = "{655, 475}";
}
);
layerId = "818F884A-9448-4DD2-A77B-976162CCCBC7";
name = Bold;
paths = (
{
closed = 1;
nodes = (
"226 291 LINE",
"381 417 LINE",
"296 390 LINE",
"343 385 OFFCURVE",
"369 345 OFFCURVE",
"369 305 CURVE SMOOTH",
"369 259 OFFCURVE",
"336 212 OFFCURVE",
"268 212 CURVE SMOOTH",
"193 212 OFFCURVE",
"138 269 OFFCURVE",
"60 402 CURVE",
"-32 340 LINE",
"97 95 OFFCURVE",
"243 49 OFFCURVE",
"327 49 CURVE SMOOTH",
"450 49 OFFCURVE",
"532 148 OFFCURVE",
"532 259 CURVE SMOOTH",
"532 397 OFFCURVE",
"406 510 OFFCURVE",
"276 510 CURVE SMOOTH",
"229 510 OFFCURVE",
"170 495 OFFCURVE",
"118 434 CURVE"
);
},
{
closed = 1;
nodes = (
"574 23 LINE",
"706 -46 LINE",
"760 -19 LINE",
"760 486 LINE",
"640 568 LINE",
"574 599 LINE"
);
},
{
closed = 1;
nodes = (
"870 538 LINE",
"895 587 LINE",
"830 670 LINE",
"-40 670 LINE",
"-65 621 LINE",
"0 538 LINE"
);
},
{
closed = 1;
nodes = (
"383 280 LINE",
"458 207 OFFCURVE",
"582 159 OFFCURVE",
"649 182 CURVE",
"646 357 LINE",
"596 298 OFFCURVE",
"484 310 OFFCURVE",
"398 344 CURVE"
);
}
);
width = 830;
},
{
associatedMasterId = UUID0;
layerId = "7E580C4E-C57D-4685-84F8-5B47C45A2A99";
name = "Regular Jul 6 14, 17:33";
paths = (
{
closed = 1;
nodes = (
"214 294 LINE",
"324 361 LINE",
"424 342 OFFCURVE",
"428 191 OFFCURVE",
"338 165 CURVE SMOOTH",
"219 130 OFFCURVE",
"99 243 OFFCURVE",
"42 338 CURVE",
"2 313 LINE",
"109 122 OFFCURVE",
"254 67 OFFCURVE",
"350 81 CURVE SMOOTH",
"618 122 OFFCURVE",
"467 562 OFFCURVE",
"167 366 CURVE"
);
},
{
closed = 1;
nodes = (
"816 518 LINE",
"825 540 LINE",
"781 588 LINE",
"-40 588 LINE",
"-49 566 LINE",
"-5 518 LINE"
);
},
{
closed = 1;
nodes = (
"588 15 LINE",
"600 -3 OFFCURVE",
"617 -17 OFFCURVE",
"638 -23 CURVE",
"671 -16 LINE",
"671 480 LINE",
"588 553 LINE"
);
},
{
closed = 1;
nodes = (
"439 237 LINE",
"553 177 OFFCURVE",
"601 214 OFFCURVE",
"601 214 CURVE",
"601 299 LINE",
"601 299 OFFCURVE",
"545 244 OFFCURVE",
"438 274 CURVE"
);
}
);
width = 771;
}
);
unicode = 091E;
},
{
glyphname = dvTta;
lastChange = "2014-11-22 14:55:46 +0000";
layers = (
{
anchors = (
{
name = bindu;
position = "{356, 630}";
},
{
name = bottom;
position = "{319, 5}";
},
{
name = candrabindu;
position = "{351, 630}";
},
{
name = candrabinduCXT;
position = "{541, 630}";
},
{
name = top;
position = "{372, 468}";
}
);
background = {
paths = (
{
closed = 1;
nodes = (
"446 159 LINE",
"387 79 OFFCURVE",
"275 46 OFFCURVE",
"186 84 CURVE",
"151 114 OFFCURVE",
"128 155 OFFCURVE",
"128 200 CURVE SMOOTH",
"128 261 OFFCURVE",
"170 309 OFFCURVE",
"268 309 CURVE SMOOTH",
"413 309 LINE",
"336 392 LINE",
"253 392 LINE SMOOTH",
"113 392 OFFCURVE",
"48 322 OFFCURVE",
"48 232 CURVE SMOOTH",
"48 90 OFFCURVE",
"210 -6 OFFCURVE",
"322 -6 CURVE SMOOTH",
"389 -6 OFFCURVE",
"460 28 OFFCURVE",
"506 94 CURVE"
);
},
{
closed = 1;
nodes = (
"330 351 LINE",
"413 310 LINE",
"413 500 LINE",
"355 551 LINE",
"330 562 LINE"
);
},
{
closed = 1;
nodes = (
"562 538 LINE",
"571 558 LINE",
"541 608 LINE",
"-21 608 LINE",
"-30 588 LINE",
"0 538 LINE"
);
}
);
};
layerId = UUID0;
name = Regular;
paths = (
{
closed = 1;
nodes = (
"446 159 LINE",
"387 79 OFFCURVE",
"275 53 OFFCURVE",
"186 84 CURVE",
"146 116 OFFCURVE",
"125 160 OFFCURVE",
"125 200 CURVE SMOOTH",
"125 258 OFFCURVE",
"168 309 OFFCURVE",
"259 309 CURVE SMOOTH",
"413 309 LINE",
"336 392 LINE",
"253 392 LINE SMOOTH",
"113 392 OFFCURVE",
"48 322 OFFCURVE",
"48 232 CURVE SMOOTH",
"48 90 OFFCURVE",
"207 -5 OFFCURVE",
"319 -5 CURVE SMOOTH",
"386 -5 OFFCURVE",
"460 28 OFFCURVE",
"506 94 CURVE"
);
},
{
closed = 1;
nodes = (
"330 351 LINE",
"413 310 LINE",
"413 500 LINE",
"355 551 LINE",
"330 562 LINE"
);
},
{
closed = 1;
nodes = (
"562 538 LINE",
"571 558 LINE",
"541 608 LINE",
"-21 608 LINE",
"-30 588 LINE",
"0 538 LINE"
);
}
);
width = 541;
},
{
anchors = (
{
name = bindu;
position = "{368, 670}";
},
{
name = bottom;
position = "{288, -43}";
},
{
name = candrabindu;
position = "{348, 670}";
},
{
name = candrabinduCXT;
position = "{628, 670}";
},
{
name = top;
position = "{398, 475}";
}
);
background = {
paths = (
{
closed = 1;
nodes = (
"497 223 LINE",
"437 146 OFFCURVE",
"321 93 OFFCURVE",
"225 105 CURVE",
"202 122 OFFCURVE",
"192 143 OFFCURVE",
"192 166 CURVE SMOOTH",
"192 209 OFFCURVE",
"227 254 OFFCURVE",
"312 254 CURVE SMOOTH",
"483 254 LINE",
"399 433 LINE",
"268 433 LINE SMOOTH",
"83 433 OFFCURVE",
"21 334 OFFCURVE",
"21 239 CURVE SMOOTH",
"21 66 OFFCURVE",
"230 -51 OFFCURVE",
"368 -51 CURVE SMOOTH",
"454 -51 OFFCURVE",
"551 -6 OFFCURVE",
"608 75 CURVE"
);
},
{
closed = 1;
nodes = (
"304 296 LINE",
"483 254 LINE",
"483 476 LINE",
"363 568 LINE",
"304 599 LINE"
);
},
{
closed = 1;
nodes = (
"723 538 LINE",
"748 587 LINE",
"683 670 LINE",
"-45 670 LINE",
"-70 621 LINE",
"-5 538 LINE"
);
}
);
};
layerId = "818F884A-9448-4DD2-A77B-976162CCCBC7";
name = Bold;
paths = (
{
closed = 1;
nodes = (
"495 213 LINE",
"423 140 OFFCURVE",
"287 100 OFFCURVE",
"213 138 CURVE",
"202 154 OFFCURVE",
"196 167 OFFCURVE",
"196 186 CURVE SMOOTH",
"196 232 OFFCURVE",
"232 271 OFFCURVE",
"312 271 CURVE SMOOTH",
"483 271 LINE",
"397 445 LINE",
"262 445 LINE SMOOTH",
"87 445 OFFCURVE",
"19 353 OFFCURVE",
"19 254 CURVE SMOOTH",
"19 88 OFFCURVE",
"210 -43 OFFCURVE",
"369 -43 CURVE SMOOTH",
"433 -43 OFFCURVE",
"525 -22 OFFCURVE",
"596 60 CURVE"
);
},
{
closed = 1;
nodes = (
"304 313 LINE",
"483 271 LINE",
"483 486 LINE",
"363 568 LINE",
"304 599 LINE"
);
},
{
closed = 1;
nodes = (
"638 538 LINE",
"663 587 LINE",
"598 670 LINE",
"-40 670 LINE",
"-65 621 LINE",
"0 538 LINE"
);
}
);
width = 598;
},
{
associatedMasterId = UUID0;
layerId = "49D32FC2-48EF-4DD9-A3C3-3C83AA67A7D5";
name = "Regular Jul 6 14, 17:37";
paths = (
{
closed = 1;
nodes = (
"437 154 LINE",
"394 82 OFFCURVE",
"301 50 OFFCURVE",
"191 84 CURVE",
"113 162 OFFCURVE",
"91 309 OFFCURVE",
"262 309 CURVE SMOOTH",
"413 309 LINE",
"336 392 LINE",
"243 392 LINE SMOOTH",
"-77 392 OFFCURVE",
"47 36 OFFCURVE",
"286 -4 CURVE SMOOTH",
"393 -22 OFFCURVE",
"475 23 OFFCURVE",
"513 93 CURVE"
);
},
{
closed = 1;
nodes = (
"413 309 LINE",
"413 480 LINE",
"330 553 LINE",
"330 345 LINE"
);
},
{
closed = 1;
nodes = (
"577 518 LINE",
"583 540 LINE",
"540 588 LINE",
"-40 588 LINE",
"-46 566 LINE",
"-3 518 LINE"
);
}
);
width = 538;
},
{
associatedMasterId = UUID0;
layerId = "7D488C90-2C6B-4618-BDEC-7F0AAD972B81";
name = "Regular Jul 11 14, 18:01";
paths = (
{
closed = 1;
nodes = (
"437 164 LINE",
"406 112 OFFCURVE",
"344 77 OFFCURVE",
"275 77 CURVE SMOOTH",
"247 77 OFFCURVE",
"219 83 OFFCURVE",
"191 94 CURVE",
"156 124 OFFCURVE",
"128 164 OFFCURVE",
"128 211 CURVE SMOOTH",
"128 268 OFFCURVE",
"171 319 OFFCURVE",
"268 319 CURVE SMOOTH",
"413 319 LINE",
"336 402 LINE",
"253 402 LINE SMOOTH",
"113 402 OFFCURVE",
"48 332 OFFCURVE",
"48 242 CURVE SMOOTH",
"48 100 OFFCURVE",
"210 2 OFFCURVE",
"327 2 CURVE SMOOTH",
"400 2 OFFCURVE",
"480 40 OFFCURVE",
"513 103 CURVE"
);
},
{
closed = 1;
nodes = (
"330 361 LINE",
"413 320 LINE",
"413 500 LINE",
"355 551 LINE",
"330 562 LINE"
);
},
{
closed = 1;
nodes = (
"562 538 LINE",
"571 558 LINE",
"541 608 LINE",
"-21 608 LINE",
"-30 588 LINE",
"0 538 LINE"
);
}
);
width = 541;
}
);
leftKerningGroup = Da;
rightKerningGroup = Tta;
unicode = 091F;
},
{
glyphname = dvTtha;
lastChange = "2014-11-22 14:55:46 +0000";
layers = (
{
anchors = (
{
name = bindu;
position = "{363, 630}";
},
{
name = bottom;
position = "{338, -2}";
},
{
name = candrabindu;
position = "{348, 630}";
},
{
name = candrabinduCXT;
position = "{548, 630}";
},
{
name = top;
position = "{373, 468}";
}
);
background = {
paths = (
{
closed = 1;
nodes = (
"382 321 LINE",
"426 277 OFFCURVE",
"446 233 OFFCURVE",
"446 190 CURVE SMOOTH",
"446 116 OFFCURVE",
"387 52 OFFCURVE",
"294 52 CURVE SMOOTH",
"264 52 OFFCURVE",
"232 59 OFFCURVE",
"195 75 CURVE",
"156 111 OFFCURVE",
"134 151 OFFCURVE",
"134 197 CURVE SMOOTH",
"134 266 OFFCURVE",
"181 311 OFFCURVE",
"285 311 CURVE SMOOTH",
"416 311 LINE",
"342 393 LINE",
"257 393 LINE SMOOTH",
"128 393 OFFCURVE",
"53 327 OFFCURVE",
"53 229 CURVE SMOOTH",
"53 90 OFFCURVE",
"202 -12 OFFCURVE",
"338 -12 CURVE SMOOTH",
"446 -12 OFFCURVE",
"528 52 OFFCURVE",
"528 151 CURVE SMOOTH",
"528 220 OFFCURVE",
"488 303 OFFCURVE",
"394 362 CURVE"
);
},
{
closed = 1;
nodes = (
"332 332 LINE",
"415 321 LINE",
"415 500 LINE",
"357 551 LINE",
"332 562 LINE"
);
},
{
closed = 1;
nodes = (
"599 538 LINE",
"608 558 LINE",
"578 608 LINE",
"-21 608 LINE",
"-30 588 LINE",
"0 538 LINE"
);
}
);
};
layerId = UUID0;
name = Regular;
paths = (
{
closed = 1;
nodes = (
"382 321 LINE",
"426 277 OFFCURVE",
"447 232 OFFCURVE",
"447 189 CURVE SMOOTH",
"447 115 OFFCURVE",
"387 52 OFFCURVE",
"294 52 CURVE SMOOTH",
"264 52 OFFCURVE",
"232 59 OFFCURVE",
"195 75 CURVE",
"153 107 OFFCURVE",
"130 153 OFFCURVE",
"130 196 CURVE SMOOTH",
"130 257 OFFCURVE",
"176 311 OFFCURVE",
"275 311 CURVE SMOOTH",
"416 311 LINE",
"342 393 LINE",
"257 393 LINE SMOOTH",
"128 393 OFFCURVE",
"53 327 OFFCURVE",
"53 229 CURVE SMOOTH",
"53 90 OFFCURVE",
"202 -12 OFFCURVE",
"338 -12 CURVE SMOOTH",
"446 -12 OFFCURVE",
"528 52 OFFCURVE",
"528 151 CURVE SMOOTH",
"528 220 OFFCURVE",
"488 303 OFFCURVE",
"394 362 CURVE"
);
},
{
closed = 1;
nodes = (
"332 332 LINE",
"415 321 LINE",
"415 500 LINE",
"357 551 LINE",
"332 562 LINE"
);
},
{
closed = 1;
nodes = (
"599 538 LINE",
"608 558 LINE",
"578 608 LINE",
"-21 608 LINE",
"-30 588 LINE",
"0 538 LINE"
);
}
);
width = 578;
},
{
anchors = (
{
name = bindu;
position = "{390, 670}";
},
{
name = bottom;
position = "{300, -56}";
},
{
name = candrabindu;
position = "{370, 670}";
},
{
name = candrabinduCXT;
position = "{690, 670}";
},
{
name = top;
position = "{393, 475}";
}
);
background = {
paths = (
{
closed = 1;
nodes = (
"498 217 LINE",
"430 142 OFFCURVE",
"295 91 OFFCURVE",
"213 128 CURVE",
"202 144 OFFCURVE",
"196 157 OFFCURVE",
"196 176 CURVE SMOOTH",
"196 222 OFFCURVE",
"232 261 OFFCURVE",
"317 261 CURVE SMOOTH",
"488 261 LINE",
"402 435 LINE",
"267 435 LINE SMOOTH",
"86 435 OFFCURVE",
"19 341 OFFCURVE",
"19 245 CURVE SMOOTH",
"19 78 OFFCURVE",
"221 -51 OFFCURVE",
"366 -51 CURVE SMOOTH",
"445 -51 OFFCURVE",
"544 -12 OFFCURVE",
"601 62 CURVE"
);
},
{
closed = 1;
nodes = (
"309 303 LINE",
"488 261 LINE",
"488 486 LINE",
"368 568 LINE",
"309 599 LINE"
);
},
{
closed = 1;
nodes = (
"653 538 LINE",
"678 587 LINE",
"613 670 LINE",
"-40 670 LINE",
"-65 621 LINE",
"0 538 LINE"
);
}
);
};
layerId = "818F884A-9448-4DD2-A77B-976162CCCBC7";
name = Bold;
paths = (
{
closed = 1;
nodes = (
"395 303 LINE",
"432 277 OFFCURVE",
"458 237 OFFCURVE",
"458 199 CURVE SMOOTH",
"458 149 OFFCURVE",
"412 100 OFFCURVE",
"323 100 CURVE SMOOTH",
"285 100 OFFCURVE",
"249 109 OFFCURVE",
"222 127 CURVE",
"211 144 OFFCURVE",
"205 162 OFFCURVE",
"205 180 CURVE SMOOTH",
"205 226 OFFCURVE",
"241 266 OFFCURVE",
"317 266 CURVE SMOOTH",
"478 266 LINE",
"392 435 LINE",
"277 435 LINE SMOOTH",
"105 435 OFFCURVE",
"29 342 OFFCURVE",
"29 241 CURVE SMOOTH",
"29 91 OFFCURVE",
"198 -56 OFFCURVE",
"393 -56 CURVE SMOOTH",
"538 -56 OFFCURVE",
"628 26 OFFCURVE",
"628 137 CURVE SMOOTH",
"628 245 OFFCURVE",
"542 345 OFFCURVE",
"441 395 CURVE"
);
},
{
closed = 1;
nodes = (
"309 303 LINE",
"488 266 LINE",
"488 486 LINE",
"368 568 LINE",
"309 599 LINE"
);
},
{
closed = 1;
nodes = (
"700 538 LINE",
"725 587 LINE",
"660 670 LINE",
"-40 670 LINE",
"-65 621 LINE",
"0 538 LINE"
);
}
);
width = 660;
},
{
associatedMasterId = UUID0;
layerId = "E302708C-A222-4815-9A6D-F9F51374EADE";
name = "Regular Jul 6 14, 17:41";
paths = (
{
closed = 1;
nodes = (
"392 291 LINE",
"541 142 OFFCURVE",
"416 -10 OFFCURVE",
"205 65 CURVE",
"123 141 OFFCURVE",
"76 291 OFFCURVE",
"265 291 CURVE SMOOTH",
"426 291 LINE",
"352 373 LINE",
"227 373 LINE SMOOTH",
"-85 373 OFFCURVE",
"58 4 OFFCURVE",
"318 -19 CURVE SMOOTH",
"551 -39 OFFCURVE",
"636 185 OFFCURVE",
"404 332 CURVE"
);
},
{
closed = 1;
nodes = (
"425 300 LINE",
"425 480 LINE",
"342 553 LINE",
"342 325 LINE"
);
},
{
closed = 1;
nodes = (
"611 518 LINE",
"619 540 LINE",
"574 588 LINE",
"-38 588 LINE",
"-47 566 LINE",
"-2 518 LINE"
);
}
);
width = 578;
}
);
leftKerningGroup = Da;
rightKerningGroup = Tta;
unicode = 0920;
},
{
glyphname = dvDda;
lastChange = "2014-11-22 14:55:46 +0000";
layers = (
{
anchors = (
{
name = bindu;
position = "{438, 630}";
},
{
name = bottom;
position = "{338, -38}";
},
{
name = candrabindu;
position = "{432, 630}";
},
{
name = candrabinduCXT;
position = "{583, 630}";
},
{
name = top;
position = "{448, 468}";
}
);
background = {
paths = (
{
closed = 1;
nodes = (
"35 209 LINE",
"150 33 OFFCURVE",
"256 -26 OFFCURVE",
"357 -26 CURVE SMOOTH",
"466 -26 OFFCURVE",
"538 43 OFFCURVE",
"538 126 CURVE SMOOTH",
"538 202 OFFCURVE",
"477 280 OFFCURVE",
"383 300 CURVE",
"212 246 LINE",
"188 263 OFFCURVE",
"173 283 OFFCURVE",
"173 307 CURVE SMOOTH",
"173 350 OFFCURVE",
"219 373 OFFCURVE",
"280 373 CURVE SMOOTH",
"487 373 LINE",
"413 454 LINE",
"253 454 LINE SMOOTH",
"148 454 OFFCURVE",
"102 400 OFFCURVE",
"102 346 CURVE SMOOTH",
"102 273 OFFCURVE",
"187 179 OFFCURVE",
"288 165 CURVE",
"448 218 LINE",
"495 151 OFFCURVE",
"442 52 OFFCURVE",
"325 52 CURVE SMOOTH",
"243 52 OFFCURVE",
"155 101 OFFCURVE",
"72 236 CURVE"
);
},
{
closed = 1;
nodes = (
"409 384 LINE",
"487 373 LINE",
"487 500 LINE",
"429 551 LINE",
"409 562 LINE"
);
},
{
closed = 1;
nodes = (
"614 538 LINE",
"623 558 LINE",
"593 608 LINE",
"-21 608 LINE",
"-30 588 LINE",
"0 538 LINE"
);
}
);
};
layerId = UUID0;
name = Regular;
paths = (
{
closed = 1;
nodes = (
"35 199 LINE",
"156 14 OFFCURVE",
"262 -38 OFFCURVE",
"359 -38 CURVE SMOOTH",
"469 -38 OFFCURVE",
"540 30 OFFCURVE",
"540 114 CURVE SMOOTH",
"540 196 OFFCURVE",
"473 271 OFFCURVE",
"383 290 CURVE",
"212 236 LINE",
"187 256 OFFCURVE",
"175 281 OFFCURVE",
"175 303 CURVE SMOOTH",
"175 338 OFFCURVE",
"205 368 OFFCURVE",
"270 368 CURVE SMOOTH",
"487 368 LINE",
"413 454 LINE",
"263 454 LINE SMOOTH",
"148 454 OFFCURVE",
"102 394 OFFCURVE",
"102 338 CURVE SMOOTH",
"102 261 OFFCURVE",
"188 169 OFFCURVE",
"288 155 CURVE",
"448 208 LINE",
"496 142 OFFCURVE",
"446 42 OFFCURVE",
"326 42 CURVE SMOOTH",
"245 42 OFFCURVE",
"157 88 OFFCURVE",
"72 226 CURVE"
);
},
{
closed = 1;
nodes = (
"409 379 LINE",
"487 368 LINE",
"487 500 LINE",
"429 551 LINE",
"409 562 LINE"
);
},
{
closed = 1;
nodes = (
"614 538 LINE",
"623 558 LINE",
"593 608 LINE",
"-21 608 LINE",
"-30 588 LINE",
"0 538 LINE"
);
}
);
width = 593;
},
{
anchors = (
{
name = bindu;
position = "{440, 670}";
},
{
name = bottom;
position = "{250, -77}";
},
{
name = candrabindu;
position = "{420, 670}";
},
{
name = candrabinduCXT;
position = "{740, 670}";
},
{
name = top;
position = "{458, 475}";
}
);
background = {
paths = (
{
closed = 1;
nodes = (
"660 538 LINE",
"685 587 LINE",
"620 670 LINE",
"-12 670 LINE",
"-37 621 LINE",
"28 538 LINE"
);
},
{
closed = 1;
nodes = (
"362 361 LINE",
"528 343 LINE",
"528 486 LINE",
"408 568 LINE",
"362 599 LINE"
);
},
{
closed = 1;
nodes = (
"3 164 LINE",
"113 13 OFFCURVE",
"237 -73 OFFCURVE",
"364 -73 CURVE SMOOTH",
"479 -73 OFFCURVE",
"593 -3 OFFCURVE",
"593 118 CURVE SMOOTH",
"593 208 OFFCURVE",
"531 282 OFFCURVE",
"413 324 CURVE",
"222 276 LINE",
"215 283 OFFCURVE",
"211 292 OFFCURVE",
"211 301 CURVE SMOOTH",
"211 322 OFFCURVE",
"232 343 OFFCURVE",
"268 343 CURVE",
"528 343 LINE",
"431 486 LINE",
"233 486 LINE SMOOTH",
"113 486 OFFCURVE",
"54 423 OFFCURVE",
"54 351 CURVE SMOOTH",
"54 260 OFFCURVE",
"148 172 OFFCURVE",
"302 119 CURVE",
"458 168 LINE",
"452 126 OFFCURVE",
"391 74 OFFCURVE",
"310 74 CURVE SMOOTH",
"240 74 OFFCURVE",
"156 112 OFFCURVE",
"79 228 CURVE"
);
},
{
closed = 1;
nodes = (
"4 185 LINE",
"117 18 OFFCURVE",
"245 -48 OFFCURVE",
"370 -48 CURVE SMOOTH",
"515 -48 OFFCURVE",
"598 40 OFFCURVE",
"598 133 CURVE SMOOTH",
"598 208 OFFCURVE",
"543 300 OFFCURVE",
"425 332 CURVE",
"239 293 LINE",
"226 302 OFFCURVE",
"217 312 OFFCURVE",
"217 325 CURVE SMOOTH",
"217 343 OFFCURVE",
"235 353 OFFCURVE",
"276 353 CURVE",
"543 353 LINE",
"444 498 LINE",
"255 498 LINE SMOOTH",
"124 498 OFFCURVE",
"62 440 OFFCURVE",
"62 366 CURVE SMOOTH",
"62 274 OFFCURVE",
"158 186 OFFCURVE",
"300 134 CURVE",
"467 178 LINE",
"453 122 OFFCURVE",
"386 99 OFFCURVE",
"327 99 CURVE SMOOTH",
"231 99 OFFCURVE",
"140 162 OFFCURVE",
"82 251 CURVE"
);
}
);
};
layerId = "818F884A-9448-4DD2-A77B-976162CCCBC7";
name = Bold;
paths = (
{
closed = 1;
nodes = (
"4 179 LINE",
"117 12 OFFCURVE",
"246 -77 OFFCURVE",
"380 -77 CURVE SMOOTH",
"514 -77 OFFCURVE",
"599 11 OFFCURVE",
"599 111 CURVE SMOOTH",
"599 187 OFFCURVE",
"550 279 OFFCURVE",
"425 325 CURVE",
"239 287 LINE",
"223 299 OFFCURVE",
"219 310 OFFCURVE",
"219 319 CURVE SMOOTH",
"219 341 OFFCURVE",
"244 353 OFFCURVE",
"285 353 CURVE SMOOTH",
"543 353 LINE",
"444 502 LINE",
"255 502 LINE SMOOTH",
"123 502 OFFCURVE",
"62 444 OFFCURVE",
"62 368 CURVE SMOOTH",
"62 267 OFFCURVE",
"171 174 OFFCURVE",
"330 118 CURVE",
"475 163 LINE",
"462 103 OFFCURVE",
"387 79 OFFCURVE",
"330 79 CURVE SMOOTH",
"235 79 OFFCURVE",
"149 144 OFFCURVE",
"82 245 CURVE"
);
},
{
closed = 1;
nodes = (
"377 371 LINE",
"543 353 LINE",
"543 486 LINE",
"423 568 LINE",
"377 599 LINE"
);
},
{
closed = 1;
nodes = (
"670 538 LINE",
"695 587 LINE",
"630 670 LINE",
"-40 670 LINE",
"-65 621 LINE",
"0 538 LINE"
);
}
);
width = 630;
},
{
associatedMasterId = UUID0;
background = {
paths = (
{
closed = 1;
nodes = (
"113 146 OFFCURVE",
"111 27 OFFCURVE",
"240 7 CURVE",
"265 5 LINE",
"440 -10 OFFCURVE",
"523 76 OFFCURVE",
"523 150 CURVE SMOOTH",
"523 204 OFFCURVE",
"480 274 OFFCURVE",
"400 304 CURVE",
"214 256 LINE",
"196 278 OFFCURVE",
"189 298 OFFCURVE",
"189 313 CURVE SMOOTH",
"189 359 OFFCURVE",
"256 377 OFFCURVE",
"301 377 CURVE SMOOTH",
"470 377 LINE",
"396 454 LINE",
"273 454 LINE SMOOTH",
"172 454 OFFCURVE",
"114 410 OFFCURVE",
"114 351 CURVE SMOOTH",
"114 284 OFFCURVE",
"191 190 OFFCURVE",
"288 177 CURVE",
"451 220 LINE",
"472 129 OFFCURVE",
"360 13 OFFCURVE",
"185 79 CURVE",
"296 31 LINE",
"204 152 LINE"
);
}
);
};
layerId = "260EE672-255D-4D87-B300-9533E911182A";
name = "Regular Jul 10 14, 23:08";
paths = (
{
closed = 1;
nodes = (
"35 219 LINE",
"163 38 OFFCURVE",
"268 -11 OFFCURVE",
"364 -11 CURVE SMOOTH",
"480 -11 OFFCURVE",
"541 61 OFFCURVE",
"541 135 CURVE SMOOTH",
"541 211 OFFCURVE",
"478 280 OFFCURVE",
"383 300 CURVE",
"214 256 LINE",
"196 278 OFFCURVE",
"189 296 OFFCURVE",
"189 311 CURVE SMOOTH",
"189 354 OFFCURVE",
"244 373 OFFCURVE",
"300 373 CURVE SMOOTH",
"487 373 LINE",
"413 454 LINE",
"273 454 LINE SMOOTH",
"172 454 OFFCURVE",
"114 410 OFFCURVE",
"114 351 CURVE SMOOTH",
"114 284 OFFCURVE",
"191 188 OFFCURVE",
"288 175 CURVE",
"288 175 OFFCURVE",
"448 218 OFFCURVE",
"448 218 CURVE",
"498 158 OFFCURVE",
"438 68 OFFCURVE",
"332 68 CURVE SMOOTH",
"258 68 OFFCURVE",
"165 112 OFFCURVE",
"72 246 CURVE"
);
},
{
closed = 1;
nodes = (
"409 384 LINE",
"487 373 LINE",
"487 500 LINE",
"429 551 LINE",
"409 562 LINE"
);
},
{
closed = 1;
nodes = (
"624 538 LINE",
"633 558 LINE",
"603 608 LINE",
"-21 608 LINE",
"-30 588 LINE",
"0 538 LINE"
);
}
);
width = 603;
},
{
associatedMasterId = UUID0;
background = {
paths = (
{
closed = 1;
nodes = (
"35 209 LINE",
"158 35 OFFCURVE",
"254 -26 OFFCURVE",
"362 -26 CURVE SMOOTH",
"483 -26 OFFCURVE",
"540 50 OFFCURVE",
"540 125 CURVE SMOOTH",
"540 205 OFFCURVE",
"474 281 OFFCURVE",
"383 300 CURVE",
"212 246 LINE",
"188 263 OFFCURVE",
"173 283 OFFCURVE",
"173 307 CURVE SMOOTH",
"173 350 OFFCURVE",
"219 373 OFFCURVE",
"280 373 CURVE SMOOTH",
"487 373 LINE",
"413 454 LINE",
"253 454 LINE SMOOTH",
"148 454 OFFCURVE",
"102 400 OFFCURVE",
"102 346 CURVE SMOOTH",
"102 273 OFFCURVE",
"187 179 OFFCURVE",
"288 165 CURVE",
"288 165 OFFCURVE",
"448 218 OFFCURVE",
"448 218 CURVE",
"498 157 OFFCURVE",
"446 53 OFFCURVE",
"330 53 CURVE SMOOTH",
"249 53 OFFCURVE",
"163 104 OFFCURVE",
"72 236 CURVE"
);
},
{
closed = 1;
nodes = (
"409 384 LINE",
"487 373 LINE",
"487 500 LINE",
"429 551 LINE",
"409 562 LINE"
);
},
{
closed = 1;
nodes = (
"624 538 LINE",
"633 558 LINE",
"603 608 LINE",
"-21 608 LINE",
"-30 588 LINE",
"0 538 LINE"
);
}
);
};
layerId = "4C28A6CB-C9F1-432E-ACD4-FCD622BBAA0F";
name = "(null) Aug 24 14, 16:04";
paths = (
{
closed = 1;
nodes = (
"35 209 LINE",
"150 33 OFFCURVE",
"256 -26 OFFCURVE",
"357 -26 CURVE SMOOTH",
"466 -26 OFFCURVE",
"538 43 OFFCURVE",
"538 126 CURVE SMOOTH",
"538 202 OFFCURVE",
"477 280 OFFCURVE",
"383 300 CURVE",
"212 246 LINE",
"188 263 OFFCURVE",
"173 283 OFFCURVE",
"173 307 CURVE SMOOTH",
"173 350 OFFCURVE",
"219 373 OFFCURVE",
"280 373 CURVE SMOOTH",
"487 373 LINE",
"413 454 LINE",
"253 454 LINE SMOOTH",
"148 454 OFFCURVE",
"102 400 OFFCURVE",
"102 346 CURVE SMOOTH",
"102 273 OFFCURVE",
"187 179 OFFCURVE",
"288 165 CURVE",
"288 165 OFFCURVE",
"448 218 OFFCURVE",
"448 218 CURVE",
"495 151 OFFCURVE",
"442 52 OFFCURVE",
"325 52 CURVE SMOOTH",
"243 52 OFFCURVE",
"155 101 OFFCURVE",
"72 236 CURVE"
);
},
{
closed = 1;
nodes = (
"409 384 LINE",
"487 373 LINE",
"487 500 LINE",
"429 551 LINE",
"409 562 LINE"
);
},
{
closed = 1;
nodes = (
"624 538 LINE",
"633 558 LINE",
"603 608 LINE",
"-21 608 LINE",
"-30 588 LINE",
"0 538 LINE"
);
}
);
width = 603;
}
);
leftKerningGroup = Dda;
rightKerningGroup = Da;
unicode = 0921;
},
{
glyphname = dvDdha;
lastChange = "2014-11-22 14:55:46 +0000";
layers = (
{
anchors = (
{
name = bindu;
position = "{404, 630}";
},
{
name = bottom;
position = "{352, -20}";
},
{
name = candrabindu;
position = "{397, 630}";
},
{
name = candrabinduCXT;
position = "{558, 630}";
},
{
name = top;
position = "{406, 468}";
}
);
background = {
paths = (
{
closed = 1;
nodes = (
"366 42 LINE",
"341 76 OFFCURVE",
"328 102 OFFCURVE",
"328 134 CURVE SMOOTH",
"328 187 OFFCURVE",
"363 214 OFFCURVE",
"395 214 CURVE SMOOTH",
"426 214 OFFCURVE",
"448 188 OFFCURVE",
"448 154 CURVE SMOOTH",
"448 97 OFFCURVE",
"387 55 OFFCURVE",
"300 55 CURVE SMOOTH",
"267 55 OFFCURVE",
"236 61 OFFCURVE",
"207 72 CURVE",
"158 108 OFFCURVE",
"130 157 OFFCURVE",
"130 209 CURVE SMOOTH",
"130 277 OFFCURVE",
"178 331 OFFCURVE",
"276 331 CURVE SMOOTH",
"443 331 LINE",
"380 414 LINE",
"266 414 LINE SMOOTH",
"118 414 OFFCURVE",
"52 330 OFFCURVE",
"52 243 CURVE SMOOTH",
"52 121 OFFCURVE",
"181 -17 OFFCURVE",
"340 -17 CURVE SMOOTH",
"457 -17 OFFCURVE",
"508 57 OFFCURVE",
"508 119 CURVE SMOOTH",
"508 187 OFFCURVE",
"445 270 OFFCURVE",
"364 270 CURVE SMOOTH",
"304 270 OFFCURVE",
"255 224 OFFCURVE",
"255 160 CURVE SMOOTH",
"255 134 OFFCURVE",
"263 109 OFFCURVE",
"279 85 CURVE",
"353 33 LINE"
);
},
{
closed = 1;
nodes = (
"365 342 LINE",
"443 331 LINE",
"443 500 LINE",
"385 551 LINE",
"365 562 LINE"
);
},
{
closed = 1;
nodes = (
"579 538 LINE",
"588 558 LINE",
"558 608 LINE",
"-21 608 LINE",
"-30 588 LINE",
"0 538 LINE"
);
}
);
};
layerId = UUID0;
name = Regular;
paths = (
{
closed = 1;
nodes = (
"386 32 LINE",
"361 66 OFFCURVE",
"348 92 OFFCURVE",
"348 124 CURVE SMOOTH",
"348 177 OFFCURVE",
"383 204 OFFCURVE",
"415 204 CURVE SMOOTH",
"446 204 OFFCURVE",
"468 178 OFFCURVE",
"468 144 CURVE SMOOTH",
"468 86 OFFCURVE",
"401 45 OFFCURVE",
"320 45 CURVE SMOOTH",
"272 45 OFFCURVE",
"233 59 OFFCURVE",
"197 72 CURVE",
"151 111 OFFCURVE",
"128 162 OFFCURVE",
"128 208 CURVE SMOOTH",
"128 274 OFFCURVE",
"176 341 OFFCURVE",
"276 341 CURVE SMOOTH",
"447 341 LINE",
"384 424 LINE",
"266 424 LINE SMOOTH",
"118 424 OFFCURVE",
"50 332 OFFCURVE",
"50 241 CURVE SMOOTH",
"50 114 OFFCURVE",
"182 -30 OFFCURVE",
"352 -30 CURVE SMOOTH",
"475 -30 OFFCURVE",
"523 46 OFFCURVE",
"523 109 CURVE SMOOTH",
"523 176 OFFCURVE",
"468 264 OFFCURVE",
"382 264 CURVE SMOOTH",
"318 264 OFFCURVE",
"270 215 OFFCURVE",
"270 151 CURVE SMOOTH",
"270 125 OFFCURVE",
"278 100 OFFCURVE",
"294 76 CURVE",
"373 23 LINE"
);
},
{
closed = 1;
nodes = (
"369 352 LINE",
"447 341 LINE",
"447 500 LINE",
"389 551 LINE",
"369 562 LINE"
);
},
{
closed = 1;
nodes = (
"579 538 LINE",
"588 558 LINE",
"558 608 LINE",
"-21 608 LINE",
"-30 588 LINE",
"0 538 LINE"
);
}
);
width = 558;
},
{
anchors = (
{
name = bindu;
position = "{419, 670}";
},
{
name = bottom;
position = "{339, -89}";
},
{
name = candrabindu;
position = "{399, 670}";
},
{
name = candrabinduCXT;
position = "{689, 670}";
},
{
name = top;
position = "{449, 475}";
}
);
background = {
paths = (
{
closed = 1;
nodes = (
"506 207 LINE",
"438 132 OFFCURVE",
"303 81 OFFCURVE",
"221 118 CURVE",
"210 134 OFFCURVE",
"204 147 OFFCURVE",
"204 166 CURVE SMOOTH",
"204 212 OFFCURVE",
"240 251 OFFCURVE",
"325 251 CURVE SMOOTH",
"496 251 LINE",
"410 425 LINE",
"275 425 LINE SMOOTH",
"94 425 OFFCURVE",
"27 331 OFFCURVE",
"27 235 CURVE SMOOTH",
"27 68 OFFCURVE",
"229 -61 OFFCURVE",
"374 -61 CURVE SMOOTH",
"453 -61 OFFCURVE",
"552 -22 OFFCURVE",
"609 52 CURVE"
);
}
);
};
layerId = "818F884A-9448-4DD2-A77B-976162CCCBC7";
name = Bold;
paths = (
{
closed = 1;
nodes = (
"469 37 LINE",
"439 76 OFFCURVE",
"429 108 OFFCURVE",
"429 132 CURVE SMOOTH",
"429 164 OFFCURVE",
"448 181 OFFCURVE",
"465 181 CURVE SMOOTH",
"479 181 OFFCURVE",
"492 170 OFFCURVE",
"492 146 CURVE SMOOTH",
"492 92 OFFCURVE",
"426 60 OFFCURVE",
"353 60 CURVE SMOOTH",
"312 60 OFFCURVE",
"268 70 OFFCURVE",
"231 90 CURVE",
"208 116 OFFCURVE",
"198 148 OFFCURVE",
"198 178 CURVE SMOOTH",
"198 240 OFFCURVE",
"243 298 OFFCURVE",
"335 298 CURVE SMOOTH",
"534 298 LINE",
"448 465 LINE",
"285 465 LINE SMOOTH",
"96 465 OFFCURVE",
"24 350 OFFCURVE",
"24 245 CURVE SMOOTH",
"24 59 OFFCURVE",
"247 -88 OFFCURVE",
"411 -88 CURVE SMOOTH",
"537 -88 OFFCURVE",
"621 -2 OFFCURVE",
"621 87 CURVE SMOOTH",
"621 179 OFFCURVE",
"532 286 OFFCURVE",
"408 286 CURVE SMOOTH",
"333 286 OFFCURVE",
"271 247 OFFCURVE",
"271 173 CURVE SMOOTH",
"271 154 OFFCURVE",
"275 132 OFFCURVE",
"286 107 CURVE",
"429 13 LINE"
);
},
{
closed = 1;
nodes = (
"355 320 LINE",
"534 298 LINE",
"534 486 LINE",
"414 568 LINE",
"355 599 LINE"
);
},
{
closed = 1;
nodes = (
"689 538 LINE",
"714 587 LINE",
"649 670 LINE",
"-40 670 LINE",
"-65 621 LINE",
"0 538 LINE"
);
}
);
width = 649;
},
{
associatedMasterId = UUID0;
layerId = "E16F57B7-15AA-42C1-A84F-C701AE03487B";
name = "Regular Jul 6 14, 18:12";
paths = (
{
closed = 1;
nodes = (
"356 42 LINE",
"338 77 OFFCURVE",
"331 105 OFFCURVE",
"331 127 CURVE SMOOTH",
"331 170 OFFCURVE",
"361 190 OFFCURVE",
"392 190 CURVE SMOOTH",
"419 190 OFFCURVE",
"442 171 OFFCURVE",
"442 140 CURVE SMOOTH",
"442 44 OFFCURVE",
"299 33 OFFCURVE",
"204 76 CURVE",
"115 182 OFFCURVE",
"103 332 OFFCURVE",
"276 332 CURVE SMOOTH",
"453 332 LINE",
"390 414 LINE",
"266 414 LINE SMOOTH",
"-91 414 OFFCURVE",
"70 -17 OFFCURVE",
"348 -17 CURVE SMOOTH",
"459 -17 OFFCURVE",
"519 55 OFFCURVE",
"519 129 CURVE SMOOTH",
"519 195 OFFCURVE",
"473 261 OFFCURVE",
"386 261 CURVE SMOOTH",
"289 261 OFFCURVE",
"244 171 OFFCURVE",
"280 85 CURVE",
"343 33 LINE"
);
},
{
closed = 1;
nodes = (
"453 332 LINE",
"453 480 LINE",
"370 553 LINE",
"370 355 LINE"
);
},
{
closed = 1;
nodes = (
"596 518 LINE",
"603 540 LINE",
"559 588 LINE",
"-39 588 LINE",
"-46 566 LINE",
"-2 518 LINE"
);
}
);
width = 555;
}
);
leftKerningGroup = Da;
rightKerningGroup = Tta;
unicode = 0922;
},
{
glyphname = dvNna;
lastChange = "2014-11-22 14:55:46 +0000";
layers = (
{
anchors = (
{
name = bindu;
position = "{537, 630}";
},
{
name = bottom;
position = "{487, 5}";
},
{
name = candrabindu;
position = "{522, 630}";
},
{
name = candrabinduCXT;
position = "{692, 630}";
},
{
name = top;
position = "{537, 468}";
}
);
background = {
paths = (
{
closed = 1;
nodes = (
"693 538 LINE",
"702 558 LINE",
"672 608 LINE",
"-21 608 LINE",
"-30 588 LINE",
"0 538 LINE"
);
},
{
closed = 1;
nodes = (
"499 5 LINE",
"558 -33 LINE",
"582 -26 LINE",
"582 500 LINE",
"524 551 LINE",
"499 562 LINE"
);
},
{
closed = 1;
nodes = (
"318 551 LINE",
"293 562 LINE",
"293 300 LINE SMOOTH",
"293 185 OFFCURVE",
"181 195 OFFCURVE",
"151 245 CURVE",
"151 500 LINE",
"93 551 LINE",
"68 562 LINE",
"68 320 LINE SMOOTH",
"68 228 OFFCURVE",
"185 143 OFFCURVE",
"259 143 CURVE SMOOTH",
"311 143 OFFCURVE",
"376 167 OFFCURVE",
"376 298 CURVE SMOOTH",
"376 500 LINE"
);
}
);
};
guideLines = (
{
angle = 270;
position = "{68, 270}";
}
);
layerId = UUID0;
name = Regular;
paths = (
{
closed = 1;
nodes = (
"693 538 LINE",
"702 558 LINE",
"672 608 LINE",
"-21 608 LINE",
"-30 588 LINE",
"0 538 LINE"
);
},
{
closed = 1;
nodes = (
"499 5 LINE",
"558 -33 LINE",
"582 -26 LINE",
"582 500 LINE",
"524 551 LINE",
"499 562 LINE"
);
},
{
closed = 1;
nodes = (
"318 551 LINE",
"293 562 LINE",
"293 300 LINE SMOOTH",
"293 185 OFFCURVE",
"181 196 OFFCURVE",
"151 255 CURVE",
"151 500 LINE",
"93 551 LINE",
"68 562 LINE",
"68 340 LINE SMOOTH",
"68 248 OFFCURVE",
"175 143 OFFCURVE",
"259 143 CURVE SMOOTH",
"311 143 OFFCURVE",
"376 167 OFFCURVE",
"376 298 CURVE SMOOTH",
"376 500 LINE"
);
}
);
width = 672;
},
{
anchors = (
{
name = bindu;
position = "{613, 670}";
},
{
name = bottom;
position = "{503, 0}";
},
{
name = candrabindu;
position = "{593, 670}";
},
{
name = candrabinduCXT;
position = "{913, 670}";
},
{
name = top;
position = "{608, 475}";
}
);
background = {
paths = (
{
closed = 1;
nodes = (
"448 36 LINE",
"557 -23 LINE",
"614 -6 LINE",
"614 489 LINE",
"514 567 LINE",
"448 598 LINE"
);
},
{
closed = 1;
nodes = (
"758 537 LINE",
"783 587 LINE",
"718 669 LINE",
"-190 669 LINE",
"-215 620 LINE",
"-150 537 LINE"
);
},
{
closed = 1;
nodes = (
"445 488 LINE",
"349 564 LINE",
"282 576 LINE",
"282 289 LINE SMOOTH",
"282 198 OFFCURVE",
"261 181 OFFCURVE",
"205 195 CURVE",
"205 489 LINE",
"79 588 LINE",
"35 596 LINE",
"35 291 LINE SMOOTH",
"35 197 OFFCURVE",
"223 84 OFFCURVE",
"286 84 CURVE SMOOTH",
"351 84 OFFCURVE",
"445 121 OFFCURVE",
"445 265 CURVE SMOOTH"
);
}
);
};
layerId = "818F884A-9448-4DD2-A77B-976162CCCBC7";
name = Bold;
paths = (
{
closed = 1;
nodes = (
"823 538 LINE",
"848 587 LINE",
"783 670 LINE",
"-60 670 LINE",
"-85 621 LINE",
"-20 538 LINE"
);
},
{
closed = 1;
nodes = (
"527 23 LINE",
"659 -46 LINE",
"713 -19 LINE",
"713 486 LINE",
"593 568 LINE",
"527 599 LINE"
);
},
{
closed = 1;
nodes = (
"341 568 LINE",
"282 599 LINE",
"282 298 LINE SMOOTH",
"282 247 OFFCURVE",
"230 239 OFFCURVE",
"207 258 CURVE",
"207 486 LINE",
"97 568 LINE",
"31 599 LINE",
"31 373 LINE SMOOTH",
"31 245 OFFCURVE",
"178 114 OFFCURVE",
"309 114 CURVE SMOOTH",
"395 114 OFFCURVE",
"461 171 OFFCURVE",
"461 302 CURVE SMOOTH",
"461 486 LINE"
);
}
);
width = 783;
},
{
associatedMasterId = UUID0;
layerId = "B165B35F-D7A5-40FE-BD74-A67EAAE60E87";
name = "Regular Jul 6 14, 18:25";
paths = (
{
closed = 1;
nodes = (
"764 518 LINE",
"770 540 LINE",
"727 588 LINE",
"-57 588 LINE",
"-63 566 LINE",
"-20 518 LINE"
);
},
{
closed = 1;
nodes = (
"313 270 LINE",
"396 262 LINE",
"396 480 LINE",
"313 553 LINE"
);
},
{
closed = 1;
nodes = (
"520 15 LINE",
"531 -3 OFFCURVE",
"548 -17 OFFCURVE",
"569 -23 CURVE",
"603 -16 LINE",
"603 480 LINE",
"520 553 LINE"
);
},
{
closed = 1;
nodes = (
"70 559 LINE",
"60 471 OFFCURVE",
"50 311 OFFCURVE",
"82 233 CURVE SMOOTH",
"94 203 OFFCURVE",
"118 184 OFFCURVE",
"140 168 CURVE SMOOTH",
"169 145 OFFCURVE",
"211 119 OFFCURVE",
"231 112 CURVE",
"285 97 OFFCURVE",
"396 112 OFFCURVE",
"396 262 CURVE",
"313 270 LINE",
"313 175 OFFCURVE",
"257 163 OFFCURVE",
"171 195 CURVE",
"139 273 OFFCURVE",
"148 437 OFFCURVE",
"153 485 CURVE"
);
}
);
width = 716;
},
{
associatedMasterId = "818F884A-9448-4DD2-A77B-976162CCCBC7";
background = {
paths = (
{
closed = 1;
nodes = (
"498 36 LINE",
"607 -23 LINE",
"664 -6 LINE",
"664 489 LINE",
"564 567 LINE",
"498 598 LINE"
);
},
{
closed = 1;
nodes = (
"808 537 LINE",
"833 587 LINE",
"768 669 LINE",
"-140 669 LINE",
"-165 620 LINE",
"-100 537 LINE"
);
},
{
closed = 1;
nodes = (
"495 488 LINE",
"399 564 LINE",
"332 576 LINE",
"332 289 LINE SMOOTH",
"332 198 OFFCURVE",
"311 181 OFFCURVE",
"255 195 CURVE",
"255 489 LINE",
"129 588 LINE",
"85 596 LINE",
"85 291 LINE SMOOTH",
"85 197 OFFCURVE",
"273 84 OFFCURVE",
"336 84 CURVE SMOOTH",
"401 84 OFFCURVE",
"495 121 OFFCURVE",
"495 265 CURVE SMOOTH"
);
}
);
};
layerId = "7FB16E2B-B6A3-4695-901A-7E507AD4DA6B";
name = "Bold Aug 21 14, 23:12";
paths = (
{
closed = 1;
nodes = (
"421 385 LINE",
"421 315 OFFCURVE",
"385 254 OFFCURVE",
"321 254 CURVE SMOOTH",
"304 254 OFFCURVE",
"286 258 OFFCURVE",
"267 268 CURVE",
"267 326 LINE",
"75 363 LINE",
"75 235 OFFCURVE",
"252 104 OFFCURVE",
"367 104 CURVE SMOOTH",
"448 104 OFFCURVE",
"525 170 OFFCURVE",
"569 286 CURVE"
);
},
{
closed = 1;
nodes = (
"713 538 LINE",
"738 587 LINE",
"673 670 LINE",
"-40 670 LINE",
"-65 621 LINE",
"0 538 LINE"
);
},
{
closed = 1;
nodes = (
"407 23 LINE",
"539 -46 LINE",
"593 -19 LINE",
"593 486 LINE",
"473 568 LINE",
"407 599 LINE"
);
},
{
closed = 1;
nodes = (
"75 363 LINE",
"267 326 LINE",
"267 486 LINE",
"147 568 LINE",
"75 599 LINE"
);
}
);
width = 722;
}
);
leftKerningGroup = Pa;
unicode = 0923;
},
{
glyphname = dvTa;
lastChange = "2014-11-22 14:55:46 +0000";
layers = (
{
anchors = (
{
name = bindu;
position = "{441, 630}";
},
{
name = bottom;
position = "{391, 5}";
},
{
name = candrabindu;
position = "{426, 630}";
},
{
name = candrabinduCXT;
position = "{596, 630}";
},
{
name = top;
position = "{441, 468}";
}
);
background = {
paths = (
{
closed = 1;
nodes = (
"398 15 LINE",
"409 -3 OFFCURVE",
"426 -17 OFFCURVE",
"447 -23 CURVE",
"481 -16 LINE",
"481 480 LINE",
"398 553 LINE"
);
},
{
closed = 1;
nodes = (
"435 391 LINE",
"227 391 LINE SMOOTH",
"126 391 OFFCURVE",
"38 354 OFFCURVE",
"38 257 CURVE SMOOTH",
"38 170 OFFCURVE",
"125 63 OFFCURVE",
"232 -28 CURVE",
"268 7 LINE",
"171 112 OFFCURVE",
"125 171 OFFCURVE",
"125 235 CURVE SMOOTH",
"125 296 OFFCURVE",
"192 310 OFFCURVE",
"262 310 CURVE SMOOTH",
"324 310 OFFCURVE",
"394 308 OFFCURVE",
"436 299 CURVE"
);
}
);
};
layerId = UUID0;
name = Regular;
paths = (
{
closed = 1;
nodes = (
"440 408 LINE",
"239 408 LINE SMOOTH",
"98 408 OFFCURVE",
"43 336 OFFCURVE",
"43 258 CURVE SMOOTH",
"43 167 OFFCURVE",
"118 66 OFFCURVE",
"227 -38 CURVE",
"264 -3 LINE",
"155 104 OFFCURVE",
"124 171 OFFCURVE",
"124 222 CURVE SMOOTH",
"124 287 OFFCURVE",
"172 327 OFFCURVE",
"280 327 CURVE SMOOTH",
"441 327 LINE"
);
},
{
closed = 1;
nodes = (
"597 538 LINE",
"606 558 LINE",
"576 608 LINE",
"-21 608 LINE",
"-30 588 LINE",
"0 538 LINE"
);
},
{
closed = 1;
nodes = (
"403 5 LINE",
"462 -33 LINE",
"486 -26 LINE",
"486 500 LINE",
"428 551 LINE",
"403 562 LINE"
);
}
);
width = 576;
},
{
anchors = (
{
name = bindu;
position = "{475, 670}";
},
{
name = bottom;
position = "{365, 0}";
},
{
name = candrabindu;
position = "{455, 670}";
},
{
name = candrabinduCXT;
position = "{775, 670}";
},
{
name = top;
position = "{470, 475}";
}
);
layerId = "818F884A-9448-4DD2-A77B-976162CCCBC7";
name = Bold;
paths = (
{
closed = 1;
nodes = (
"427 456 LINE",
"247 456 LINE SMOOTH",
"94 456 OFFCURVE",
"21 371 OFFCURVE",
"21 274 CURVE SMOOTH",
"21 170 OFFCURVE",
"105 65 OFFCURVE",
"224 -48 CURVE",
"322 35 LINE",
"247 110 OFFCURVE",
"206 158 OFFCURVE",
"206 206 CURVE SMOOTH",
"206 248 OFFCURVE",
"237 279 OFFCURVE",
"298 279 CURVE SMOOTH",
"438 279 LINE"
);
},
{
closed = 1;
nodes = (
"685 538 LINE",
"710 587 LINE",
"645 670 LINE",
"-40 670 LINE",
"-65 621 LINE",
"0 538 LINE"
);
},
{
closed = 1;
nodes = (
"389 23 LINE",
"521 -46 LINE",
"575 -19 LINE",
"575 486 LINE",
"455 568 LINE",
"389 599 LINE"
);
}
);
width = 645;
},
{
associatedMasterId = UUID0;
layerId = "0AFE99E2-0DBB-47DF-B289-48CBD957CBC5";
name = "Regular Jul 8 14, 16:50";
paths = (
{
closed = 1;
nodes = (
"636 518 LINE",
"643 540 LINE",
"600 588 LINE",
"-74 588 LINE",
"-81 566 LINE",
"-38 518 LINE"
);
},
{
closed = 1;
nodes = (
"383 15 LINE",
"394 -3 OFFCURVE",
"411 -17 OFFCURVE",
"432 -23 CURVE",
"466 -16 LINE",
"466 480 LINE",
"383 553 LINE"
);
},
{
closed = 1;
nodes = (
"420 391 LINE",
"212 391 LINE SMOOTH",
"111 391 OFFCURVE",
"23 354 OFFCURVE",
"23 257 CURVE SMOOTH",
"23 170 OFFCURVE",
"110 63 OFFCURVE",
"217 -28 CURVE",
"253 7 LINE",
"156 112 OFFCURVE",
"110 171 OFFCURVE",
"110 235 CURVE SMOOTH",
"110 296 OFFCURVE",
"177 310 OFFCURVE",
"247 310 CURVE SMOOTH",
"309 310 OFFCURVE",
"379 308 OFFCURVE",
"421 299 CURVE"
);
}
);
width = 573;
}
);
leftKerningGroup = La;
unicode = 0924;
},
{
glyphname = dvTha;
lastChange = "2014-11-22 14:55:46 +0000";
layers = (
{
anchors = (
{
name = bindu;
position = "{521, 670}";
},
{
name = bottom;
position = "{411, 0}";
},
{
name = candrabindu;
position = "{501, 670}";
},
{
name = candrabinduCXT;
position = "{821, 670}";
},
{
name = top;
position = "{516, 475}";
}
);
background = {
paths = (
{
closed = 1;
nodes = (
"25 336 LINE",
"102 153 OFFCURVE",
"229 63 OFFCURVE",
"339 63 CURVE SMOOTH",
"395 63 OFFCURVE",
"451 86 OFFCURVE",
"498 126 CURVE",
"427 309 LINE",
"393 245 OFFCURVE",
"320 197 OFFCURVE",
"238 197 CURVE",
"219 238 OFFCURVE",
"205 289 OFFCURVE",
"204 330 CURVE"
);
},
{
closed = 1;
nodes = (
"25 336 LINE",
"120 229 LINE",
"337 249 OFFCURVE",
"409 347 OFFCURVE",
"409 440 CURVE SMOOTH",
"409 568 OFFCURVE",
"292 709 OFFCURVE",
"161 709 CURVE SMOOTH",
"81 709 OFFCURVE",
"20 643 OFFCURVE",
"20 577 CURVE SMOOTH",
"20 525 OFFCURVE",
"58 464 OFFCURVE",
"148 415 CURVE",
"202 463 LINE",
"182 481 OFFCURVE",
"174 502 OFFCURVE",
"174 522 CURVE SMOOTH",
"174 560 OFFCURVE",
"206 591 OFFCURVE",
"256 575 CURVE",
"271 557 OFFCURVE",
"267 537 OFFCURVE",
"267 520 CURVE SMOOTH",
"267 456 OFFCURVE",
"174 404 OFFCURVE",
"46 392 CURVE"
);
}
);
};
layerId = "818F884A-9448-4DD2-A77B-976162CCCBC7";
name = Bold;
paths = (
{
closed = 1;
nodes = (
"15 336 LINE",
"92 153 OFFCURVE",
"229 63 OFFCURVE",
"349 63 CURVE SMOOTH",
"410 63 OFFCURVE",
"461 86 OFFCURVE",
"508 126 CURVE",
"437 309 LINE",
"403 245 OFFCURVE",
"322 203 OFFCURVE",
"238 197 CURVE",
"213 237 OFFCURVE",
"190 289 OFFCURVE",
"184 330 CURVE"
);
},
{
closed = 1;
nodes = (
"731 538 LINE",
"756 587 LINE",
"691 670 LINE",
"395 670 LINE",
"370 621 LINE",
"435 538 LINE"
);
},
{
closed = 1;
nodes = (
"435 23 LINE",
"567 -46 LINE",
"621 -19 LINE",
"621 486 LINE",
"501 568 LINE",
"435 599 LINE"
);
},
{
closed = 1;
nodes = (
"15 336 LINE",
"110 227 LINE",
"336 247 OFFCURVE",
"409 358 OFFCURVE",
"409 450 CURVE SMOOTH",
"409 567 OFFCURVE",
"290 694 OFFCURVE",
"167 694 CURVE SMOOTH",
"79 694 OFFCURVE",
"23 630 OFFCURVE",
"23 569 CURVE SMOOTH",
"23 521 OFFCURVE",
"56 470 OFFCURVE",
"130 419 CURVE",
"199 461 LINE",
"184 478 OFFCURVE",
"176 498 OFFCURVE",
"176 517 CURVE SMOOTH",
"176 562 OFFCURVE",
"221 578 OFFCURVE",
"244 563 CURVE",
"251 550 OFFCURVE",
"254 538 OFFCURVE",
"254 524 CURVE SMOOTH",
"254 449 OFFCURVE",
"173 407 OFFCURVE",
"36 392 CURVE"
);
}
);
width = 691;
},
{
associatedMasterId = UUID0;
layerId = "FD7FE95F-894E-476C-B975-F06F1F9852B1";
name = "Regular Jul 8 14, 17:07";
paths = (
{
closed = 1;
nodes = (
"46 259 LINE",
"150 136 OFFCURVE",
"237 85 OFFCURVE",
"299 75 CURVE SMOOTH",
"359 65 OFFCURVE",
"442 119 OFFCURVE",
"461 201 CURVE",
"445 353 LINE",
"458 229 OFFCURVE",
"339 132 OFFCURVE",
"257 147 CURVE SMOOTH",
"215 155 OFFCURVE",
"178 185 OFFCURVE",
"164 257 CURVE",
"164 257 OFFCURVE",
"323 303 OFFCURVE",
"323 433 CURVE SMOOTH",
"321 473 OFFCURVE",
"296 511 OFFCURVE",
"264 541 CURVE SMOOTH",
"222 580 OFFCURVE",
"167 607 OFFCURVE",
"134 607 CURVE SMOOTH",
"81 607 OFFCURVE",
"35 568 OFFCURVE",
"35 518 CURVE SMOOTH",
"35 471 OFFCURVE",
"72 418 OFFCURVE",
"173 375 CURVE",
"195 410 LINE",
"146 440 OFFCURVE",
"126 468 OFFCURVE",
"126 491 CURVE SMOOTH",
"126 517 OFFCURVE",
"148 534 OFFCURVE",
"185 534 CURVE",
"233 534 OFFCURVE",
"247 485 OFFCURVE",
"247 460 CURVE SMOOTH",
"247 394 OFFCURVE",
"159 333 OFFCURVE",
"48 300 CURVE"
);
},
{
closed = 1;
nodes = (
"666 518 LINE",
"672 540 LINE",
"629 588 LINE",
"307 588 LINE",
"301 566 LINE",
"344 518 LINE"
);
},
{
closed = 1;
nodes = (
"437 15 LINE",
"448 -3 OFFCURVE",
"465 -17 OFFCURVE",
"486 -23 CURVE",
"520 -16 LINE",
"520 480 LINE",
"455 537 LINE",
"437 553 LINE"
);
}
);
width = 621;
},
{
associatedMasterId = UUID0;
background = {
paths = (
{
closed = 1;
nodes = (
"438 5 LINE",
"497 -33 LINE",
"521 -26 LINE",
"521 500 LINE",
"463 551 LINE",
"438 562 LINE"
);
},
{
closed = 1;
nodes = (
"361 341 LINE",
"312 399 LINE",
"167 420 OFFCURVE",
"99 336 OFFCURVE",
"99 274 CURVE SMOOTH",
"99 225 OFFCURVE",
"142 175 OFFCURVE",
"183 143 CURVE SMOOTH",
"219 115 OFFCURVE",
"269 89 OFFCURVE",
"324 89 CURVE SMOOTH",
"384 89 OFFCURVE",
"450 120 OFFCURVE",
"495 184 CURVE",
"471 286 LINE",
"428 176 OFFCURVE",
"281 138 OFFCURVE",
"211 168 CURVE",
"135 239 OFFCURVE",
"193 350 OFFCURVE",
"351 321 CURVE"
);
}
);
};
layerId = "58D3E912-77CA-402F-9F75-9A7B5B3CB695";
name = "Regular Jul 8 14, 19:58";
paths = (
{
closed = 1;
nodes = (
"651 538 LINE",
"660 558 LINE",
"630 608 LINE",
"324 608 LINE",
"315 588 LINE",
"345 538 LINE"
);
},
{
closed = 1;
nodes = (
"457 5 LINE",
"516 -33 LINE",
"540 -26 LINE",
"540 500 LINE",
"482 551 LINE",
"457 562 LINE"
);
},
{
closed = 1;
nodes = (
"88 249 LINE",
"217 265 OFFCURVE",
"338 327 OFFCURVE",
"338 437 CURVE",
"335 515 OFFCURVE",
"250 617 OFFCURVE",
"164 617 CURVE SMOOTH",
"114 617 OFFCURVE",
"60 584 OFFCURVE",
"60 521 CURVE SMOOTH",
"60 492 OFFCURVE",
"72 429 OFFCURVE",
"168 385 CURVE",
"194 420 LINE",
"94 477 OFFCURVE",
"156 549 OFFCURVE",
"189 551 CURVE",
"221 551 OFFCURVE",
"267 526 OFFCURVE",
"267 467 CURVE SMOOTH",
"267 397 OFFCURVE",
"201 353 OFFCURVE",
"75 320 CURVE",
"65 279 LINE",
"73 270 LINE"
);
},
{
closed = 1;
nodes = (
"65 279 LINE",
"105 216 OFFCURVE",
"150 169 OFFCURVE",
"197 136 CURVE SMOOTH",
"237 108 OFFCURVE",
"281 89 OFFCURVE",
"326 89 CURVE SMOOTH",
"383 89 OFFCURVE",
"452 119 OFFCURVE",
"497 184 CURVE",
"473 286 LINE",
"442 205 OFFCURVE",
"346 159 OFFCURVE",
"284 159 CURVE SMOOTH",
"220 159 OFFCURVE",
"158 209 OFFCURVE",
"158 294 CURVE"
);
}
);
width = 630;
},
{
associatedMasterId = UUID0;
background = {
paths = (
{
closed = 1;
nodes = (
"356 340 LINE",
"307 398 LINE",
"162 419 OFFCURVE",
"96 344 OFFCURVE",
"96 276 CURVE SMOOTH",
"96 222 OFFCURVE",
"138 173 OFFCURVE",
"178 142 CURVE SMOOTH",
"214 114 OFFCURVE",
"264 88 OFFCURVE",
"319 88 CURVE SMOOTH",
"379 88 OFFCURVE",
"445 119 OFFCURVE",
"490 183 CURVE",
"466 285 LINE",
"423 175 OFFCURVE",
"276 137 OFFCURVE",
"206 167 CURVE",
"130 238 OFFCURVE",
"188 349 OFFCURVE",
"346 320 CURVE"
);
},
{
closed = 1;
nodes = (
"459 5 LINE",
"518 -33 LINE",
"542 -26 LINE",
"542 500 LINE",
"484 551 LINE",
"459 562 LINE"
);
}
);
};
layerId = "06B5C334-511B-4CA0-AB32-847EACFAAEE4";
name = "Regular Jul 10 14, 14:07";
paths = (
{
closed = 1;
nodes = (
"651 538 LINE",
"660 558 LINE",
"630 608 LINE",
"344 608 LINE",
"335 588 LINE",
"365 538 LINE"
);
},
{
closed = 1;
nodes = (
"457 5 LINE",
"516 -33 LINE",
"540 -26 LINE",
"540 500 LINE",
"482 551 LINE",
"457 562 LINE"
);
},
{
closed = 1;
nodes = (
"98 249 LINE",
"227 255 OFFCURVE",
"338 327 OFFCURVE",
"338 437 CURVE",
"335 527 OFFCURVE",
"247 617 OFFCURVE",
"166 617 CURVE SMOOTH",
"112 617 OFFCURVE",
"64 577 OFFCURVE",
"64 521 CURVE SMOOTH",
"64 486 OFFCURVE",
"83 438 OFFCURVE",
"168 385 CURVE",
"194 420 LINE",
"98 467 OFFCURVE",
"158 571 OFFCURVE",
"223 559 CURVE",
"254 536 OFFCURVE",
"267 498 OFFCURVE",
"267 468 CURVE SMOOTH",
"267 397 OFFCURVE",
"194 342 OFFCURVE",
"68 319 CURVE",
"68 279 LINE",
"83 270 LINE"
);
},
{
closed = 1;
nodes = (
"68 279 LINE",
"120 169 OFFCURVE",
"234 89 OFFCURVE",
"327 89 CURVE SMOOTH",
"380 89 OFFCURVE",
"448 115 OFFCURVE",
"497 184 CURVE",
"473 286 LINE",
"428 176 OFFCURVE",
"286 137 OFFCURVE",
"213 168 CURVE",
"176 205 OFFCURVE",
"157 242 OFFCURVE",
"158 294 CURVE"
);
}
);
width = 630;
},
{
associatedMasterId = UUID0;
background = {
paths = (
{
closed = 1;
nodes = (
"363 340 LINE",
"314 398 LINE",
"169 419 OFFCURVE",
"103 344 OFFCURVE",
"103 276 CURVE SMOOTH",
"103 222 OFFCURVE",
"145 173 OFFCURVE",
"185 142 CURVE SMOOTH",
"221 114 OFFCURVE",
"271 88 OFFCURVE",
"326 88 CURVE SMOOTH",
"386 88 OFFCURVE",
"452 119 OFFCURVE",
"497 183 CURVE",
"473 285 LINE",
"430 175 OFFCURVE",
"283 137 OFFCURVE",
"213 167 CURVE",
"137 238 OFFCURVE",
"195 349 OFFCURVE",
"353 320 CURVE"
);
},
{
closed = 1;
nodes = (
"446 5 LINE",
"505 -33 LINE",
"529 -26 LINE",
"529 500 LINE",
"471 551 LINE",
"446 562 LINE"
);
}
);
};
layerId = "E2B1E435-BB11-4467-9166-EFE4E41257B4";
name = "Regular Jul 12 14, 15:31";
paths = (
{
closed = 1;
nodes = (
"638 538 LINE",
"647 558 LINE",
"617 608 LINE",
"331 608 LINE",
"322 588 LINE",
"352 538 LINE"
);
},
{
closed = 1;
nodes = (
"444 5 LINE",
"503 -33 LINE",
"527 -26 LINE",
"527 500 LINE",
"469 551 LINE",
"444 562 LINE"
);
},
{
closed = 1;
nodes = (
"75 258 LINE",
"204 254 OFFCURVE",
"341 328 OFFCURVE",
"341 438 CURVE",
"338 538 OFFCURVE",
"249 627 OFFCURVE",
"167 627 CURVE SMOOTH",
"112 627 OFFCURVE",
"61 587 OFFCURVE",
"61 531 CURVE SMOOTH",
"61 496 OFFCURVE",
"80 448 OFFCURVE",
"165 395 CURVE",
"191 430 LINE",
"104 481 OFFCURVE",
"139 579 OFFCURVE",
"220 569 CURVE",
"252 546 OFFCURVE",
"265 499 OFFCURVE",
"265 469 CURVE SMOOTH",
"265 408 OFFCURVE",
"203 354 OFFCURVE",
"70 331 CURVE",
"55 289 LINE",
"70 280 LINE"
);
},
{
closed = 1;
nodes = (
"55 289 LINE",
"105 172 OFFCURVE",
"223 88 OFFCURVE",
"326 88 CURVE SMOOTH",
"387 88 OFFCURVE",
"451 118 OFFCURVE",
"497 183 CURVE",
"466 286 LINE",
"423 175 OFFCURVE",
"283 137 OFFCURVE",
"213 167 CURVE",
"174 201 OFFCURVE",
"151 252 OFFCURVE",
"142 304 CURVE"
);
}
);
width = 617;
},
{
anchors = (
{
name = bindu;
position = "{482, 630}";
},
{
name = bottom;
position = "{432, 5}";
},
{
name = candrabindu;
position = "{467, 630}";
},
{
name = candrabinduCXT;
position = "{637, 630}";
},
{
name = top;
position = "{482, 468}";
}
);
background = {
paths = (
{
closed = 1;
nodes = (
"57 311 LINE",
"106 195 OFFCURVE",
"217 94 OFFCURVE",
"331 94 CURVE SMOOTH",
"380 94 OFFCURVE",
"452 113 OFFCURVE",
"487 189 CURVE",
"456 292 LINE",
"424 172 OFFCURVE",
"283 143 OFFCURVE",
"213 173 CURVE",
"174 207 OFFCURVE",
"154 268 OFFCURVE",
"145 320 CURVE"
);
},
{
closed = 1;
nodes = (
"638 538 LINE",
"647 558 LINE",
"617 608 LINE",
"331 608 LINE",
"322 588 LINE",
"352 538 LINE"
);
},
{
closed = 1;
nodes = (
"444 5 LINE",
"503 -33 LINE",
"527 -26 LINE",
"527 500 LINE",
"469 551 LINE",
"444 562 LINE"
);
},
{
closed = 1;
nodes = (
"85 270 LINE",
"219 267 OFFCURVE",
"337 348 OFFCURVE",
"337 448 CURVE",
"334 558 OFFCURVE",
"246 631 OFFCURVE",
"164 631 CURVE SMOOTH",
"109 631 OFFCURVE",
"61 598 OFFCURVE",
"61 542 CURVE SMOOTH",
"61 507 OFFCURVE",
"80 459 OFFCURVE",
"165 406 CURVE",
"191 441 LINE",
"94 489 OFFCURVE",
"141 585 OFFCURVE",
"220 573 CURVE",
"250 552 OFFCURVE",
"264 516 OFFCURVE",
"264 486 CURVE SMOOTH",
"264 416 OFFCURVE",
"189 358 OFFCURVE",
"70 347 CURVE",
"57 311 LINE"
);
}
);
};
layerId = UUID0;
name = Regular;
paths = (
{
closed = 1;
nodes = (
"57 311 LINE",
"106 195 OFFCURVE",
"217 94 OFFCURVE",
"331 94 CURVE SMOOTH",
"380 94 OFFCURVE",
"452 113 OFFCURVE",
"487 189 CURVE",
"456 292 LINE",
"424 172 OFFCURVE",
"283 143 OFFCURVE",
"213 173 CURVE",
"174 207 OFFCURVE",
"154 268 OFFCURVE",
"145 320 CURVE"
);
},
{
closed = 1;
nodes = (
"638 538 LINE",
"647 558 LINE",
"617 608 LINE",
"341 608 LINE",
"332 588 LINE",
"362 538 LINE"
);
},
{
closed = 1;
nodes = (
"444 5 LINE",
"503 -33 LINE",
"527 -26 LINE",
"527 500 LINE",
"469 551 LINE",
"444 562 LINE"
);
},
{
closed = 1;
nodes = (
"57 311 LINE",
"85 270 LINE",
"219 267 OFFCURVE",
"337 348 OFFCURVE",
"337 448 CURVE",
"334 558 OFFCURVE",
"245 631 OFFCURVE",
"166 631 CURVE SMOOTH",
"109 631 OFFCURVE",
"61 594 OFFCURVE",
"61 537 CURVE SMOOTH",
"61 502 OFFCURVE",
"79 460 OFFCURVE",
"165 406 CURVE",
"190 440 LINE",
"162 458 OFFCURVE",
"136 480 OFFCURVE",
"136 511 CURVE SMOOTH",
"136 546 OFFCURVE",
"168 583 OFFCURVE",
"220 573 CURVE",
"249 553 OFFCURVE",
"264 517 OFFCURVE",
"264 485 CURVE SMOOTH",
"264 412 OFFCURVE",
"187 358 OFFCURVE",
"70 347 CURVE"
);
}
);
width = 617;
},
{
associatedMasterId = UUID0;
background = {
paths = (
{
closed = 1;
nodes = (
"85 252 LINE",
"229 259 OFFCURVE",
"305 317 OFFCURVE",
"304 389 CURVE SMOOTH",
"303 451 OFFCURVE",
"252 512 OFFCURVE",
"149 568 CURVE",
"98 559 LINE",
"187 500 OFFCURVE",
"228 461 OFFCURVE",
"228 420 CURVE SMOOTH",
"228 379 OFFCURVE",
"179 346 OFFCURVE",
"70 331 CURVE",
"57 295 LINE",
"70 280 LINE"
);
},
{
closed = 1;
nodes = (
"57 295 LINE",
"107 186 OFFCURVE",
"222 88 OFFCURVE",
"327 88 CURVE SMOOTH",
"387 88 OFFCURVE",
"452 119 OFFCURVE",
"497 183 CURVE",
"466 286 LINE",
"423 175 OFFCURVE",
"283 137 OFFCURVE",
"213 167 CURVE",
"174 201 OFFCURVE",
"154 252 OFFCURVE",
"145 304 CURVE"
);
}
);
};
layerId = "3483D9FB-6086-4FC3-B6F5-3A31E1866880";
name = "Regular Jul 12 14, 16:01";
paths = (
{
closed = 1;
nodes = (
"638 538 LINE",
"647 558 LINE",
"617 608 LINE",
"331 608 LINE",
"322 588 LINE",
"352 538 LINE"
);
},
{
closed = 1;
nodes = (
"444 5 LINE",
"503 -33 LINE",
"527 -26 LINE",
"527 500 LINE",
"469 551 LINE",
"444 562 LINE"
);
},
{
closed = 1;
nodes = (
"85 254 LINE",
"214 250 OFFCURVE",
"337 327 OFFCURVE",
"337 437 CURVE",
"334 537 OFFCURVE",
"246 627 OFFCURVE",
"164 627 CURVE SMOOTH",
"109 627 OFFCURVE",
"61 587 OFFCURVE",
"61 531 CURVE SMOOTH",
"61 496 OFFCURVE",
"80 448 OFFCURVE",
"165 395 CURVE",
"191 430 LINE",
"95 477 OFFCURVE",
"149 581 OFFCURVE",
"220 569 CURVE",
"250 548 OFFCURVE",
"264 505 OFFCURVE",
"264 475 CURVE SMOOTH",
"264 405 OFFCURVE",
"185 347 OFFCURVE",
"70 331 CURVE",
"55 289 LINE",
"70 280 LINE"
);
},
{
closed = 1;
nodes = (
"55 289 LINE",
"105 182 OFFCURVE",
"222 88 OFFCURVE",
"327 88 CURVE SMOOTH",
"387 88 OFFCURVE",
"452 119 OFFCURVE",
"497 183 CURVE",
"466 286 LINE",
"423 175 OFFCURVE",
"283 137 OFFCURVE",
"213 167 CURVE",
"174 201 OFFCURVE",
"154 252 OFFCURVE",
"145 304 CURVE"
);
}
);
width = 617;
}
);
leftKerningGroup = Ya;
unicode = 0925;
},
{
glyphname = dvDa;
lastChange = "2014-11-22 14:55:46 +0000";
layers = (
{
anchors = (
{
name = bindu;
position = "{361, 630}";
},
{
name = candrabindu;
position = "{386, 630}";
},
{
name = candrabinduCXT;
position = "{546, 630}";
},
{
name = top;
position = "{384, 468}";
}
);
background = {
paths = (
{
closed = 1;
nodes = (
"573 518 LINE",
"579 540 LINE",
"536 588 LINE",
"-44 588 LINE",
"-50 566 LINE",
"-7 518 LINE"
);
},
{
closed = 1;
nodes = (
"315 241 OFFCURVE",
"263 185 OFFCURVE",
"302 85 CURVE",
"302 85 OFFCURVE",
"263 84 OFFCURVE",
"208 96 CURVE",
"123 170 OFFCURVE",
"87 330 OFFCURVE",
"268 330 CURVE SMOOTH",
"436 330 LINE",
"359 412 LINE",
"259 412 LINE SMOOTH",
"-94 412 OFFCURVE",
"57 -22 OFFCURVE",
"359 16 CURVE",
"362 14 LINE",
"560 41 OFFCURVE",
"523 259 OFFCURVE",
"384 247 CURVE SMOOTH"
);
},
{
closed = 1;
nodes = (
"335 171 OFFCURVE",
"391 193 OFFCURVE",
"416 175 CURVE SMOOTH",
"439 158 OFFCURVE",
"442 106 OFFCURVE",
"368 89 CURVE"
);
},
{
closed = 1;
nodes = (
"436 330 LINE",
"436 480 LINE",
"353 553 LINE",
"353 355 LINE"
);
},
{
closed = 1;
nodes = (
"505 -100 LINE",
"382 55 LINE",
"306 72 LINE",
"428 -145 LINE"
);
}
);
};
layerId = UUID0;
name = Regular;
paths = (
{
closed = 1;
nodes = (
"397 135 LINE",
"359 84 OFFCURVE",
"272 64 OFFCURVE",
"200 88 CURVE",
"149 119 OFFCURVE",
"128 169 OFFCURVE",
"128 208 CURVE SMOOTH",
"128 263 OFFCURVE",
"169 329 OFFCURVE",
"268 329 CURVE SMOOTH",
"426 329 LINE",
"349 412 LINE",
"253 412 LINE SMOOTH",
"112 412 OFFCURVE",
"48 330 OFFCURVE",
"48 244 CURVE SMOOTH",
"48 108 OFFCURVE",
"209 2 OFFCURVE",
"326 2 CURVE SMOOTH",
"362 2 OFFCURVE",
"402 12 OFFCURVE",
"435 34 CURVE"
);
},
{
closed = 1;
nodes = (
"343 371 LINE",
"426 330 LINE",
"426 500 LINE",
"368 551 LINE",
"343 562 LINE"
);
},
{
closed = 1;
nodes = (
"567 538 LINE",
"576 558 LINE",
"546 608 LINE",
"-21 608 LINE",
"-30 588 LINE",
"0 538 LINE"
);
},
{
closed = 1;
nodes = (
"350 198 LINE",
"384 30 LINE",
"443 38 LINE",
"475 62 OFFCURVE",
"500 100 OFFCURVE",
"506 123 CURVE",
"416 230 LINE"
);
},
{
closed = 1;
nodes = (
"380 70 LINE",
"442 -180 LINE",
"532 -145 LINE",
"412 101 LINE"
);
}
);
width = 546;
},
{
anchors = (
{
name = bindu;
position = "{399, 670}";
},
{
name = candrabindu;
position = "{389, 670}";
},
{
name = candrabinduCXT;
position = "{729, 670}";
},
{
name = top;
position = "{436, 475}";
}
);
layerId = "818F884A-9448-4DD2-A77B-976162CCCBC7";
name = Bold;
paths = (
{
closed = 1;
nodes = (
"461 207 LINE",
"415 149 OFFCURVE",
"314 93 OFFCURVE",
"224 135 CURVE",
"209 155 OFFCURVE",
"201 178 OFFCURVE",
"201 200 CURVE SMOOTH",
"201 249 OFFCURVE",
"240 295 OFFCURVE",
"328 295 CURVE SMOOTH",
"511 295 LINE",
"425 465 LINE",
"273 465 LINE SMOOTH",
"83 465 OFFCURVE",
"24 351 OFFCURVE",
"24 258 CURVE SMOOTH",
"24 86 OFFCURVE",
"225 -43 OFFCURVE",
"373 -43 CURVE SMOOTH",
"419 -43 OFFCURVE",
"470 -30 OFFCURVE",
"518 -6 CURVE"
);
},
{
closed = 1;
nodes = (
"337 337 LINE",
"511 295 LINE",
"511 486 LINE",
"391 568 LINE",
"337 599 LINE"
);
},
{
closed = 1;
nodes = (
"669 538 LINE",
"694 587 LINE",
"629 670 LINE",
"-40 670 LINE",
"-65 621 LINE",
"0 538 LINE"
);
},
{
closed = 1;
nodes = (
"367 223 LINE",
"400 -26 LINE",
"482 -14 LINE",
"527 1 OFFCURVE",
"585 41 OFFCURVE",
"614 94 CURVE",
"480 262 LINE"
);
},
{
closed = 1;
nodes = (
"399 81 LINE",
"463 -226 LINE",
"638 -155 LINE",
"471 133 LINE"
);
}
);
width = 629;
},
{
associatedMasterId = UUID0;
layerId = "9B476E08-2DB8-4B0A-BFD5-024C2A730C0E";
name = "Regular Jul 8 14, 19:00";
paths = (
{
closed = 1;
nodes = (
"495 -100 LINE",
"372 55 LINE",
"296 72 LINE",
"418 -145 LINE"
);
},
{
closed = 1;
nodes = (
"563 518 LINE",
"569 540 LINE",
"526 588 LINE",
"-54 588 LINE",
"-60 566 LINE",
"-17 518 LINE"
);
},
{
closed = 1;
nodes = (
"305 241 OFFCURVE",
"253 185 OFFCURVE",
"292 85 CURVE",
"292 85 OFFCURVE",
"253 84 OFFCURVE",
"198 96 CURVE",
"113 170 OFFCURVE",
"77 330 OFFCURVE",
"258 330 CURVE SMOOTH",
"426 330 LINE",
"349 412 LINE",
"249 412 LINE SMOOTH",
"-104 412 OFFCURVE",
"47 -22 OFFCURVE",
"349 16 CURVE",
"352 14 LINE",
"550 41 OFFCURVE",
"513 259 OFFCURVE",
"374 247 CURVE SMOOTH"
);
},
{
closed = 1;
nodes = (
"325 171 OFFCURVE",
"381 193 OFFCURVE",
"406 175 CURVE SMOOTH",
"429 158 OFFCURVE",
"432 106 OFFCURVE",
"358 89 CURVE"
);
},
{
closed = 1;
nodes = (
"426 330 LINE",
"426 480 LINE",
"343 553 LINE",
"343 355 LINE"
);
}
);
width = 525;
},
{
associatedMasterId = UUID0;
background = {
paths = (
{
closed = 1;
nodes = (
"563 518 LINE",
"569 540 LINE",
"526 588 LINE",
"-54 588 LINE",
"-60 566 LINE",
"-17 518 LINE"
);
},
{
closed = 1;
nodes = (
"305 241 OFFCURVE",
"253 185 OFFCURVE",
"292 85 CURVE",
"292 85 OFFCURVE",
"253 84 OFFCURVE",
"198 96 CURVE",
"113 170 OFFCURVE",
"77 330 OFFCURVE",
"258 330 CURVE SMOOTH",
"426 330 LINE",
"349 412 LINE",
"249 412 LINE SMOOTH",
"-104 412 OFFCURVE",
"47 -22 OFFCURVE",
"349 16 CURVE",
"352 14 LINE",
"550 41 OFFCURVE",
"513 259 OFFCURVE",
"374 247 CURVE SMOOTH"
);
},
{
closed = 1;
nodes = (
"325 171 OFFCURVE",
"381 193 OFFCURVE",
"406 175 CURVE SMOOTH",
"429 158 OFFCURVE",
"432 106 OFFCURVE",
"358 89 CURVE"
);
},
{
closed = 1;
nodes = (
"426 330 LINE",
"426 480 LINE",
"343 553 LINE",
"343 355 LINE"
);
},
{
closed = 1;
nodes = (
"495 -100 LINE",
"372 55 LINE",
"296 72 LINE",
"418 -145 LINE"
);
}
);
};
layerId = "08976943-FA16-4B65-AD7D-3A336DE40874";
name = "Regular Jul 10 14, 21:37";
paths = (
{
closed = 1;
nodes = (
"437 174 LINE",
"393 95 OFFCURVE",
"263 65 OFFCURVE",
"190 88 CURVE",
"151 118 OFFCURVE",
"118 165 OFFCURVE",
"118 211 CURVE SMOOTH",
"118 262 OFFCURVE",
"159 319 OFFCURVE",
"258 319 CURVE SMOOTH",
"416 319 LINE",
"339 402 LINE",
"243 402 LINE SMOOTH",
"102 402 OFFCURVE",
"38 330 OFFCURVE",
"38 244 CURVE SMOOTH",
"38 108 OFFCURVE",
"199 2 OFFCURVE",
"316 2 CURVE SMOOTH",
"352 2 OFFCURVE",
"392 12 OFFCURVE",
"425 34 CURVE",
"451 54 LINE"
);
},
{
closed = 1;
nodes = (
"333 361 LINE",
"416 320 LINE",
"416 500 LINE",
"358 551 LINE",
"333 562 LINE"
);
},
{
closed = 1;
nodes = (
"562 538 LINE",
"571 558 LINE",
"541 608 LINE",
"-21 608 LINE",
"-30 588 LINE",
"0 538 LINE"
);
},
{
closed = 1;
nodes = (
"426 34 LINE",
"433 38 LINE",
"578 144 OFFCURVE",
"412 280 OFFCURVE",
"344 173 CURVE",
"386 22 LINE"
);
},
{
closed = 1;
nodes = (
"446 -191 LINE",
"536 -156 LINE",
"424 90 LINE",
"388 59 LINE"
);
}
);
width = 541;
}
);
leftKerningGroup = Da;
rightKerningGroup = Da;
unicode = 0926;
},
{
glyphname = dvDha;
lastChange = "2014-11-22 14:55:46 +0000";
layers = (
{
anchors = (
{
name = bindu;
position = "{520, 630}";
},
{
name = bottom;
position = "{470, 5}";
},
{
name = candrabindu;
position = "{505, 630}";
},
{
name = candrabinduCXT;
position = "{675, 630}";
},
{
name = top;
position = "{520, 468}";
}
);
background = {
paths = (
{
closed = 1;
nodes = (
"686 518 LINE",
"690 540 LINE",
"648 588 LINE",
"354 588 LINE",
"349 566 LINE",
"392 518 LINE"
);
},
{
closed = 1;
nodes = (
"462 15 LINE",
"473 -3 OFFCURVE",
"490 -17 OFFCURVE",
"511 -23 CURVE",
"545 -16 LINE",
"545 480 LINE",
"462 553 LINE"
);
},
{
closed = 1;
nodes = (
"369 308 LINE",
"316 359 LINE",
"100 389 OFFCURVE",
"78 201 OFFCURVE",
"166 130 CURVE SMOOTH",
"190 110 OFFCURVE",
"231 84 OFFCURVE",
"249 75 CURVE SMOOTH",
"319 41 OFFCURVE",
"439 55 OFFCURVE",
"470 123 CURVE",
"470 123 OFFCURVE",
"462 259 OFFCURVE",
"462 259 CURVE",
"448 173 OFFCURVE",
"340 106 OFFCURVE",
"259 119 CURVE SMOOTH",
"165 134 OFFCURVE",
"156 321 OFFCURVE",
"355 286 CURVE"
);
},
{
closed = 1;
nodes = (
"285 439 LINE",
"320 459 OFFCURVE",
"324 498 OFFCURVE",
"313 523 CURVE SMOOTH",
"299 555 OFFCURVE",
"219 605 OFFCURVE",
"179 608 CURVE SMOOTH",
"94 614 OFFCURVE",
"42 554 OFFCURVE",
"42 496 CURVE SMOOTH",
"42 409 OFFCURVE",
"125 342 OFFCURVE",
"232 301 CURVE",
"288 313 LINE",
"268 321 OFFCURVE",
"249 330 OFFCURVE",
"234 339 CURVE SMOOTH",
"56 445 OFFCURVE",
"138 556 OFFCURVE",
"211 548 CURVE SMOOTH",
"257 543 OFFCURVE",
"250 504 OFFCURVE",
"224 480 CURVE"
);
},
{
closed = 1;
nodes = (
"99 579 LINE",
"68 547 OFFCURVE",
"49 520 OFFCURVE",
"49 486 CURVE SMOOTH",
"49 423 OFFCURVE",
"118 351 OFFCURVE",
"223 325 CURVE",
"236 364 LINE",
"177 377 OFFCURVE",
"134 408 OFFCURVE",
"134 456 CURVE SMOOTH",
"134 492 OFFCURVE",
"159 525 OFFCURVE",
"192 548 CURVE"
);
}
);
};
layerId = UUID0;
name = Regular;
paths = (
{
closed = 1;
nodes = (
"482 5 LINE",
"541 -33 LINE",
"565 -26 LINE",
"565 500 LINE",
"507 551 LINE",
"482 562 LINE"
);
},
{
closed = 1;
nodes = (
"676 538 LINE",
"685 558 LINE",
"655 608 LINE",
"350 608 LINE",
"341 588 LINE",
"371 538 LINE"
);
},
{
closed = 1;
nodes = (
"335 476 LINE",
"289 588 OFFCURVE",
"232 631 OFFCURVE",
"165 631 CURVE SMOOTH",
"95 631 OFFCURVE",
"43 584 OFFCURVE",
"43 518 CURVE SMOOTH",
"43 449 OFFCURVE",
"100 393 OFFCURVE",
"206 325 CURVE",
"240 359 LINE",
"155 404 OFFCURVE",
"125 453 OFFCURVE",
"125 492 CURVE SMOOTH",
"125 541 OFFCURVE",
"171 573 OFFCURVE",
"217 561 CURVE",
"251 535 OFFCURVE",
"273 499 OFFCURVE",
"295 454 CURVE"
);
},
{
closed = 1;
nodes = (
"379 341 LINE",
"330 399 LINE",
"185 420 OFFCURVE",
"119 335 OFFCURVE",
"119 267 CURVE SMOOTH",
"119 213 OFFCURVE",
"159 162 OFFCURVE",
"199 131 CURVE SMOOTH",
"235 103 OFFCURVE",
"286 79 OFFCURVE",
"345 79 CURVE SMOOTH",
"405 79 OFFCURVE",
"471 104 OFFCURVE",
"513 174 CURVE",
"485 276 LINE",
"442 156 OFFCURVE",
"285 128 OFFCURVE",
"229 158 CURVE",
"153 229 OFFCURVE",
"211 350 OFFCURVE",
"369 321 CURVE"
);
}
);
width = 655;
},
{
anchors = (
{
name = bindu;
position = "{555, 670}";
},
{
name = bottom;
position = "{445, 0}";
},
{
name = candrabindu;
position = "{535, 670}";
},
{
name = candrabinduCXT;
position = "{855, 670}";
},
{
name = top;
position = "{550, 475}";
}
);
background = {
paths = (
{
closed = 1;
nodes = (
"469 23 LINE",
"601 -46 LINE",
"655 -19 LINE",
"655 486 LINE",
"535 568 LINE",
"469 599 LINE"
);
},
{
closed = 1;
nodes = (
"765 538 LINE",
"790 587 LINE",
"725 670 LINE",
"429 670 LINE",
"404 621 LINE",
"469 538 LINE"
);
},
{
closed = 1;
nodes = (
"387 542 LINE",
"332 630 OFFCURVE",
"273 702 OFFCURVE",
"172 702 CURVE SMOOTH",
"74 702 OFFCURVE",
"10 634 OFFCURVE",
"10 553 CURVE SMOOTH",
"10 461 OFFCURVE",
"94 376 OFFCURVE",
"230 324 CURVE",
"269 380 LINE",
"219 404 OFFCURVE",
"193 456 OFFCURVE",
"193 493 CURVE SMOOTH",
"193 529 OFFCURVE",
"217 560 OFFCURVE",
"264 553 CURVE",
"284 533 OFFCURVE",
"301 508 OFFCURVE",
"318 484 CURVE"
);
},
{
closed = 1;
nodes = (
"434 340 LINE",
"362 459 LINE",
"200 494 OFFCURVE",
"93 396 OFFCURVE",
"93 293 CURVE SMOOTH",
"93 216 OFFCURVE",
"151 151 OFFCURVE",
"221 110 CURVE SMOOTH",
"274 79 OFFCURVE",
"331 63 OFFCURVE",
"386 63 CURVE SMOOTH",
"452 63 OFFCURVE",
"505 86 OFFCURVE",
"542 126 CURVE",
"471 309 LINE",
"437 245 OFFCURVE",
"336 190 OFFCURVE",
"270 205 CURVE",
"250 247 OFFCURVE",
"303 303 OFFCURVE",
"409 291 CURVE"
);
}
);
};
layerId = "818F884A-9448-4DD2-A77B-976162CCCBC7";
name = Bold;
paths = (
{
closed = 1;
nodes = (
"469 23 LINE",
"601 -46 LINE",
"655 -19 LINE",
"655 486 LINE",
"535 568 LINE",
"469 599 LINE"
);
},
{
closed = 1;
nodes = (
"765 538 LINE",
"790 587 LINE",
"725 670 LINE",
"429 670 LINE",
"404 621 LINE",
"469 538 LINE"
);
},
{
closed = 1;
nodes = (
"387 542 LINE",
"332 630 OFFCURVE",
"273 702 OFFCURVE",
"172 702 CURVE SMOOTH",
"74 702 OFFCURVE",
"10 633 OFFCURVE",
"10 556 CURVE SMOOTH",
"10 468 OFFCURVE",
"95 376 OFFCURVE",
"230 324 CURVE",
"269 390 LINE",
"231 408 OFFCURVE",
"182 440 OFFCURVE",
"182 491 CURVE SMOOTH",
"182 536 OFFCURVE",
"221 561 OFFCURVE",
"264 553 CURVE",
"284 533 OFFCURVE",
"301 508 OFFCURVE",
"318 484 CURVE"
);
},
{
closed = 1;
nodes = (
"434 340 LINE",
"362 459 LINE",
"196 494 OFFCURVE",
"93 394 OFFCURVE",
"93 293 CURVE SMOOTH",
"93 216 OFFCURVE",
"151 151 OFFCURVE",
"221 110 CURVE SMOOTH",
"274 79 OFFCURVE",
"331 63 OFFCURVE",
"386 63 CURVE SMOOTH",
"452 63 OFFCURVE",
"505 86 OFFCURVE",
"542 126 CURVE",
"471 309 LINE",
"437 245 OFFCURVE",
"336 190 OFFCURVE",
"270 205 CURVE",
"250 247 OFFCURVE",
"303 303 OFFCURVE",
"409 291 CURVE"
);
}
);
width = 725;
},
{
associatedMasterId = UUID0;
layerId = "2955BB3B-8B2A-4259-95C6-5DF8C69A12A2";
name = "Regular Jul 11 14, 14:27";
paths = (
{
closed = 1;
nodes = (
"652 518 LINE",
"656 540 LINE",
"614 588 LINE",
"320 588 LINE",
"315 566 LINE",
"358 518 LINE"
);
},
{
closed = 1;
nodes = (
"428 15 LINE",
"439 -3 OFFCURVE",
"456 -17 OFFCURVE",
"477 -23 CURVE",
"511 -16 LINE",
"511 480 LINE",
"428 553 LINE"
);
},
{
closed = 1;
nodes = (
"335 308 LINE",
"282 359 LINE",
"66 389 OFFCURVE",
"44 201 OFFCURVE",
"132 130 CURVE SMOOTH",
"156 110 OFFCURVE",
"197 84 OFFCURVE",
"215 75 CURVE SMOOTH",
"285 41 OFFCURVE",
"405 55 OFFCURVE",
"436 123 CURVE",
"436 123 OFFCURVE",
"428 259 OFFCURVE",
"428 259 CURVE",
"414 173 OFFCURVE",
"306 106 OFFCURVE",
"225 119 CURVE SMOOTH",
"131 134 OFFCURVE",
"122 321 OFFCURVE",
"321 286 CURVE"
);
},
{
closed = 1;
nodes = (
"251 439 LINE",
"286 459 OFFCURVE",
"290 498 OFFCURVE",
"279 523 CURVE SMOOTH",
"265 555 OFFCURVE",
"185 605 OFFCURVE",
"145 608 CURVE SMOOTH",
"60 614 OFFCURVE",
"8 554 OFFCURVE",
"8 496 CURVE SMOOTH",
"8 409 OFFCURVE",
"91 342 OFFCURVE",
"198 301 CURVE",
"254 313 LINE",
"234 321 OFFCURVE",
"215 330 OFFCURVE",
"200 339 CURVE SMOOTH",
"22 445 OFFCURVE",
"104 556 OFFCURVE",
"177 548 CURVE SMOOTH",
"223 543 OFFCURVE",
"216 504 OFFCURVE",
"190 480 CURVE"
);
}
);
width = 613;
}
);
leftKerningGroup = Gha;
unicode = 0927;
},
{
glyphname = dvNa;
lastChange = "2014-11-22 14:55:46 +0000";
layers = (
{
anchors = (
{
name = bindu;
position = "{413, 630}";
},
{
name = bottom;
position = "{363, 5}";
},
{
name = candrabindu;
position = "{398, 630}";
},
{
name = candrabinduCXT;
position = "{568, 630}";
},
{
name = top;
position = "{413, 468}";
}
);
background = {
paths = (
{
closed = 1;
nodes = (
"375 5 LINE",
"434 -33 LINE",
"458 -26 LINE",
"458 500 LINE",
"400 551 LINE",
"375 562 LINE"
);
},
{
closed = 1;
nodes = (
"569 538 LINE",
"578 558 LINE",
"548 608 LINE",
"-71 608 LINE",
"-80 588 LINE",
"-50 538 LINE"
);
},
{
closed = 1;
nodes = (
"394 367 LINE",
"96 367 LINE",
"127 291 LINE",
"416 291 LINE"
);
},
{
closed = 1;
nodes = (
"43 328 LINE",
"52 269 OFFCURVE",
"89 201 OFFCURVE",
"138 164 CURVE",
"186 183 LINE",
"186 322 LINE",
"129 367 LINE",
"70 367 LINE"
);
}
);
};
guideLines = (
{
angle = 270;
position = "{205, 198}";
}
);
layerId = UUID0;
name = Regular;
paths = (
{
closed = 1;
nodes = (
"375 5 LINE",
"434 -33 LINE",
"458 -26 LINE",
"458 500 LINE",
"400 551 LINE",
"375 562 LINE"
);
},
{
closed = 1;
nodes = (
"569 538 LINE",
"578 558 LINE",
"548 608 LINE",
"-21 608 LINE",
"-30 588 LINE",
"0 538 LINE"
);
},
{
closed = 1;
nodes = (
"394 367 LINE",
"96 367 LINE",
"127 291 LINE",
"416 291 LINE"
);
},
{
closed = 1;
nodes = (
"42 320 LINE",
"65 261 OFFCURVE",
"109 201 OFFCURVE",
"148 164 CURVE",
"196 183 LINE",
"196 322 LINE",
"129 367 LINE",
"83 367 LINE"
);
}
);
width = 548;
},
{
anchors = (
{
name = bindu;
position = "{460, 670}";
},
{
name = bottom;
position = "{350, 0}";
},
{
name = candrabindu;
position = "{440, 670}";
},
{
name = candrabinduCXT;
position = "{760, 670}";
},
{
name = top;
position = "{455, 475}";
}
);
background = {
paths = (
{
closed = 1;
nodes = (
"199 254 LINE",
"463 254 LINE",
"464 349 LINE",
"286 419 OFFCURVE",
"-90 391 OFFCURVE",
"-90 391 CURVE",
"-90 391 OFFCURVE",
"-104 344 OFFCURVE",
"-96 310 CURVE",
"-72 224 OFFCURVE",
"72 122 OFFCURVE",
"134 122 CURVE SMOOTH",
"169 122 OFFCURVE",
"201 136 OFFCURVE",
"199 202 CURVE"
);
},
{
closed = 1;
nodes = (
"333 36 LINE",
"442 -23 LINE",
"499 -6 LINE",
"499 489 LINE",
"399 567 LINE",
"333 598 LINE"
);
},
{
closed = 1;
nodes = (
"639 537 LINE",
"664 587 LINE",
"599 669 LINE",
"-217 669 LINE",
"-242 620 LINE",
"-177 537 LINE"
);
}
);
};
guideLines = (
{
position = "{281, 366}";
}
);
layerId = "818F884A-9448-4DD2-A77B-976162CCCBC7";
name = Bold;
paths = (
{
closed = 1;
nodes = (
"374 23 LINE",
"506 -46 LINE",
"560 -19 LINE",
"560 486 LINE",
"440 568 LINE",
"374 599 LINE"
);
},
{
closed = 1;
nodes = (
"670 538 LINE",
"695 587 LINE",
"630 670 LINE",
"-40 670 LINE",
"-65 621 LINE",
"0 538 LINE"
);
},
{
closed = 1;
nodes = (
"467 434 LINE",
"139 434 LINE",
"170 268 LINE",
"489 268 LINE"
);
},
{
closed = 1;
nodes = (
"7 376 LINE",
"20 290 OFFCURVE",
"101 174 OFFCURVE",
"190 130 CURVE",
"262 166 LINE",
"262 392 LINE",
"195 434 LINE",
"43 434 LINE"
);
}
);
width = 630;
},
{
associatedMasterId = UUID0;
layerId = "26A8C9B3-C643-4C55-B33D-9E0B80540A81";
name = "Regular Jul 11 14, 18:34";
paths = (
{
closed = 1;
nodes = (
"684 518 LINE",
"692 540 LINE",
"647 588 LINE",
"-39 588 LINE",
"-48 566 LINE",
"-3 518 LINE"
);
},
{
closed = 1;
nodes = (
"428 15 LINE",
"440 -3 OFFCURVE",
"457 -17 OFFCURVE",
"478 -23 CURVE",
"511 -16 LINE",
"511 480 LINE",
"428 553 LINE"
);
},
{
closed = 1;
nodes = (
"448 338 LINE",
"402 348 OFFCURVE",
"192 362 OFFCURVE",
"40 343 CURVE",
"7 241 OFFCURVE",
"98 158 OFFCURVE",
"191 111 CURVE SMOOTH",
"234 89 OFFCURVE",
"305 102 OFFCURVE",
"292 220 CURVE",
"232 295 LINE",
"232 295 OFFCURVE",
"212 294 OFFCURVE",
"212 294 CURVE",
"238 175 OFFCURVE",
"210 149 OFFCURVE",
"151 171 CURVE",
"119 212 OFFCURVE",
"122 272 OFFCURVE",
"122 272 CURVE",
"252 287 OFFCURVE",
"417 283 OFFCURVE",
"455 267 CURVE"
);
}
);
width = 616;
}
);
unicode = 0928;
},
{
glyphname = dvPa;
lastChange = "2014-11-22 14:55:46 +0000";
layers = (
{
anchors = (
{
name = bindu;
position = "{290, 630}";
},
{
name = bottom;
position = "{370, 5}";
},
{
name = candrabindu;
position = "{305, 630}";
},
{
name = candrabinduCXT;
position = "{575, 630}";
},
{
name = top;
position = "{420, 468}";
}
);
background = {
paths = (
{
closed = 1;
nodes = (
"401 338 LINE",
"379 259 OFFCURVE",
"322 212 OFFCURVE",
"252 212 CURVE SMOOTH",
"208 212 OFFCURVE",
"168 230 OFFCURVE",
"151 267 CURVE",
"151 344 LINE",
"68 362 LINE",
"68 243 OFFCURVE",
"179 135 OFFCURVE",
"283 135 CURVE SMOOTH",
"338 135 OFFCURVE",
"395 165 OFFCURVE",
"435 244 CURVE"
);
},
{
closed = 1;
nodes = (
"576 538 LINE",
"585 558 LINE",
"555 608 LINE",
"-21 608 LINE",
"-30 588 LINE",
"0 538 LINE"
);
},
{
closed = 1;
nodes = (
"382 5 LINE",
"441 -33 LINE",
"465 -26 LINE",
"465 500 LINE",
"407 551 LINE",
"382 562 LINE"
);
},
{
closed = 1;
nodes = (
"68 362 LINE",
"151 344 LINE",
"151 500 LINE",
"93 551 LINE",
"68 562 LINE"
);
},
{
closed = 1;
nodes = (
"412 340 LINE",
"388 255 OFFCURVE",
"315 212 OFFCURVE",
"250 212 CURVE SMOOTH",
"210 212 OFFCURVE",
"171 228 OFFCURVE",
"151 267 CURVE",
"151 344 LINE",
"68 362 LINE",
"68 243 OFFCURVE",
"188 135 OFFCURVE",
"287 135 CURVE SMOOTH",
"339 135 OFFCURVE",
"401 165 OFFCURVE",
"441 244 CURVE"
);
}
);
};
layerId = UUID0;
name = Regular;
paths = (
{
closed = 1;
nodes = (
"576 538 LINE",
"585 558 LINE",
"555 608 LINE",
"-21 608 LINE",
"-30 588 LINE",
"0 538 LINE"
);
},
{
closed = 1;
nodes = (
"382 5 LINE",
"441 -33 LINE",
"465 -26 LINE",
"465 500 LINE",
"407 551 LINE",
"382 562 LINE"
);
},
{
closed = 1;
nodes = (
"400 343 LINE",
"387 257 OFFCURVE",
"318 213 OFFCURVE",
"254 213 CURVE SMOOTH",
"213 213 OFFCURVE",
"174 231 OFFCURVE",
"153 267 CURVE",
"153 500 LINE",
"93 551 LINE",
"68 562 LINE",
"68 362 LINE SMOOTH",
"68 243 OFFCURVE",
"186 135 OFFCURVE",
"290 135 CURVE SMOOTH",
"344 135 OFFCURVE",
"401 164 OFFCURVE",
"442 246 CURVE"
);
}
);
width = 555;
},
{
anchors = (
{
name = bindu;
position = "{313, 670}";
},
{
name = bottom;
position = "{353, 0}";
},
{
name = candrabindu;
position = "{323, 670}";
},
{
name = candrabinduCXT;
position = "{763, 670}";
},
{
name = top;
position = "{458, 475}";
}
);
background = {
paths = (
{
closed = 1;
nodes = (
"311 36 LINE",
"420 -23 LINE",
"477 -6 LINE",
"477 489 LINE",
"377 567 LINE",
"311 598 LINE"
);
},
{
closed = 1;
nodes = (
"621 537 LINE",
"646 587 LINE",
"581 669 LINE",
"-147 669 LINE",
"-172 620 LINE",
"-107 537 LINE"
);
},
{
closed = 1;
nodes = (
"475 488 LINE",
"378 564 LINE",
"311 576 LINE",
"311 300 LINE SMOOTH",
"311 186 OFFCURVE",
"190 206 OFFCURVE",
"146 217 CURVE",
"146 489 LINE",
"20 588 LINE",
"-24 596 LINE",
"-24 302 LINE SMOOTH",
"-24 217 OFFCURVE",
"136 120 OFFCURVE",
"208 98 CURVE SMOOTH",
"345 57 OFFCURVE",
"428 161 OFFCURVE",
"475 276 CURVE"
);
}
);
};
layerId = "818F884A-9448-4DD2-A77B-976162CCCBC7";
name = Bold;
paths = (
{
closed = 1;
nodes = (
"673 538 LINE",
"698 587 LINE",
"633 670 LINE",
"-40 670 LINE",
"-65 621 LINE",
"0 538 LINE"
);
},
{
closed = 1;
nodes = (
"377 23 LINE",
"509 -46 LINE",
"563 -19 LINE",
"563 486 LINE",
"443 568 LINE",
"377 599 LINE"
);
},
{
closed = 1;
nodes = (
"391 410 LINE",
"391 304 OFFCURVE",
"323 259 OFFCURVE",
"260 259 CURVE SMOOTH",
"249 259 OFFCURVE",
"237 260 OFFCURVE",
"227 263 CURVE",
"227 486 LINE",
"107 568 LINE",
"30 599 LINE",
"30 378 LINE SMOOTH",
"30 250 OFFCURVE",
"210 103 OFFCURVE",
"331 103 CURVE SMOOTH",
"418 103 OFFCURVE",
"497 179 OFFCURVE",
"539 301 CURVE"
);
}
);
width = 633;
},
{
associatedMasterId = UUID0;
layerId = "1581D02E-7D6C-4D7F-A9CE-A479551C1E45";
name = "Regular Jul 11 14, 18:52";
paths = (
{
closed = 1;
nodes = (
"87 556 LINE",
"71 470 OFFCURVE",
"55 329 OFFCURVE",
"89 249 CURVE SMOOTH",
"102 220 OFFCURVE",
"123 202 OFFCURVE",
"146 184 CURVE SMOOTH",
"176 162 OFFCURVE",
"219 134 OFFCURVE",
"238 125 CURVE SMOOTH",
"278 108 OFFCURVE",
"365 115 OFFCURVE",
"397 164 CURVE",
"380 288 LINE",
"381 191 OFFCURVE",
"265 170 OFFCURVE",
"180 208 CURVE",
"143 292 OFFCURVE",
"160 435 OFFCURVE",
"167 483 CURVE"
);
},
{
closed = 1;
nodes = (
"611 518 LINE",
"618 540 LINE",
"575 588 LINE",
"-51 588 LINE",
"-58 566 LINE",
"-15 518 LINE"
);
},
{
closed = 1;
nodes = (
"380 15 LINE",
"392 -3 OFFCURVE",
"408 -17 OFFCURVE",
"429 -23 CURVE",
"463 -16 LINE",
"463 480 LINE",
"380 553 LINE"
);
}
);
width = 571;
}
);
leftKerningGroup = Pa;
unicode = 092A;
},
